<svg xmlns="http://www.w3.org/2000/svg" viewBox="0 0 53.99 26.26"><defs><style>.cls-1{fill:#0c0c0c;}</style></defs><title>angle grinder</title><g id="Layer_2" data-name="Layer 2"><g id="Layer_1-2" data-name="Layer 1"><path class="cls-1" d="M9,13.06a4.18,4.18,0,1,0,4.19,4.18A4.18,4.18,0,0,0,9,13.06Zm0,.59a.71.71,0,1,1-.71.71A.71.71,0,0,1,9,13.65ZM6.08,18a.72.72,0,0,1,0-1.43.72.72,0,0,1,0,1.43ZM9,20.83a.71.71,0,1,1,.72-.71A.71.71,0,0,1,9,20.83ZM9,18.88a1.63,1.63,0,1,1,1.63-1.63A1.63,1.63,0,0,1,9,18.88ZM11.83,18a.72.72,0,0,1,0-1.43.72.72,0,1,1,0,1.43Z"/><path class="cls-1" d="M9,8.24a9,9,0,1,0,9,9A9,9,0,0,0,9,8.24ZM9,21.93a4.69,4.69,0,1,1,4.69-4.69A4.69,4.69,0,0,1,9,21.93Z"/><path class="cls-1" d="M19.53,12.34A11.4,11.4,0,0,0,5.19,6.46l.49,1.37A10,10,0,0,1,17.73,22.25L19,22.9a11.43,11.43,0,0,0,.49-10.56Z"/><path class="cls-1" d="M19.05,9.79h3.09c0-.35-.21-.8-.91-1.34C21.23,7,22.32,0,20.42,0H18.7c-1.9,0-.8,7-.8,8.45a12.3,12.3,0,0,1,1.15,1.34Z"/><path class="cls-1" d="M40.61,10.56H39.32L40.75,12c.45.45.63,1,.41,1.22s-.77,0-1.22-.41l-2.25-2.25H36L37.44,12c.44.45.62,1,.4,1.22s-.77,0-1.22-.41l-2.25-2.25H32.61L34.05,12c.45.45.63,1,.4,1.22s-.77,0-1.21-.41L31,10.56H19.6a12.59,12.59,0,0,1,0,13.38H31.3L33.24,22c.44-.45,1-.63,1.22-.41s0,.78-.41,1.22l-1.12,1.12h1.76L36.62,22c.45-.45,1-.63,1.22-.41s0,.78-.4,1.22l-1.13,1.12H38L39.94,22c.45-.45,1-.63,1.22-.41s0,.78-.41,1.22l-1.11,1.12h1C49.47,23.94,49.47,10.56,40.61,10.56Zm-4,9.5a.37.37,0,1,1-.73,0V14.43a.37.37,0,0,1,.73,0Zm1.45,0a.36.36,0,1,1-.72,0V14.43a.36.36,0,0,1,.72,0Zm1.46,0a.37.37,0,1,1-.73,0V14.43a.37.37,0,0,1,.73,0Zm1.47,0a.37.37,0,1,1-.73,0V14.43a.37.37,0,0,1,.73,0Z"/><path class="cls-1" d="M54,18.43l-5.15.47a1.16,1.16,0,0,1-1.15-1.15v-.48a1.16,1.16,0,0,1,1.15-1.15l5.15.34Z"/></g></g></svg>