<svg width="48" height="48" viewBox="0 0 48 48" fill="none" xmlns="http://www.w3.org/2000/svg">
<path d="M26 22C26.5304 22 27.0391 22.2107 27.4142 22.5858C27.7893 22.9609 28 23.4696 28 24C28 24.5304 27.7893 25.0391 27.4142 25.4142C27.0391 25.7893 26.5304 26 26 26C25.4696 26 24.9609 25.7893 24.5858 25.4142C24.2107 25.0391 24 24.5304 24 24C24 23.4696 24.2107 22.9609 24.5858 22.5858C24.9609 22.2107 25.4696 22 26 22Z" fill="black"/>
<path d="M15.72 12.5C17.0302 11.0812 18.62 9.94889 20.3892 9.17444C22.1584 8.39999 24.0687 8.00012 26 8C33 8 38.88 13.22 39.86 20H44V24H32C32 22.4087 31.3679 20.8826 30.2426 19.7574C29.1174 18.6321 27.5913 18 26 18C24.4087 18 22.8826 18.6321 21.7574 19.7574C20.6321 20.8826 20 22.4087 20 24H4V20H4.1C4.5 15.46 6.28 11.32 9 8L15.72 12.5Z" fill="black"/>
<path d="M13.4601 15.78L10.1201 13.54C9.06012 15.5 8.36012 17.68 8.12012 20H12.1401C12.3601 18.5 12.8001 17.08 13.4601 15.78ZM14.8001 30.8L12.0001 28H23.5801C24.0601 28.84 25.0001 29.4 26.0001 29.4C27.0001 29.4 27.9401 28.84 28.4201 28H40.0001V30.8C36.7801 28.84 36.9201 31.5 36.9201 31.5V35.42L33.0001 39.34C32.0001 35.84 30.2001 37.8 30.2001 37.8L27.4001 40.6H21.8001C23.7601 37.38 21.1001 37.52 21.1001 37.52H17.1801L13.2601 33.6C16.7601 32.62 14.8001 30.8 14.8001 30.8Z" fill="black"/>
</svg>
