<svg width="22" height="32" viewBox="0 0 22 32" fill="none" xmlns="http://www.w3.org/2000/svg">
<g clip-path="url(#clip0_374_1039)">
<path d="M8.58633 15.912C8.51764 15.6878 8.44895 15.4733 8.36064 15.2588C7.96813 14.2838 7.56581 13.2502 7.18312 12.246C7.06401 11.9947 7.04866 11.707 7.14036 11.4446C7.23206 11.1821 7.42353 10.9658 7.67375 10.8419C8.19382 10.6079 8.65502 10.8419 8.98865 11.4855C11.3699 17.0235 13.7511 22.5486 16.1323 28.0607C16.1713 28.1551 16.2009 28.2531 16.2206 28.3532L5.95654 31.9998C5.86866 31.8286 5.79005 31.6528 5.72103 31.4733L0.0983724 15.7268C0.0292396 15.5822 -0.00931726 15.4251 -0.0149138 15.2652C-0.0205104 15.1053 0.00697233 14.9459 0.0658348 14.7969C0.124697 14.648 0.213688 14.5126 0.327304 14.3992C0.440921 14.2857 0.576747 14.1967 0.726383 14.1375C0.876441 14.0741 1.03813 14.0423 1.20119 14.0442C1.36426 14.0461 1.52515 14.0816 1.67367 14.1485C1.8222 14.2154 1.95511 14.3123 2.064 14.4329C2.17289 14.5535 2.25537 14.6953 2.30622 14.8493C2.77723 15.9705 3.18936 17.1113 3.63093 18.2423C3.71925 18.4568 3.837 18.6713 3.93513 18.8761L4.14119 18.8176C4.11153 18.5936 4.06562 18.372 4.00381 18.1546C3.39543 16.5165 2.76742 14.898 2.15903 13.2795C1.8254 12.363 2.26697 11.661 3.1403 11.8072C3.30537 11.8597 3.45817 11.9445 3.58964 12.0567C3.72111 12.169 3.82858 12.3062 3.90569 12.4605C4.51407 13.7962 5.06358 15.1613 5.64253 16.5068C5.74844 16.7045 5.86984 16.8935 6.0056 17.0723L6.22148 16.9748C6.15279 16.7798 6.11354 16.575 6.03504 16.3898L4.21969 12.0412C4.13569 11.9038 4.08186 11.7504 4.06172 11.5909C4.04159 11.4314 4.0556 11.2694 4.10286 11.1157C4.15011 10.962 4.22953 10.8199 4.33591 10.6988C4.44229 10.5777 4.57322 10.4803 4.72014 10.4129C4.87491 10.3453 5.04253 10.3116 5.21159 10.3141C5.38065 10.3166 5.54719 10.3552 5.69988 10.4274C5.85257 10.4995 5.98783 10.6035 6.09646 10.7323C6.20509 10.861 6.28454 11.0115 6.32942 11.1735C6.92799 12.5872 7.51675 14.0107 8.11532 15.4245C8.2003 15.6178 8.29528 15.8065 8.39989 15.99L8.58633 15.912Z" fill="#FCC006"/>
<path d="M9.06699 10.4228C8.01704 10.179 8.01704 10.179 8.03666 9.22353C8.03666 7.38075 8.11516 5.54772 8.16423 3.71469C8.17283 3.48023 8.22891 3.2499 8.32914 3.03747C8.42936 2.82503 8.57166 2.63486 8.74753 2.47831C8.9234 2.32176 9.12924 2.20205 9.35273 2.12634C9.57621 2.05063 9.81277 2.02047 10.0483 2.03767C10.1603 2.03656 10.2708 2.01162 10.3724 1.96453C10.474 1.91744 10.5642 1.84929 10.637 1.76466C10.87 1.32636 11.2544 0.986382 11.7196 0.807244C12.1847 0.628106 12.6993 0.621858 13.1687 0.789649C13.3738 0.80372 13.5768 0.741125 13.7378 0.614146C13.9671 0.366113 14.2571 0.181301 14.5796 0.0777078C14.9021 -0.0258852 15.246 -0.0447275 15.578 0.023016C15.91 0.0907594 16.2187 0.242779 16.474 0.464271C16.7293 0.685762 16.9226 0.969175 17.0349 1.28691C17.0993 1.38723 17.1857 1.47179 17.2877 1.53426C17.3896 1.59673 17.5045 1.6355 17.6236 1.64766C17.9064 1.6021 18.1957 1.61859 18.4714 1.69597C18.747 1.77335 19.0023 1.90974 19.2192 2.09557C19.4362 2.2814 19.6096 2.51217 19.7272 2.77167C19.8448 3.03117 19.9039 3.31311 19.9002 3.59769C19.9002 4.95296 19.9002 6.30824 19.9002 7.66351C20.0319 12.2659 20.6535 16.8414 21.7548 21.3137L21.9706 22.2302C21.8086 22.3122 21.6414 22.3839 21.4702 22.4447C19.645 22.9225 17.8101 23.4198 15.9947 23.878C15.0723 24.1218 15.0135 24.1023 14.8074 23.098C15.0726 22.9813 15.3446 22.8804 15.6219 22.7957C17.1232 22.3667 18.6343 21.9377 20.1455 21.538C20.5086 21.4405 20.6067 21.3235 20.538 20.9237C19.9983 17.9012 19.3899 14.8884 19.0268 11.8463C18.7521 9.60379 18.7913 7.32225 18.703 5.02121C18.703 4.49471 18.703 3.9682 18.703 3.44169C18.7141 3.34317 18.7041 3.24343 18.6736 3.14903C18.6431 3.05464 18.5928 2.96774 18.526 2.89406C18.4593 2.82037 18.3776 2.76156 18.2863 2.72151C18.1951 2.68145 18.0963 2.66106 17.9965 2.66168C17.8854 2.65053 17.7731 2.66308 17.6672 2.6985C17.5613 2.73393 17.4642 2.7914 17.3825 2.86708C17.3008 2.94276 17.2362 3.03491 17.1932 3.13737C17.1502 3.23982 17.1296 3.35022 17.133 3.46119C17.133 4.17295 17.133 4.88471 17.133 5.59647C17.133 6.00598 17.133 6.44474 16.5541 6.43499C15.9751 6.42524 15.9555 5.98648 15.9653 5.57697C15.9653 4.43621 16.034 3.28569 16.0536 2.14492C16.0536 1.39416 15.7887 1.0529 15.2097 1.04315C14.6308 1.0334 14.3756 1.36491 14.3658 2.12542V5.97673C14.3658 6.36674 14.3658 6.75674 13.836 6.78599C13.3061 6.81524 13.1981 6.39599 13.1883 5.99623C13.1883 4.93346 13.1883 3.88045 13.1883 2.82743C13.1883 2.29117 13.0411 1.85242 12.472 1.85242C11.9029 1.85242 11.7164 2.30092 11.7066 2.82743C11.7066 4.43621 11.6281 6.03523 11.6085 7.64401C11.6085 8.07301 11.5398 8.50202 11.0393 8.49227C10.5389 8.48252 10.5095 8.02426 10.5095 7.61476C10.5095 6.51299 10.5095 5.41122 10.5095 4.30945C10.5095 4.1047 10.5095 3.8512 10.4408 3.70494C10.3721 3.55869 9.9992 3.18819 9.82257 3.22719C9.68568 3.27197 9.56207 3.34971 9.46277 3.45349C9.36346 3.55726 9.29155 3.68385 9.25343 3.82195C9.19456 5.03097 9.25343 6.24973 9.25343 7.4685C9.18475 8.46302 9.11606 9.43803 9.06699 10.4228Z" fill="#FCC006"/>
<path d="M13.2868 20.0463C13.0025 19.671 12.7962 19.2432 12.6799 18.7879C12.5637 18.3326 12.5398 17.8588 12.6097 17.3942C12.8845 16.3787 13.091 15.3461 13.2279 14.3034C13.2805 13.8139 13.1702 13.3207 12.9139 12.8994C12.7748 12.7318 12.6013 12.5956 12.405 12.4997C12.2088 12.4039 11.9942 12.3507 11.7757 12.3436C11.5009 12.3436 11.236 12.8409 10.9906 13.1334C10.8897 13.2926 10.8074 13.4627 10.7453 13.6404C10.4117 13.0944 10.0388 12.6654 10.3528 12.0901C10.5267 11.7606 10.797 11.491 11.128 11.317C11.459 11.1429 11.8353 11.0726 12.2074 11.1151C12.5604 11.1839 12.8962 11.3213 13.1955 11.5195C13.4948 11.7177 13.7517 11.9727 13.9515 12.2699C14.1512 12.5672 14.2898 12.9007 14.3593 13.2514C14.4288 13.602 14.4278 13.9629 14.3564 14.3132C14.1209 16.0779 13.748 17.8135 13.4242 19.5685C13.3891 19.7306 13.3432 19.8902 13.2868 20.0463V20.0463Z" fill="#FCC006"/>
</g>
<defs>
<clipPath id="clip0_374_1039">
<rect width="22" height="32" fill="white"/>
</clipPath>
</defs>
</svg>
