<svg width="26" height="30" viewBox="0 0 26 30" fill="none" xmlns="http://www.w3.org/2000/svg">
<g clip-path="url(#clip0_374_1035)">
<path d="M23.4588 4.07663C22.46 2.70398 21.1074 1.63598 19.549 0.989559C16.5335 -0.160365 13.2264 -0.264766 10.146 0.692725C8.75129 0.969837 7.43988 1.57311 6.31641 2.4544C5.19295 3.3357 4.28852 4.47061 3.67531 5.76858C3.59712 5.97637 3.17682 6.06542 2.88359 6.14457C2.19832 6.27662 1.52728 6.47543 0.879826 6.73824C0.0880966 7.1637 0.000126737 8.09378 0.000126737 8.90513V22.2231C-0.00263624 23.0856 0.0397792 23.9476 0.127194 24.8055C0.254262 25.9533 0.752758 26.3787 1.83772 26.3787C3.63622 26.3787 5.47381 26.3787 7.27231 26.3787C7.94674 26.3293 8.15201 26.5469 8.15201 27.2198C8.10121 27.5896 8.13514 27.9662 8.25116 28.3206C8.36718 28.675 8.56218 28.9977 8.82108 29.2636C9.07999 29.5295 9.39585 29.7315 9.74424 29.8541C10.0926 29.9767 10.4642 30.0165 10.8302 29.9704C13.756 30.01 16.6883 30.01 19.6272 29.9704C20.0086 29.9999 20.3918 29.9458 20.7506 29.8116C21.1095 29.6775 21.4355 29.4666 21.7064 29.1932C21.9774 28.9199 22.1869 28.5906 22.3206 28.2278C22.4543 27.8651 22.5092 27.4773 22.4813 27.0911C22.4813 25.8642 22.5595 24.6373 22.4813 23.45C22.3948 21.8818 22.8021 20.3263 23.6445 19.0074C23.8986 18.6314 24.1039 18.2455 24.3189 17.8695C25.5076 15.7435 26.0896 13.3252 26.0001 10.884C25.912 8.39446 25.0192 6.00297 23.4588 4.07663V4.07663ZM14.6618 2.25605C14.6618 1.79101 14.8279 1.6228 15.2873 1.6228C16.8601 1.56958 18.4164 1.9607 19.782 2.75235C21.1475 3.54399 22.2684 4.70489 23.0189 6.10499C23.6693 7.12448 24.1237 8.25914 24.358 9.44932C24.0648 9.44932 23.8498 9.44932 23.6445 9.44932H16.2648C15.5904 9.44932 15.4633 9.24154 15.5904 8.64787C15.8054 7.79695 15.7565 6.9955 14.8377 6.57003C14.6716 6.57003 14.5934 6.19404 14.5934 5.97637L14.6618 2.25605ZM10.752 2.167C10.752 3.48296 10.752 4.8385 10.752 6.19404C10.752 6.31278 10.5467 6.57003 10.4197 6.57003H5.22945C5.63998 4.50209 8.31817 2.38468 10.752 2.167ZM8.32795 23.9348C7.37415 23.7522 6.53047 23.195 5.98108 22.3849C5.43169 21.5748 5.22122 20.5776 5.39562 19.6109C5.44449 19.2745 5.48359 18.9381 5.52268 18.5522C5.52268 17.2462 5.52268 17.2462 4.22268 17.0779C4.10983 17.0825 3.99713 17.0657 3.89035 17.0285C2.72719 16.8603 2.47306 16.6129 2.76629 15.4652C3.47983 13.0509 4.22268 10.6466 5.02419 8.27188C5.08518 8.14234 5.17864 8.03124 5.29526 7.94964C5.41188 7.86805 5.54758 7.81881 5.68885 7.80684H13.8016C14.3392 7.80684 14.4663 7.97505 14.3881 8.48956C13.5475 13.4368 12.7167 18.3049 11.9152 23.1729C11.7979 23.8062 11.5828 24.1624 10.9377 24.0535C10.6318 24.0338 10.3249 24.0338 10.0189 24.0535V24.103C9.46228 24.074 8.90758 24.0145 8.35727 23.9249L8.32795 23.9348ZM22.755 17.4144C21.3514 19.4081 20.6618 21.827 20.8001 24.2712C20.8441 25.115 20.8441 25.9605 20.8001 26.8042V27.3583C20.8005 27.4943 20.7731 27.6289 20.7198 27.7536C20.6664 27.8784 20.5882 27.9908 20.4901 28.0836C20.392 28.1765 20.276 28.2478 20.1494 28.2933C20.0228 28.3387 19.8883 28.3573 19.7543 28.3477H10.6152C9.9114 28.3477 9.63772 28.0509 9.63772 27.3583C9.58885 26.0423 9.58885 26.0028 10.8498 25.7455C11.4666 25.665 12.038 25.3741 12.4697 24.9209C12.9015 24.4676 13.1678 23.8791 13.2249 23.2521C13.7332 19.9572 14.3588 16.6921 14.8573 13.3576C14.9843 12.7145 15.1896 12.5067 15.8347 12.5067C18.6302 12.5067 21.4746 12.5067 24.358 12.5067C24.2625 14.2499 23.7201 15.9379 22.7843 17.4045L22.755 17.4144Z" fill="#FCC006"/>
<path d="M9.07055 12.3186C9.08221 12.4802 9.05935 12.6423 9.00355 12.7942C8.94774 12.946 8.86029 13.0838 8.74715 13.1984C8.634 13.3129 8.49781 13.4014 8.34785 13.4579C8.19788 13.5144 8.03766 13.5375 7.87807 13.5257C7.55568 13.531 7.24428 13.4071 7.01175 13.181C6.77922 12.9549 6.64441 12.6449 6.63672 12.3186C6.66143 11.9937 6.80015 11.6884 7.02781 11.4579C7.25548 11.2275 7.55706 11.087 7.87807 11.062C8.20042 11.0698 8.50665 11.2063 8.73003 11.4416C8.9534 11.677 9.0758 11.9923 9.07055 12.3186V12.3186Z" fill="#FCC006"/>
</g>
<defs>
<clipPath id="clip0_374_1035">
<rect width="26" height="30" fill="white"/>
</clipPath>
</defs>
</svg>
