<svg width="18" height="26" viewBox="0 0 18 26" fill="none" xmlns="http://www.w3.org/2000/svg">
<path d="M9 2.07349e-06C9.16896 -0.000303029 9.33631 0.0330654 9.49251 0.0981998C9.6487 0.163334 9.79067 0.258957 9.91029 0.379602V0.384802C11.5666 2.03518 13.0695 3.83588 14.4 5.7642C16.2154 8.4344 18 11.9522 18 15.6C18 19.0762 17.0743 21.7152 15.3797 23.491C13.6826 25.2668 11.3863 26 9 26C6.61371 26 4.31486 25.2668 2.62029 23.491C0.925714 21.7152 0 19.0762 0 15.6C0 11.9522 1.78457 8.4344 3.6 5.7642C4.93106 3.83622 6.43298 2.03478 8.08714 0.382202H8.08971C8.20912 0.261088 8.35099 0.164985 8.5072 0.0994008C8.6634 0.0338163 8.83086 3.83037e-05 9 2.07349e-06Z" fill="#FCC006"/>
</svg>
