<svg width="28" height="32" viewBox="0 0 28 32" fill="none" xmlns="http://www.w3.org/2000/svg">
<g clip-path="url(#clip0_374_1025)">
<path d="M28.0001 16.0149C27.9214 18.1165 27.1356 20.1302 25.7696 21.731C25.3544 22.1572 24.8385 22.4724 24.2694 22.6475C24.0973 22.6851 23.94 22.7724 23.8171 22.8985C23.6943 23.0247 23.6113 23.1842 23.5786 23.3571C22.8688 26.2448 21.2115 28.8121 18.8708 30.65C17.3337 31.717 15.4607 32.1899 13.6004 31.9804C12.1551 32.0239 10.7273 31.6546 9.48481 30.9161C7.1055 29.2528 5.38136 26.8132 4.60924 24.0174L4.43158 23.3472C4.34276 22.9924 4.15524 22.8446 3.76045 22.7066C3.10755 22.4986 2.52172 22.1211 2.06288 21.6127C0.675451 19.9207 -0.0566427 17.7871 0.00014217 15.601C0.0285006 15.1201 0.181548 14.6549 0.444273 14.2508C0.849616 13.8724 1.38836 13.6694 1.94301 13.686C2.49767 13.7026 3.02325 13.9375 3.40515 14.3395C3.4454 14.4381 3.46191 14.5448 3.45334 14.6509C3.44477 14.757 3.41136 14.8597 3.3558 14.9506C3.10038 15.111 2.79427 15.1708 2.49715 15.1181C1.51019 14.6845 1.29306 14.783 1.3128 15.8671C1.35735 17.7124 2.0212 19.4894 3.19789 20.913C3.24851 21.0113 3.31954 21.0978 3.40624 21.1666C3.49294 21.2354 3.59332 21.285 3.7007 21.312C3.80809 21.3391 3.92001 21.343 4.02901 21.3234C4.13802 21.3039 4.24161 21.2614 4.33289 21.1988C4.87571 20.913 5.21128 21.1101 5.37906 21.7704C5.70039 23.5558 6.37116 25.2604 7.35298 26.7867C8.10917 27.8215 8.99475 28.7554 9.98816 29.5659C10.721 30.098 11.5765 30.4369 12.4753 30.5514C15.7816 31.0343 18.5155 30.0882 20.371 27.1317C21.4199 25.5678 22.1293 23.802 22.4534 21.9478C22.5719 21.1791 22.9469 20.9623 23.6773 21.2579C23.8443 21.345 24.0378 21.367 24.2202 21.3196C24.4026 21.2723 24.5608 21.159 24.6642 21.0017C25.9944 19.4835 26.6996 17.5187 26.6381 15.5025C26.6381 14.7436 26.2137 14.6155 25.5624 15.0393C25.462 15.1023 25.3496 15.1436 25.2323 15.1605C25.115 15.1775 24.9955 15.1698 24.8814 15.1378C24.7711 15.0832 24.6757 15.0026 24.6035 14.9031C24.5313 14.8035 24.4844 14.6879 24.4668 14.5662C24.4668 14.3987 24.7728 14.2311 24.9603 14.0833C25.0832 14.0157 25.212 13.9596 25.3452 13.9158C26.9737 13.2752 27.9903 13.9749 28.01 15.7488L28.0001 16.0149Z" fill="#FCC006"/>
<path d="M3.17801 12.4473L3.03983 12.398C1.82587 11.9742 1.79627 11.9249 1.97392 10.6339C2.2891 8.18127 3.34316 5.88217 4.99643 4.04122C6.64969 2.20028 8.82412 0.904404 11.2316 0.325306C12.7886 -0.0324515 14.4011 -0.0787791 15.976 0.188996C17.551 0.456772 19.0573 1.03335 20.408 1.88545C21.7587 2.73756 22.927 3.84832 23.8455 5.15364C24.764 6.45896 25.4146 7.933 25.7596 9.49069C25.8836 10.0795 25.9726 10.6752 26.0261 11.2745C26.0952 12.1319 25.9175 12.26 24.7726 12.329C24.6542 11.4814 24.595 10.6339 24.4075 9.80606C23.8889 7.36668 22.5297 5.18626 20.5667 3.64461C18.6038 2.10295 16.1614 1.29776 13.665 1.36928C11.1687 1.44081 8.7766 2.38451 6.90538 4.03602C5.03417 5.68752 3.80244 7.94217 3.42475 10.4072C3.32605 11.0872 3.24709 11.7771 3.16814 12.4571L3.17801 12.4473Z" fill="#FCC006"/>
<path d="M21.4564 13.6003C19.5615 13.6003 17.6566 13.6003 15.7617 13.6003C15.3373 13.6003 15.209 13.8172 15.209 14.1917C15.209 15.5024 15.209 16.7639 15.209 18.0253C15.2199 18.5984 15.3973 19.1559 15.7197 19.6301C16.0421 20.1042 16.4956 20.4746 17.025 20.6961C18.0804 21.1148 19.2561 21.1148 20.3116 20.6961C20.8828 20.5303 21.387 20.1885 21.7521 19.7194C22.1173 19.2504 22.3247 18.6782 22.3447 18.0845C22.4236 16.6949 22.3447 15.256 22.3447 13.7383C22.0512 13.677 21.7547 13.631 21.4564 13.6003V13.6003ZM21.4564 18.114V18.2422C21.1998 19.4248 19.9365 20.095 18.2883 19.9668C17.7269 19.9383 17.1961 19.7028 16.7987 19.3059C16.4012 18.909 16.1653 18.3789 16.1367 17.8184V16.1331C16.1367 14.5366 16.1367 14.4873 17.6961 14.4085C18.8535 14.3755 20.0116 14.4315 21.1603 14.576C21.3281 14.576 21.5847 14.9111 21.5847 15.1181C21.5847 16.0937 21.4959 17.099 21.4564 18.114V18.114Z" fill="#FCC006"/>
<path d="M12.7611 13.6003H5.58594C5.58594 15.2462 5.58594 16.685 5.58594 18.0746C5.59802 18.676 5.80584 19.2571 6.17799 19.73C6.55015 20.203 7.06639 20.5421 7.64868 20.6961C8.3117 20.8691 8.99748 20.9389 9.68181 20.9031C10.4182 20.9289 11.1377 20.6796 11.6999 20.2039C12.262 19.7283 12.6263 19.0604 12.7216 18.3309C12.8192 16.7559 12.8324 15.1768 12.7611 13.6003V13.6003ZM11.8433 17.4833C11.879 17.8182 11.8393 18.1568 11.727 18.4744C11.6146 18.792 11.4325 19.0804 11.194 19.3186C10.9555 19.5567 10.6667 19.7385 10.3487 19.8507C10.0306 19.9629 9.6915 20.0026 9.35612 19.9668C8.69413 19.9267 8.04669 19.7559 7.45129 19.4642C7.14411 19.2988 6.89184 19.0476 6.72533 18.7413C6.55882 18.435 6.48527 18.0869 6.51368 17.7395C6.51368 16.892 6.42485 16.0543 6.38537 15.1673C6.38537 14.7436 6.51368 14.5366 6.93807 14.5366C8.40864 14.5366 9.89894 14.5366 11.33 14.4873C11.7051 14.4873 11.8729 14.6549 11.8334 15.0392L11.8433 17.4833Z" fill="#FCC006"/>
<path d="M24.0322 14.783C23.6572 16.0543 24.0322 17.5425 22.8676 18.5773L22.5518 18.528C22.5723 17.4954 22.658 16.4651 22.8084 15.4433C22.8676 15.1082 23.4696 14.8816 23.7953 14.6155L24.0322 14.783Z" fill="#FCC006"/>
<path d="M4.05676 14.6055C4.74763 14.9011 5.32007 15.1475 5.29046 16.0246C5.26085 16.9017 5.36941 17.631 5.41876 18.4589C4.54037 18.311 3.94819 16.6751 4.05676 14.6055Z" fill="#FCC006"/>
<path d="M3.16797 12.457C3.79962 12.457 4.44114 12.457 5.0728 12.457C6.67167 12.6049 8.27054 12.8118 9.86941 12.9892V13.1666C9.71394 13.204 9.55537 13.2271 9.39567 13.2356C8.40872 13.2849 7.36254 13.2356 6.35584 13.3933C5.53067 13.456 4.70718 13.2521 4.00688 12.8118C3.73937 12.6767 3.46228 12.5614 3.17784 12.4669L3.16797 12.457Z" fill="#FCC006"/>
<path d="M24.4466 12.2896C24 12.7332 23.4478 13.0564 22.8419 13.2288C22.236 13.4012 21.5962 13.4171 20.9824 13.2751C20.2688 13.1861 19.5483 13.1663 18.8308 13.2159C18.5841 13.2159 18.3472 13.2159 18.1104 13.2159V12.9696L24.4466 12.2896Z" fill="#FCC006"/>
<path d="M2.27049 12.3389C3.16862 12.7725 4.09636 13.1667 4.95501 13.689C5.20175 13.8369 5.21162 14.3592 5.38928 14.8618C4.20493 14.3296 3.24758 13.9354 2.33958 13.4525C2.13231 13.3441 2.10271 12.8908 1.99414 12.605L2.27049 12.3389Z" fill="#FCC006"/>
<path d="M25.7701 12.3191C26.0464 13.1174 25.8589 13.4327 25.2865 13.6496C24.4673 13.9551 23.6876 14.369 22.829 14.773C22.6513 14.3493 22.5822 13.8861 23.0658 13.62C23.9245 13.1568 24.8325 12.8119 25.7701 12.3191Z" fill="#FCC006"/>
<path d="M13.9851 15.1377C13.6101 14.911 13.087 14.7533 13.0771 14.5562C13.0771 14.0536 13.5213 13.9058 13.9555 13.9058C14.3898 13.9058 14.9425 14.0043 14.9425 14.5661C14.8932 14.7829 14.3602 14.911 13.9851 15.1377Z" fill="#FCC006"/>
<path d="M13.9358 16.2416C13.5805 16.0346 13.087 15.8769 13.0771 15.7094C13.0771 15.1378 13.6002 14.9998 14.0049 15.0688C14.4095 15.1378 14.6365 15.4729 14.9918 15.6995L13.9358 16.2416Z" fill="#FCC006"/>
<path d="M21.1603 14.5761C20.0116 14.4316 18.8534 14.3756 17.6961 14.4086C16.1367 14.4874 16.1367 14.5367 16.1367 16.1332V17.8185C16.1653 18.379 16.4012 18.9091 16.7986 19.306C17.1961 19.7029 17.7269 19.9384 18.2883 19.9669C19.9365 20.0951 21.1998 19.4249 21.4564 18.2423V18.1141C21.4564 17.1286 21.5847 16.0938 21.5847 15.1576C21.5847 14.9112 21.3281 14.5761 21.1603 14.5761ZM21.2886 16.4683V17.5228C21.2657 18.1225 21.0116 18.6901 20.5794 19.107C20.1471 19.5239 19.5702 19.7579 18.9693 19.76C17.2816 19.76 16.4723 19.1292 16.344 17.5228C16.3279 16.7192 16.3708 15.9155 16.4723 15.1182C16.4952 15.0155 16.5475 14.9217 16.6228 14.8482C16.6982 14.7747 16.7933 14.7247 16.8967 14.7042C18.1205 14.7042 19.3049 14.7042 20.5287 14.7042C21.1209 14.7042 21.4169 14.9999 21.3281 15.6306C21.2935 15.9084 21.2803 16.1885 21.2886 16.4683V16.4683Z" fill="#FCC006"/>
<path d="M11.3301 14.4873C9.8497 14.5366 8.36927 14.5366 6.93818 14.5366C6.51379 14.5366 6.346 14.7435 6.38548 15.1673C6.38548 16.0543 6.47431 16.892 6.51379 17.7395C6.48446 18.0859 6.55653 18.4332 6.72123 18.7394C6.88594 19.0456 7.13618 19.2974 7.44153 19.4642C8.03693 19.7559 8.68437 19.9267 9.34636 19.9668C9.68251 20.0041 10.0228 19.9657 10.342 19.8542C10.6613 19.7427 10.9514 19.5611 11.1911 19.3228C11.4307 19.0844 11.6137 18.7954 11.7266 18.4771C11.8395 18.1587 11.8794 17.8191 11.8434 17.4833V15.0392C11.8434 14.6548 11.7052 14.4873 11.3301 14.4873ZM8.96144 19.7599C8.65401 19.7678 8.34834 19.711 8.06433 19.5932C7.78032 19.4754 7.52433 19.2992 7.313 19.0761C7.10168 18.853 6.93975 18.588 6.83777 18.2983C6.73578 18.0086 6.69601 17.7007 6.72105 17.3946C6.72105 16.7244 6.72105 16.0937 6.72105 15.4236C6.72105 14.9604 6.84935 14.7928 7.27374 14.7435L9.42531 14.6154V14.783C10.0964 14.783 10.8959 14.5267 11.3203 14.8717C11.7447 15.2166 11.5374 16.005 11.5769 16.6357C11.647 16.9593 11.6736 17.2907 11.6558 17.6213C11.4091 19.2967 10.5702 19.7106 8.96144 19.7599V19.7599Z" fill="#FCC006"/>
<path d="M21.2691 16.4879C21.2691 16.8329 21.2691 17.1876 21.2691 17.5326C21.2536 18.1242 21.0039 18.6856 20.5747 19.0938C20.1456 19.5021 19.5719 19.7238 18.9794 19.7106C17.2818 19.7106 16.4922 19.0799 16.3639 17.4833C16.3264 16.6736 16.3627 15.8621 16.4725 15.0589C16.504 14.9638 16.5597 14.8784 16.6341 14.811C16.7084 14.7437 16.799 14.6967 16.8969 14.6746C18.1108 14.6746 19.3149 14.6746 20.519 14.6746C21.1211 14.6746 21.4073 14.9505 21.3086 15.5812C21.2887 15.8601 21.2887 16.1401 21.3086 16.4189L21.2691 16.4879Z" fill="#FCC006"/>
<path d="M9.39611 14.7829C10.0475 14.7829 10.8765 14.5365 11.2812 14.8519C11.6859 15.1672 11.4786 16.0246 11.5477 16.6455C11.6153 16.9694 11.6418 17.3005 11.6266 17.6311C11.3996 19.2867 10.5805 19.7105 8.98159 19.7105C8.67212 19.7211 8.3639 19.6664 8.07706 19.55C7.79021 19.4335 7.5312 19.2579 7.31696 19.0347C7.10271 18.8115 6.93805 18.5456 6.83374 18.2545C6.72942 17.9634 6.68779 17.6535 6.71158 17.3453C6.71158 16.7047 6.71158 16.0542 6.71158 15.3742C6.71158 14.9406 6.83002 14.7435 7.28402 14.7238C7.99463 14.7238 8.70524 14.6252 9.42572 14.5759L9.39611 14.7829Z" fill="#FCC006"/>
</g>
<defs>
<clipPath id="clip0_374_1025">
<rect width="28" height="32" fill="white"/>
</clipPath>
</defs>
</svg>
