<svg width="28" height="32" viewBox="0 0 28 32" fill="none" xmlns="http://www.w3.org/2000/svg">
<g clip-path="url(#clip0_374_1028)">
<path d="M24.8913 4.08847C23.9591 2.92887 22.8099 1.97016 21.5107 1.26821C20.2116 0.56627 18.7884 0.135142 17.3242 -3.41612e-05C14.6195 -0.283515 11.8995 0.363355 9.59666 1.83774C7.29379 3.31213 5.54022 5.5294 4.61472 8.13708C4.57609 8.38554 4.44682 8.60994 4.25282 8.76528C4.05883 8.92062 3.81443 8.99544 3.56863 8.97472C3.07551 8.96091 2.59237 9.11808 2.19815 9.42056C1.80393 9.72304 1.52193 10.1529 1.39824 10.64C1.10494 11.5774 0.850751 12.5646 0.606338 13.5419C0.480518 13.9121 0.464418 14.312 0.560047 14.6915C0.655677 15.071 0.858797 15.4134 1.14405 15.6759C1.51453 15.9493 1.92319 16.1645 2.35634 16.3141C2.19355 16.4602 2.04007 16.6167 1.89684 16.7828C1.34718 17.4591 0.856488 18.1832 0.43036 18.9467C-0.0352748 20.3683 -0.098822 21.895 0.247001 23.3518C0.592823 24.8086 1.33402 26.1366 2.38567 27.1835C3.00251 27.8236 3.7625 28.3015 4.60034 28.5759C5.43818 28.8503 6.32881 28.9132 7.19572 28.7591C7.94696 28.5903 8.68796 28.3772 9.415 28.1209V29.9956C9.41492 30.2618 9.46706 30.5252 9.56837 30.7705C9.66968 31.0158 9.81809 31.2379 10.0049 31.4238C10.1916 31.6096 10.413 31.7555 10.6559 31.8527C10.8988 31.95 11.1583 31.9966 11.4192 31.99C14.8508 31.99 18.3214 31.99 21.7921 31.99C22.0728 32.0018 22.3529 31.9532 22.614 31.8474C22.8752 31.7417 23.1116 31.5811 23.308 31.3761C23.5043 31.1711 23.6562 30.9263 23.7538 30.6575C23.8514 30.3888 23.8926 30.1021 23.8745 29.8161C23.9234 28.8189 23.8745 27.7619 23.9234 26.8245C23.9227 23.948 24.7045 21.1277 26.1818 18.6774C27.469 16.5923 28.1096 14.1595 28.0197 11.6971C27.9176 8.85747 26.8055 6.15289 24.8913 4.08847V4.08847ZM2.98204 14.2798C2.91208 14.3741 2.82396 14.4528 2.72308 14.5111C2.62221 14.5694 2.51071 14.6061 2.39544 14.6188C2.19014 14.4892 1.89684 14.1502 1.93595 13.9806C2.10932 13.0536 2.34783 12.1405 2.64963 11.2483C2.77673 10.7796 3.14824 10.6101 3.86192 10.65C3.56863 11.8865 3.32421 13.0832 2.98204 14.2798ZM19.4555 1.86472C20.9747 2.3965 22.3485 3.28851 23.4639 4.4674C25.2134 6.11721 26.312 8.36188 26.5533 10.7796C26.5714 10.8696 26.5704 10.9625 26.5501 11.052C26.5299 11.1415 26.4909 11.2255 26.4359 11.2982C24.8424 11.9364 23.2977 12.5746 21.665 13.2128C21.4988 12.6145 21.3326 12.1458 21.2446 11.6372C21.2364 11.4814 21.1968 11.3289 21.1283 11.1894C21.0598 11.0498 20.9639 10.9261 20.8465 10.826C20.7291 10.7259 20.5928 10.6516 20.446 10.6076C20.2992 10.5635 20.145 10.5508 19.9932 10.5702C19.7879 10.5702 19.4457 10.311 19.4457 10.1414L19.4555 1.86472ZM15.7404 9.07444C15.7404 8.90492 16.1119 8.77528 16.327 8.7354C16.6167 8.71546 16.9074 8.71546 17.1971 8.7354H17.7446C18.6636 8.7354 18.6245 8.7354 18.6636 9.67276C18.6636 10.2711 18.5365 10.5303 17.9108 10.4406C17.5363 10.4206 17.161 10.4206 16.7865 10.4406C15.7404 10.4406 15.4471 10.1414 15.7404 9.07444ZM13.3158 1.6952C13.5602 1.61542 13.8535 1.61542 14.1077 1.52567C14.7725 1.27638 14.9387 1.52567 14.9387 2.16388C14.9387 4.15827 14.9387 6.22246 14.9387 8.22683C14.9387 8.64565 14.9387 8.94481 14.3619 8.94481C11.644 8.94481 8.92617 8.94481 6.20829 8.94481C6.05322 8.93126 5.89953 8.90458 5.7488 8.86503C6.3 7.10757 7.28583 5.5246 8.61124 4.26876C9.93665 3.01293 11.5569 2.12658 13.3158 1.6952V1.6952ZM4.24321 14.6587C4.53651 13.3424 4.82003 12.1458 5.11332 10.999C5.16376 10.8877 5.23992 10.7905 5.33528 10.7159C5.43064 10.6412 5.54235 10.5912 5.66081 10.5702C6.63846 10.5702 7.61611 10.5702 8.59377 10.5702C8.69092 10.555 8.79023 10.5633 8.88365 10.5944C8.97708 10.6256 9.06198 10.6788 9.13149 10.7497C9.201 10.8206 9.25315 10.9072 9.28372 11.0025C9.31429 11.0978 9.32243 11.1991 9.30746 11.2982C9.30746 12.1857 9.30746 13.0832 9.30746 13.9806C9.30746 14.2399 8.97505 14.6188 8.79908 14.6188C7.29349 14.7086 5.86611 14.6587 4.24321 14.6587ZM7.82142 18.1988C7.29349 17.5606 6.84377 16.9523 6.2474 16.1545H8.41779C8.87895 16.2171 9.34687 16.1099 9.73751 15.8522C10.1281 15.5945 10.4159 15.2031 10.5491 14.7485C11.0086 13.6017 11.5267 12.4849 12.0547 11.378C12.348 10.7796 12.4751 10.6999 12.9346 10.7398C12.6413 12.7342 12.348 14.6587 12.0156 16.5833C11.9694 16.8023 11.8523 16.999 11.6832 17.1418C10.598 17.5606 9.55187 17.9894 8.46667 18.3783C8.3529 18.4035 8.23483 18.4004 8.12249 18.3691C8.01016 18.3379 7.90687 18.2795 7.82142 18.1988ZM22.4862 29.9757C22.356 30.2422 22.152 30.4641 21.8996 30.6139C21.6507 30.6594 21.3958 30.6594 21.1468 30.6139H12.0547C10.7153 30.6139 10.7153 30.6139 10.7153 29.2078V28.2106C10.6848 27.6121 10.8312 27.018 11.1357 26.5054C11.4012 25.763 11.572 24.9888 11.644 24.2019H22.6329C22.5938 26.2162 22.5938 28.1009 22.4862 29.9757ZM25.077 17.8597C24.4904 19.3156 23.8158 20.7217 23.2292 22.2075C23.0239 22.6862 22.8577 22.8956 22.3591 22.8557H11.2237C11.0242 22.876 10.8235 22.8334 10.6486 22.7335C10.4737 22.6336 10.3332 22.4813 10.246 22.2973C9.83539 21.4397 9.32701 20.6319 8.7893 19.6946C9.87449 19.2658 10.8815 18.8868 11.9276 18.4581C11.9276 18.6276 12.0058 18.7572 12.0058 18.7971C11.7516 20.2031 12.5533 20.7217 13.6385 21.1505C15.7704 22.0616 18.1636 22.1044 20.3256 21.2701C22.0365 20.5522 22.3298 19.9937 22.1636 18.119C22.1636 17.5207 22.0854 16.9224 22.0365 16.3241C21.9876 15.7257 21.9192 15.1773 21.8312 14.5391C23.4639 13.8909 25.0086 13.3026 26.7195 12.6544C26.6577 13.3267 26.5466 13.9934 26.3871 14.6488C26.0158 15.7413 25.5883 16.8131 25.1063 17.8597H25.077Z" fill="#FCC006"/>
<path d="M8.54484 10.5702C7.56719 10.5702 6.58953 10.5702 5.66076 10.5702C5.5423 10.5912 5.4306 10.6411 5.33524 10.7158C5.23988 10.7905 5.16371 10.8877 5.11328 10.999C4.81998 12.1458 4.53646 13.3424 4.24316 14.6587C5.82696 14.6587 7.29344 14.7086 8.75015 14.6587C8.92612 14.6587 9.21942 14.2798 9.25853 14.0205C9.25853 13.123 9.25853 12.2256 9.25853 11.338C9.28072 11.2361 9.27804 11.1301 9.25071 11.0294C9.22338 10.9287 9.17224 10.8364 9.10177 10.7606C9.03131 10.6848 8.94368 10.6278 8.84658 10.5946C8.74947 10.5614 8.64586 10.553 8.54484 10.5702V10.5702ZM7.45964 13.5618C7.16483 13.5369 6.88987 13.4002 6.68898 13.1786C6.4881 12.9571 6.37588 12.6669 6.37445 12.3652C6.37435 12.2164 6.40367 12.0691 6.46063 11.9322C6.5176 11.7952 6.60105 11.6713 6.70599 11.568C6.81094 11.4647 6.93524 11.384 7.07144 11.3308C7.20765 11.2776 7.35298 11.2529 7.49875 11.2583C7.65012 11.2529 7.801 11.2786 7.94249 11.3337C8.08398 11.3888 8.21322 11.4723 8.32257 11.5792C8.43192 11.6861 8.51917 11.8142 8.57918 11.9561C8.63918 12.0979 8.67072 12.2506 8.67193 12.405C8.64428 12.7197 8.5066 13.0137 8.28403 13.2334C8.06147 13.4531 7.76887 13.5838 7.45964 13.6017V13.5618Z" fill="#FCC006"/>
</g>
<defs>
<clipPath id="clip0_374_1028">
<rect width="28" height="32" fill="white"/>
</clipPath>
</defs>
</svg>
