<svg width="31" height="30" viewBox="0 0 31 30" fill="none" xmlns="http://www.w3.org/2000/svg">
<g clip-path="url(#clip0_374_1031)">
<path d="M14.6937 18.8796L19.5816 16.0671C19.8963 15.8496 20.2585 15.7109 20.6378 15.6627C21.0171 15.6145 21.4024 15.6582 21.7613 15.7901C22.1202 15.922 22.4423 16.1383 22.7005 16.4208C22.9587 16.7033 23.1454 17.0437 23.2451 17.4135C23.3879 17.8937 23.3676 18.4079 23.1875 18.8753C23.0073 19.3428 22.6774 19.7371 22.2496 19.9966C19.711 21.5026 17.1625 22.9886 14.5742 24.4148C14.2958 24.563 13.991 24.6547 13.6771 24.6848C13.3633 24.7148 13.0466 24.6826 12.7452 24.59C12.4438 24.4974 12.1636 24.3461 11.9206 24.145C11.6776 23.9438 11.4765 23.6966 11.3289 23.4175C10.2239 21.7918 9.14874 20.1362 8.05368 18.5006C7.93422 18.3111 7.7849 18.1416 7.65548 17.962L7.47629 18.0518C7.56589 18.2114 7.63557 18.3809 7.72517 18.5305C8.56139 19.7971 9.41752 21.0638 10.2338 22.3503C10.4374 22.6454 10.5577 22.9899 10.5823 23.3477C10.5823 25.3424 10.5823 27.337 10.5823 29.3317C10.5823 29.5112 10.5225 29.6908 10.4827 29.9999C9.73608 29.7805 9.03923 29.621 8.37224 29.3716C5.08431 28.1607 2.26689 25.9319 0.32857 23.0086C0.119877 22.6915 0.00590429 22.3212 5.38609e-05 21.9414C5.38609e-05 18.7499 5.38609e-05 15.5584 5.38609e-05 12.367C-0.00952099 12.0391 0.047716 11.7127 0.16827 11.4077C0.288823 11.1027 0.470163 10.8256 0.701214 10.5932C0.932266 10.3608 1.20818 10.178 1.51211 10.056C1.81603 9.93396 2.14159 9.87531 2.4689 9.88358C4.38027 9.93345 6.30159 10.0531 8.21296 10.1828C8.61147 10.2183 8.99462 10.3538 9.32697 10.577C9.65932 10.8001 9.93013 11.1036 10.1144 11.4594C11.4782 13.7134 12.862 15.9474 14.2358 18.1815C14.3652 18.4009 14.5145 18.6103 14.6937 18.8796Z" fill="#FCC006"/>
<path d="M5.8639 8.97596C5.27333 8.98008 4.68792 8.86558 4.14225 8.63924C3.59659 8.4129 3.10173 8.07929 2.68692 7.65813C2.2721 7.23697 1.94574 6.7368 1.72711 6.18716C1.50848 5.63752 1.40201 5.04956 1.414 4.458C1.41517 3.8636 1.53472 3.2754 1.76564 2.72787C1.99656 2.18033 2.33421 1.68445 2.75881 1.26929C3.18341 0.854117 3.68644 0.527998 4.23842 0.31003C4.7904 0.0920608 5.38024 -0.0133763 5.97341 -0.000107189C6.56502 0.00241912 7.15022 0.122847 7.69493 0.354162C8.23964 0.585478 8.73296 0.923058 9.14617 1.34724C9.55938 1.77143 9.88423 2.27374 10.1018 2.82492C10.3193 3.37611 10.4252 3.96515 10.4134 4.55774C10.415 5.15028 10.2975 5.73708 10.0676 6.28307C9.83783 6.82906 9.50051 7.32303 9.07583 7.73546C8.65116 8.14788 8.14785 8.4703 7.59598 8.68344C7.04411 8.89658 6.45501 8.99607 5.8639 8.97596V8.97596Z" fill="#FCC006"/>
<path d="M30.9997 12.8156L28.6006 14.7505L25.2457 17.4233C25.1102 17.55 24.9457 17.6415 24.7668 17.6898C24.5878 17.7381 24.3997 17.7418 24.219 17.7004C24.0383 17.6591 23.8704 17.5741 23.7301 17.4527C23.5898 17.3314 23.4812 17.1775 23.414 17.0045C23.222 16.5608 22.9148 16.1769 22.5244 15.8927C22.1339 15.6086 21.6745 15.4345 21.194 15.3888C21.0371 15.3499 20.8731 15.3499 20.7162 15.3888C19.422 15.9971 18.5261 15.0297 17.4708 14.6906L17.3613 14.4712C17.4907 14.3914 17.6401 14.3316 17.7695 14.2418C19.7605 12.8954 21.7515 11.539 23.7425 10.2525C23.8717 10.1715 24.0162 10.1182 24.167 10.0959C24.3178 10.0736 24.4715 10.0827 24.6186 10.1228C26.6096 10.8908 28.5209 11.7186 30.4622 12.5264C30.6469 12.6122 30.8264 12.7088 30.9997 12.8156V12.8156Z" fill="#FCC006"/>
<path d="M21.4732 4.04907C21.9511 5.22593 22.4687 6.37288 22.8669 7.51982C23.1556 8.25785 23.733 9.11556 23.5538 9.73391C23.3746 10.3523 22.409 10.6714 21.7719 11.1102C20.3184 12.1076 18.865 13.1049 17.4116 14.1023C17.3312 14.1417 17.248 14.175 17.1627 14.202C17.0706 14.0819 16.9874 13.9553 16.9138 13.823C16.1672 12.1574 15.4305 10.4819 14.6839 8.83631C14.5445 8.51716 14.5246 8.28777 14.873 8.07833C16.9735 6.79176 19.0541 5.49522 21.1546 4.19867C21.2556 4.13834 21.3623 4.08823 21.4732 4.04907V4.04907Z" fill="#FCC006"/>
<path d="M11.6377 8.02852L19.7212 3.26123C20.5375 4.01921 20.5275 4.13889 19.7212 4.65751C18.0587 5.65485 16.4261 6.73198 14.7437 7.6994C14.1165 8.05844 14.0966 8.38756 14.3952 8.97599C15.0025 10.2127 15.56 11.4793 16.1374 12.736C16.217 12.9255 16.2867 13.115 16.3564 13.3044L16.1872 13.4142L11.6377 8.02852Z" fill="#FCC006"/>
<path d="M16.7741 14.8902C15.6194 15.2692 14.6338 15.5983 13.6283 15.8875C13.5439 15.9011 13.4574 15.8926 13.3772 15.8629C13.297 15.8332 13.2258 15.7833 13.1704 15.718C12.4636 14.6209 11.7966 13.5039 11.04 12.2672C11.9459 11.948 12.7722 11.6488 13.5985 11.3796C13.6648 11.3754 13.7311 11.3857 13.793 11.4099C13.8549 11.434 13.9108 11.4713 13.9569 11.5192C14.8628 12.5863 15.7587 13.6635 16.7741 14.8902Z" fill="#FCC006"/>
</g>
<defs>
<clipPath id="clip0_374_1031">
<rect width="31" height="30" fill="white"/>
</clipPath>
</defs>
</svg>
