<svg width="20" height="20" viewBox="0 0 20 20" fill="none" xmlns="http://www.w3.org/2000/svg">
<path d="M10 1.25C8.1773 1.25215 6.42987 1.97717 5.14102 3.26602C3.85218 4.55486 3.12716 6.3023 3.12501 8.125C3.12282 9.61452 3.60937 11.0636 4.51001 12.25C4.51001 12.25 4.69751 12.4969 4.72813 12.5325L10 18.75L15.2744 12.5294C15.3019 12.4963 15.49 12.25 15.49 12.25L15.4906 12.2481C16.3908 11.0623 16.8771 9.61383 16.875 8.125C16.8729 6.3023 16.1478 4.55486 14.859 3.26602C13.5701 1.97717 11.8227 1.25215 10 1.25V1.25ZM10.625 11.25H9.37501V10H10.625V11.25ZM10.625 8.75H9.37501V7.5H10.625V8.75ZM13.125 11.25H11.875V6.25H8.12501V11.25H6.87501V6.25C6.87534 5.91858 7.00714 5.60083 7.24149 5.36648C7.47584 5.13213 7.79359 5.00033 8.12501 5H11.875C12.2064 5.00033 12.5242 5.13213 12.7585 5.36648C12.9929 5.60083 13.1247 5.91858 13.125 6.25V11.25Z" fill="black"/>
</svg>
