<svg width="228" height="178" viewBox="0 0 228 178" fill="none" xmlns="http://www.w3.org/2000/svg">
<path d="M6.46863 90.2175L59.1884 59.7471V57.0562L6.46863 87.5265V90.2175Z" fill="#C7C7C7"/>
<path d="M16.3536 79.8988L49.3035 60.8599L59.1884 57.0562L6.46863 87.5265L16.3536 79.8988Z" fill="#C7C7C7"/>
<path d="M6.46869 90.2172L0 86.4741V83.7832L6.46869 87.5262V90.2172Z" fill="#A39995"/>
<path d="M16.3537 79.8986L9.88496 76.1758L0 83.7833L6.46869 87.5263L16.3537 79.8986Z" fill="#EEECEF"/>
<path d="M52.4166 53.3332L57.9958 56.7728L48.4747 60.3742L15.6866 79.5345L6.46869 86.3934L1.11181 83.4596L9.88496 76.1759L0 83.7834L6.46869 87.5264L16.3537 79.8987L49.3035 60.8598L59.1885 57.056L52.7198 53.313L52.4166 53.3332Z" fill="#F5F4F7"/>
<path d="M16.3537 79.8987L9.88501 76.1759L20.1743 71.6437L26.5621 68.6898L33.8394 63.7328L42.8349 57.1167L49.3036 60.8597L40.8134 67.1926L32.8286 72.5542L25.6727 75.9331L16.3537 79.8987Z" fill="#DFDEE0"/>
<path d="M59.1885 57.056L52.7198 53.313L42.8348 57.1167L49.3035 60.8598L59.1885 57.056Z" fill="#EEECEF"/>
<path d="M19.7497 86.4341L0.869263 75.5084V73.3638L19.7497 84.2692V86.4341Z" fill="#9E8D77"/>
<path d="M22.0946 82.9132L19.7497 84.2688L0.869263 73.3634L3.21416 72.0078L22.0946 82.9132Z" fill="#B5A897"/>
<path d="M19.7498 86.4341L22.0947 85.0785V82.9136L19.7498 84.2692V86.4341Z" fill="#806A4D"/>
<path d="M57.1872 64.7849L38.3068 53.8795V51.7349L57.1872 62.6403V64.7849Z" fill="#9E8D77"/>
<path d="M59.5322 61.2848L57.1873 62.6404L38.3068 51.735L40.6517 50.3794L59.5322 61.2848Z" fill="#B5A897"/>
<path d="M57.1873 64.7849L59.5322 63.4496V61.2847L57.1873 62.6403V64.7849Z" fill="#806A4D"/>
<path d="M25.3491 101.143L78.0891 70.6729V67.9819L25.3491 98.4523V101.143Z" fill="#C7C7C7"/>
<path d="M35.2341 90.8246L68.2042 71.7654L78.0891 67.9819L25.3491 98.4523L35.2341 90.8246Z" fill="#C7C7C7"/>
<path d="M25.3492 101.143L18.8805 97.3999V94.709L25.3492 98.452V101.143Z" fill="#A39995"/>
<path d="M35.2341 90.8246L28.7655 87.0815L18.8805 94.7093L25.3492 98.4523L35.2341 90.8246Z" fill="#EEECEF"/>
<path d="M71.3173 64.259L76.8763 67.6783L67.3755 71.3L34.5873 90.4401L25.3492 97.3191L19.9923 94.3854L28.7655 87.0814L18.8805 94.7091L25.3492 98.4522L35.2341 90.8245L68.2043 71.7653L78.0892 67.9818L71.6003 64.2388L71.3173 64.259Z" fill="#F5F4F7"/>
<path d="M35.2342 90.8244L28.7655 87.0814L39.075 82.5493L45.4628 79.6155L52.7401 74.6586L61.7154 68.0425L68.2043 71.7653L59.6939 78.0981L51.7293 83.48L44.5734 86.8588L35.2342 90.8244Z" fill="#DFDEE0"/>
<path d="M78.0892 67.9818L71.6003 64.2388L61.7153 68.0425L68.2042 71.7653L78.0892 67.9818Z" fill="#EEECEF"/>
<path d="M38.6505 97.3393L19.7498 86.4339V84.269L38.6505 95.1947V97.3393Z" fill="#9E8D77"/>
<path d="M40.9751 93.8392L38.6505 95.1948L19.7498 84.2692L22.0947 82.9136L40.9751 93.8392Z" fill="#B5A897"/>
<path d="M38.6504 97.3391L40.9751 95.9835V93.8389L38.6504 95.1944V97.3391Z" fill="#806A4D"/>
<path d="M76.0677 75.7104L57.1873 64.7848V62.6401L76.0677 73.5455V75.7104Z" fill="#9E8D77"/>
<path d="M78.4126 72.2103L76.0677 73.5457L57.1873 62.6403L59.5322 61.2847L78.4126 72.2103Z" fill="#B5A897"/>
<path d="M76.0677 75.7107L78.4126 74.3551V72.2104L76.0677 73.5458V75.7107Z" fill="#806A4D"/>
<path d="M44.2499 112.049L96.9697 81.5781V78.8872L44.2499 109.358V112.049Z" fill="#C7C7C7"/>
<path d="M54.1348 101.73L87.0847 82.6909L96.9697 78.8872L44.2499 109.358L54.1348 101.73Z" fill="#C7C7C7"/>
<path d="M44.2498 112.048L37.7811 108.305V105.614L44.2498 109.357V112.048Z" fill="#A39995"/>
<path d="M54.1348 101.73L47.6459 98.0068L37.7811 105.614L44.2498 109.357L54.1348 101.73Z" fill="#EEECEF"/>
<path d="M90.1977 75.1643L95.777 78.6038L86.2559 82.2052L53.4677 101.345L44.2498 108.224L38.8727 105.291L47.6459 98.0069L37.7811 105.614L44.2498 109.357L54.1348 101.73L87.0847 82.6908L96.9696 78.8871L90.5009 75.144L90.1977 75.1643Z" fill="#F5F4F7"/>
<path d="M54.1348 101.73L47.6459 98.0069L57.9553 93.4748L64.3432 90.5208L71.6205 85.5638L80.616 78.9478L87.0847 82.6908L78.5945 89.0236L70.6097 94.3853L63.4537 97.7641L54.1348 101.73Z" fill="#DFDEE0"/>
<path d="M96.9697 78.8871L90.5011 75.144L80.6161 78.9478L87.0848 82.6908L96.9697 78.8871Z" fill="#EEECEF"/>
<path d="M57.5309 108.265L38.6504 97.3395V95.1948L57.5309 106.1V108.265Z" fill="#9E8D77"/>
<path d="M59.8758 104.744L57.5309 106.1L38.6504 95.1945L40.9751 93.8389L59.8758 104.744Z" fill="#B5A897"/>
<path d="M57.5309 108.265L59.8758 106.91V104.745L57.5309 106.1V108.265Z" fill="#806A4D"/>
<path d="M94.9684 86.6162L76.0677 75.7108V73.5459L94.9684 84.4715V86.6162Z" fill="#9E8D77"/>
<path d="M97.2931 83.1159L94.9684 84.4714L76.0677 73.5458L78.4126 72.2104L97.2931 83.1159Z" fill="#B5A897"/>
<path d="M94.9684 86.616L97.2931 85.2604V83.1157L94.9684 84.4713V86.616Z" fill="#806A4D"/>
<path d="M63.1304 122.974L115.85 92.5034V89.8125L63.1304 120.283V122.974Z" fill="#C7C7C7"/>
<path d="M73.0153 112.655L105.965 93.596L115.85 89.8125L63.1304 120.283L73.0153 112.655Z" fill="#C7C7C7"/>
<path d="M63.1303 122.974L56.6616 119.231V116.54L63.1303 120.283V122.974Z" fill="#A39995"/>
<path d="M73.0153 112.656L66.5466 108.913L56.6616 116.54L63.1303 120.283L73.0153 112.656Z" fill="#EEECEF"/>
<path d="M109.078 86.0698L114.657 89.5094L105.136 93.1108L72.3482 112.271L63.1303 119.13L57.7734 116.216L66.5466 108.912L56.6616 116.54L63.1303 120.283L73.0153 112.656L105.965 93.5964L115.85 89.8129L109.381 86.0698H109.078Z" fill="#F5F4F7"/>
<path d="M73.0153 112.655L66.5466 108.912L76.8359 104.38L83.2237 101.426L90.501 96.4893L99.4965 89.853L105.965 93.5961L97.4751 99.9289L89.4903 105.291L82.3343 108.69L73.0153 112.655Z" fill="#DFDEE0"/>
<path d="M115.85 89.8129L109.382 86.0698L99.4966 89.8533L105.965 93.5964L115.85 89.8129Z" fill="#EEECEF"/>
<path d="M76.4114 119.17L57.5309 108.265V106.1L76.4114 117.026V119.17Z" fill="#9E8D77"/>
<path d="M78.7563 115.67L76.4114 117.026L57.5309 106.1L59.8758 104.745L78.7563 115.67Z" fill="#B5A897"/>
<path d="M76.4114 119.17L78.7563 117.815V115.67L76.4114 117.026V119.17Z" fill="#806A4D"/>
<path d="M113.849 97.5415L94.9684 86.6159V84.4712L113.849 95.3766V97.5415Z" fill="#9E8D77"/>
<path d="M116.194 94.0211L113.849 95.3767L94.9684 84.4713L97.2931 83.1157L116.194 94.0211Z" fill="#B5A897"/>
<path d="M113.849 97.5415L116.194 96.1859V94.021L113.849 95.3766V97.5415Z" fill="#806A4D"/>
<path d="M82.0109 133.88L134.731 103.409V100.718L82.0109 131.189V133.88Z" fill="#C7C7C7"/>
<path d="M91.8958 123.561L124.866 104.522L134.731 100.718L82.0109 131.189L91.8958 123.561Z" fill="#C7C7C7"/>
<path d="M82.0108 133.879L75.5421 130.136V127.445L82.0108 131.188V133.879Z" fill="#A39995"/>
<path d="M91.8958 123.561L85.4271 119.818L75.5421 127.446L82.0108 131.189L91.8958 123.561Z" fill="#EEECEF"/>
<path d="M127.979 96.9953L133.538 100.435L124.017 104.036L91.2287 123.176L82.0108 130.055L76.6539 127.122L85.4271 119.818L75.5421 127.445L82.0108 131.189L91.8958 123.561L124.866 104.522L134.731 100.718L128.262 96.9751L127.979 96.9953Z" fill="#F5F4F7"/>
<path d="M91.8958 123.561L85.4271 119.818L95.7164 115.286L102.124 112.352L109.381 107.395L118.377 100.779L124.866 104.522L116.356 110.855L108.371 116.216L101.215 119.595L91.8958 123.561Z" fill="#DFDEE0"/>
<path d="M134.731 100.718L128.262 96.9751L118.377 100.779L124.866 104.522L134.731 100.718Z" fill="#EEECEF"/>
<path d="M95.3121 130.096L76.4114 119.17V117.025L95.3121 127.931V130.096Z" fill="#9E8D77"/>
<path d="M97.6368 126.575L95.3121 127.931L76.4114 117.026L78.7563 115.67L97.6368 126.575Z" fill="#B5A897"/>
<path d="M95.3121 130.096L97.6368 128.74V126.575L95.3121 127.931V130.096Z" fill="#806A4D"/>
<path d="M132.729 108.447L113.849 97.5414V95.3765L132.729 106.302V108.447Z" fill="#9E8D77"/>
<path d="M135.074 104.947L132.729 106.302L113.849 95.3766L116.194 94.021L135.074 104.947Z" fill="#B5A897"/>
<path d="M132.729 108.447L135.074 107.091V104.947L132.729 106.302V108.447Z" fill="#806A4D"/>
<path d="M100.911 144.785L153.631 114.314V111.624L100.911 142.094V144.785Z" fill="#C7C7C7"/>
<path d="M110.796 134.486L143.746 115.427L153.631 111.624L100.911 142.094L110.796 134.486Z" fill="#C7C7C7"/>
<path d="M100.912 144.785L94.4429 141.062V138.371L100.912 142.094V144.785Z" fill="#A39995"/>
<path d="M110.797 134.486L104.308 130.743L94.4429 138.371L100.912 142.094L110.797 134.486Z" fill="#EEECEF"/>
<path d="M146.859 107.901L152.439 111.34L142.918 114.942L110.129 134.102L100.912 140.961L95.5345 138.027L104.308 130.744L94.4429 138.371L100.912 142.094L110.797 134.487L143.746 115.427L153.631 111.624L147.142 107.901H146.859Z" fill="#F5F4F7"/>
<path d="M110.797 134.486L104.308 130.743L114.617 126.211L121.005 123.257L128.282 118.3L137.278 111.684L143.746 115.427L135.256 121.76L127.271 127.122L120.115 130.521L110.797 134.486Z" fill="#DFDEE0"/>
<path d="M153.631 111.624L147.142 107.901L137.278 111.684L143.746 115.427L153.631 111.624Z" fill="#EEECEF"/>
<path d="M114.193 141.001L95.3121 130.096V127.931L114.193 138.857V141.001Z" fill="#9E8D77"/>
<path d="M116.538 137.501L114.193 138.856L95.3121 127.931L97.6368 126.575L116.538 137.501Z" fill="#B5A897"/>
<path d="M114.193 141.001L116.538 139.646V137.501L114.193 138.857V141.001Z" fill="#806A4D"/>
<path d="M151.63 119.352L132.729 108.447V106.302L151.63 117.208V119.352Z" fill="#9E8D77"/>
<path d="M153.955 115.852L151.63 117.208L132.729 106.302L135.074 104.947L153.955 115.852Z" fill="#B5A897"/>
<path d="M151.63 119.352L153.955 118.017V115.852L151.63 117.208V119.352Z" fill="#806A4D"/>
<path d="M119.792 155.711L172.512 125.24V122.549L119.792 153.02V155.711Z" fill="#C7C7C7"/>
<path d="M129.677 145.392L162.627 126.353L172.512 122.549L119.792 153.02L129.677 145.392Z" fill="#C7C7C7"/>
<path d="M119.792 155.71L113.323 151.967V149.276L119.792 153.019V155.71Z" fill="#A39995"/>
<path d="M129.677 145.392L123.208 141.649L113.323 149.277L119.792 153.02L129.677 145.392Z" fill="#EEECEF"/>
<path d="M165.74 118.826L171.319 122.246L161.798 125.867L129.01 145.007L119.792 151.887L114.415 148.953L123.208 141.649L113.323 149.277L119.792 153.02L129.677 145.392L162.627 126.353L172.512 122.549L166.043 118.806L165.74 118.826Z" fill="#F5F4F7"/>
<path d="M129.677 145.392L123.208 141.649L133.498 137.117L139.885 134.183L147.163 129.226L156.158 122.61L162.627 126.353L154.137 132.686L146.152 138.047L138.996 141.426L129.677 145.392Z" fill="#DFDEE0"/>
<path d="M172.512 122.549L166.043 118.806L156.158 122.61L162.627 126.353L172.512 122.549Z" fill="#EEECEF"/>
<path d="M133.073 151.906L114.193 141.001V138.856L133.073 149.762V151.906Z" fill="#9E8D77"/>
<path d="M135.418 148.406L133.073 149.762L114.193 138.857L116.538 137.501L135.418 148.406Z" fill="#B5A897"/>
<path d="M133.073 151.906L135.418 150.571V148.406L133.073 149.762V151.906Z" fill="#806A4D"/>
<path d="M170.511 130.278L151.63 119.352V117.208L170.511 128.113V130.278Z" fill="#9E8D77"/>
<path d="M172.856 126.778L170.511 128.113L151.63 117.208L153.955 115.852L172.856 126.778Z" fill="#B5A897"/>
<path d="M170.511 130.278L172.856 128.922V126.778L170.511 128.113V130.278Z" fill="#806A4D"/>
<path d="M138.672 166.616L191.392 136.146V133.455L138.672 163.925V166.616Z" fill="#C7C7C7"/>
<path d="M148.557 156.297L181.507 137.258L191.392 133.455L138.672 163.925L148.557 156.297Z" fill="#C7C7C7"/>
<path d="M138.673 166.616L132.204 162.873V160.182L138.673 163.925V166.616Z" fill="#A39995"/>
<path d="M148.557 156.297L142.089 152.574L132.204 160.182L138.673 163.925L148.557 156.297Z" fill="#EEECEF"/>
<path d="M184.62 129.732L190.2 133.171L180.679 136.773L147.89 155.913L138.673 162.792L133.316 159.858L142.089 152.574L132.204 160.182L138.673 163.925L148.558 156.297L181.507 137.258L191.392 133.454L184.924 129.711L184.62 129.732Z" fill="#F5F4F7"/>
<path d="M148.557 156.297L142.089 152.574L152.378 148.042L158.786 145.088L166.043 140.131L175.039 133.515L181.507 137.258L173.017 143.591L165.032 148.953L157.876 152.332L148.557 156.297Z" fill="#DFDEE0"/>
<path d="M191.392 133.454L184.924 129.711L175.039 133.515L181.507 137.258L191.392 133.454Z" fill="#EEECEF"/>
<path d="M151.953 162.833L133.073 151.907V149.762L151.953 160.668V162.833Z" fill="#9E8D77"/>
<path d="M154.298 159.332L151.953 160.667L133.073 149.762L135.418 148.406L154.298 159.332Z" fill="#B5A897"/>
<path d="M151.953 162.832L154.298 161.477V159.332L151.953 160.667V162.832Z" fill="#806A4D"/>
<path d="M189.391 141.183L170.511 130.278V128.133L189.391 139.039V141.183Z" fill="#9E8D77"/>
<path d="M191.736 137.683L189.391 139.039L170.511 128.133L172.856 126.778L191.736 137.683Z" fill="#B5A897"/>
<path d="M189.391 141.183L191.736 139.828V137.683L189.391 139.039V141.183Z" fill="#806A4D"/>
<path d="M157.573 177.542L210.293 147.071V144.38L157.573 174.851V177.542Z" fill="#C7C7C7"/>
<path d="M167.438 167.223L200.408 148.164L210.293 144.38L157.573 174.851L167.438 167.223Z" fill="#C7C7C7"/>
<path d="M157.573 177.541L151.084 173.798V171.107L157.573 174.85V177.541Z" fill="#A39995"/>
<path d="M167.438 167.223L160.969 163.48L151.084 171.108L157.573 174.851L167.438 167.223Z" fill="#EEECEF"/>
<path d="M203.521 140.657L209.08 144.077L199.579 147.698L166.791 166.838L157.573 173.718L152.196 170.784L160.969 163.48L151.084 171.108L157.573 174.851L167.438 167.223L200.408 148.164L210.293 144.38L203.804 140.637L203.521 140.657Z" fill="#F5F4F7"/>
<path d="M167.438 167.223L160.969 163.48L171.279 158.948L177.667 156.014L184.944 151.057L193.919 144.441L200.408 148.164L191.898 154.497L183.933 159.878L176.777 163.257L167.438 167.223Z" fill="#DFDEE0"/>
<path d="M210.293 144.38L203.804 140.637L193.919 144.441L200.408 148.164L210.293 144.38Z" fill="#EEECEF"/>
<path d="M170.854 173.738L151.953 162.832V160.667L170.854 171.593V173.738Z" fill="#9E8D77"/>
<path d="M173.179 170.238L170.854 171.593L151.953 160.668L154.298 159.312L173.179 170.238Z" fill="#B5A897"/>
<path d="M170.854 173.738L173.179 172.382V170.237L170.854 171.593V173.738Z" fill="#806A4D"/>
<path d="M208.272 152.109L189.391 141.183V139.039L208.272 149.944V152.109Z" fill="#9E8D77"/>
<path d="M210.616 148.589L208.272 149.944L189.391 139.039L191.736 137.683L210.616 148.589Z" fill="#B5A897"/>
<path d="M208.272 152.109L210.617 150.753V148.588L208.272 149.944V152.109Z" fill="#806A4D"/>
<path style="mix-blend-mode:multiply" d="M42.7742 65.938L105.561 102.215L77.503 65.938L227.253 152.433L194.02 171.613H159.291L9.52112 85.1185L42.7742 65.938Z" fill="url(#paint0_linear_299_6063)"/>
<path d="M88.9445 67.5771L88.5807 66.9499L90.0968 66.1001C90.3135 65.9342 90.5514 65.7981 90.8043 65.6955C91.5286 65.4706 92.2947 65.4139 93.0442 65.5296C93.7938 65.6453 94.5072 65.9303 95.1302 66.3631C97.0721 67.6243 98.6899 69.3257 99.8524 71.3293C101.015 73.333 101.689 75.5825 101.821 77.8958C101.876 78.6488 101.759 79.4045 101.479 80.1056C101.199 80.8067 100.763 81.4348 100.204 81.9423C100.027 82.0695 99.8374 82.178 99.6381 82.266L98.1018 83.1765L97.7581 82.5493C96.8422 82.44 95.9601 82.1365 95.1706 81.659C93.2347 80.3932 91.6226 78.6903 90.464 76.6873C89.3054 74.6843 88.6326 72.4371 88.4998 70.1264C88.4694 69.2549 88.6208 68.3867 88.9445 67.5771Z" fill="#1D1D1D"/>
<path d="M61.9377 51.9373L61.5536 51.3101L63.0697 50.4603C63.294 50.306 63.5306 50.1707 63.7772 50.0556C64.5027 49.8306 65.2702 49.7756 66.0203 49.8949C66.7704 50.0142 67.4831 50.3045 68.1032 50.7435C70.0425 52.0058 71.6571 53.7078 72.8162 55.7116C73.9752 57.7154 74.646 59.9644 74.774 62.2762C74.8349 63.0298 74.7206 63.7874 74.4401 64.4894C74.1595 65.1915 73.7203 65.819 73.1568 66.3227C72.9756 66.4491 72.7865 66.564 72.5908 66.6666L71.0545 67.5569L70.7513 66.9701C69.8404 66.8668 68.9636 66.5628 68.184 66.0799C66.2403 64.8346 64.6165 63.1493 63.4436 61.16C62.2708 59.1707 61.5818 56.9332 61.4323 54.6282C61.4021 53.705 61.5746 52.7864 61.9377 51.9373Z" fill="#1D1D1D"/>
<path d="M59.5928 55.6194C59.7224 57.9308 60.3939 60.1792 61.5527 62.1827C62.7116 64.1863 64.3254 65.8886 66.2636 67.152C69.9629 69.2765 72.9547 67.5769 72.9547 63.3281C72.8228 61.0149 72.1482 58.7653 70.9858 56.7616C69.8233 54.758 68.2055 53.0566 66.2636 51.7955C62.6654 49.671 59.5928 51.3706 59.5928 55.6194Z" fill="#37302C"/>
<path d="M86.64 71.2596C86.7719 73.5728 87.4464 75.8223 88.6089 77.826C89.7714 79.8296 91.3892 81.531 93.3311 82.7922C97.0101 84.8154 100.002 83.217 100.002 78.9682C99.8723 76.6568 99.2008 74.4084 98.0419 72.4049C96.883 70.4014 95.2692 68.699 93.3311 67.4356C89.6318 65.3112 86.64 67.0107 86.64 71.2596Z" fill="#37302C"/>
<path d="M88.2572 72.1902C88.3614 73.9427 88.8747 75.6463 89.7559 77.1642C90.6371 78.6822 91.8616 79.9722 93.3311 80.9307C96.1207 82.5291 98.3847 81.2544 98.3847 78.0374C98.2875 76.2856 97.7793 74.5814 96.9013 73.0628C96.0233 71.5443 94.8002 70.2541 93.3311 69.2969C90.5415 67.6783 88.2572 68.9732 88.2572 72.1902Z" fill="#2D2622"/>
<path d="M90.6223 68.6494C90.2464 69.0347 89.9565 69.4954 89.7718 70.0011C89.5872 70.5069 89.5119 71.0461 89.5509 71.5832C89.6481 73.335 90.1563 75.0392 91.0344 76.5578C91.9124 78.0763 93.1355 79.3665 94.6046 80.3237C95.4033 80.8529 96.3605 81.0888 97.3133 80.9913C96.7338 81.4376 96.0231 81.6796 95.2919 81.6796C94.5607 81.6796 93.85 81.4376 93.2704 80.9913C91.8009 80.0328 90.5764 78.7428 89.6952 77.2249C88.8141 75.7069 88.3008 74.0033 88.1965 72.2508C88.2572 70.1264 89.2073 68.791 90.6223 68.6494Z" fill="#453C37"/>
<path d="M93.1895 77.8149L90.8446 73.91L92.1586 73.1614C92.3406 73.0884 92.5383 73.0631 92.7328 73.0878C92.9274 73.1126 93.1124 73.1867 93.2704 73.3031C93.739 73.6049 94.1298 74.0134 94.4108 74.4951C94.6918 74.9767 94.8552 75.5181 94.8875 76.0749C94.9095 76.2708 94.88 76.469 94.802 76.6499C94.724 76.8309 94.6002 76.9884 94.4428 77.1068L93.1895 77.8149Z" fill="#1D1D1D"/>
<path d="M71.3375 62.3977C71.3375 65.6147 69.0735 66.9096 66.2636 65.291C64.8077 64.3438 63.5928 63.0696 62.7155 61.5698C61.8381 60.07 61.3226 58.3859 61.21 56.6516C61.21 53.4347 63.474 52.1398 66.2636 53.7584C67.7255 54.701 68.946 55.9736 69.8272 57.474C70.7084 58.9745 71.2257 60.6609 71.3375 62.3977Z" fill="#2D2622"/>
<path d="M63.5751 53.0098C63.1907 53.394 62.8941 53.857 62.7057 54.367C62.5172 54.8769 62.4414 55.4217 62.4835 55.9637C62.5767 57.7243 63.0851 59.4378 63.9669 60.964C64.8488 62.4902 66.0792 63.7858 67.5574 64.7447C68.3618 65.2592 69.3161 65.4873 70.2661 65.3921C69.6852 65.8352 68.975 66.0751 68.2447 66.0751C67.5143 66.0751 66.8041 65.8352 66.2232 65.3921C64.7616 64.4305 63.5464 63.1383 62.6755 61.6201C61.8047 60.1018 61.3027 58.3999 61.21 56.6516C61.21 54.4867 62.16 53.2121 63.5751 53.0098Z" fill="#453C37"/>
<path d="M66.1222 62.195L63.7975 58.2698L65.1114 57.5212C65.2914 57.4434 65.4885 57.4136 65.6834 57.4349C65.8783 57.4562 66.0643 57.5278 66.2232 57.6426C66.6969 57.944 67.0911 58.355 67.3725 58.841C67.654 59.327 67.8145 59.8736 67.8404 60.4347C67.8574 60.6252 67.8275 60.8169 67.7536 60.9933C67.6796 61.1696 67.5637 61.3251 67.4159 61.4464L66.1222 62.195Z" fill="#1D1D1D"/>
<path d="M63.2921 59.3222C63.323 59.8822 63.4855 60.4269 63.7665 60.9121C64.0475 61.3973 64.4391 61.8092 64.9093 62.1143C65.7987 62.6403 66.5265 62.2154 66.5265 61.2038C66.4956 60.6438 66.3331 60.0991 66.052 59.6139C65.771 59.1287 65.3795 58.7168 64.9093 58.4117C64.0198 57.8857 63.2921 58.3105 63.2921 59.3222Z" fill="#403935"/>
<path d="M62.1803 51.0674L60.8259 51.8565L62.1803 56.2267L64.0198 57.299V55.2758L67.0318 57.0158L71.5195 65.1088L88.0753 74.6789L92.5629 71.8463L95.5749 73.5863V75.6096L97.4144 76.6819V71.4417L95.5749 70.3693L64.0198 52.1599L62.1803 51.0674ZM75.1985 60.6981L84.3962 65.9991V70.8145L75.1985 65.4528V60.6981Z" fill="#1D1D1D"/>
<path d="M64.0198 57.299L62.6654 58.0881V53.2524L64.0198 54.0415V57.299Z" fill="#37302C"/>
<path d="M90.3595 74.9619C90.3871 75.5227 90.5483 76.0687 90.8296 76.5544C91.1109 77.0401 91.5042 77.4514 91.9767 77.754C92.8661 78.2599 93.5938 77.754 93.5938 76.8233C93.5583 76.2645 93.3938 75.7215 93.1132 75.237C92.8326 74.7525 92.4435 74.3398 91.9767 74.0312C91.067 73.5254 90.3595 73.9301 90.3595 74.9619Z" fill="#403935"/>
<path d="M60.8259 51.8564V57.0158L62.6655 58.0881V56.0648L65.6774 57.8048L70.1651 65.8979L86.7209 75.4679L91.2085 72.6151L94.2205 74.3552V76.3784L96.0601 77.4507V72.2307L94.2205 71.1584L62.6655 52.9288L60.8259 51.8564ZM73.8442 61.386L83.0418 66.7679V71.6035L73.8442 66.2823V61.386Z" fill="#403935"/>
<path d="M97.4144 71.4414L96.0601 72.2305V77.3696L97.4144 76.6007V71.4414Z" fill="#37302C"/>
<path d="M75.1985 65.4525L73.8441 66.2213V61.3857L75.1985 62.1748V65.4525Z" fill="#37302C"/>
<path d="M186.925 124.168L186.541 123.541L188.077 122.691C188.291 122.521 188.53 122.384 188.785 122.286C189.509 122.063 190.275 122.007 191.024 122.123C191.774 122.238 192.487 122.522 193.111 122.954C195.055 124.217 196.675 125.922 197.837 127.929C199 129.936 199.673 132.19 199.802 134.507C199.86 135.262 199.743 136.021 199.459 136.723C199.174 137.425 198.731 138.052 198.164 138.553C197.987 138.68 197.798 138.789 197.598 138.877L196.062 139.787L195.698 139.16C194.789 139.048 193.914 138.744 193.131 138.27C191.188 137.01 189.569 135.309 188.407 133.305C187.244 131.301 186.57 129.051 186.44 126.737C186.419 125.856 186.584 124.981 186.925 124.168Z" fill="#1D1D1D"/>
<path d="M159.857 108.548L159.494 107.901L161.01 107.051C161.23 106.896 161.467 106.767 161.717 106.667C162.443 106.448 163.21 106.396 163.959 106.515C164.708 106.634 165.42 106.921 166.043 107.355C167.982 108.617 169.597 110.319 170.756 112.323C171.915 114.326 172.586 116.575 172.714 118.887C172.775 119.641 172.661 120.398 172.38 121.101C172.099 121.803 171.66 122.43 171.097 122.934C170.913 123.068 170.717 123.183 170.511 123.278L168.994 124.168L168.631 123.561C167.721 123.44 166.846 123.13 166.063 122.651C164.118 121.393 162.498 119.692 161.335 117.688C160.172 115.684 159.499 113.432 159.372 111.118C159.361 110.238 159.525 109.364 159.857 108.548Z" fill="#1D1D1D"/>
<path d="M157.533 112.21C157.662 114.522 158.334 116.77 159.493 118.774C160.652 120.777 162.266 122.479 164.204 123.743C167.903 125.867 170.895 124.168 170.895 119.939C170.766 117.622 170.093 115.369 168.93 113.361C167.768 111.354 166.148 109.649 164.204 108.386C160.525 106.262 157.533 107.961 157.533 112.21Z" fill="#37302C"/>
<path d="M184.58 127.85C184.712 130.163 185.386 132.413 186.549 134.416C187.711 136.42 189.329 138.121 191.271 139.383C194.95 141.406 197.942 139.807 197.942 135.559C197.809 133.248 197.136 131.001 195.978 128.998C194.819 126.995 193.207 125.292 191.271 124.026C187.572 121.901 184.58 123.601 184.58 127.85Z" fill="#37302C"/>
<path d="M186.197 128.781C186.284 130.546 186.789 132.264 187.672 133.795C188.554 135.325 189.788 136.624 191.271 137.582C194.061 139.201 196.325 137.906 196.325 134.689C196.228 132.937 195.719 131.233 194.841 129.714C193.963 128.196 192.74 126.905 191.271 125.948C188.461 124.269 186.197 125.564 186.197 128.781Z" fill="#2D2622"/>
<path d="M188.562 125.24C188.185 125.629 187.894 126.093 187.709 126.602C187.525 127.111 187.45 127.654 187.491 128.194C187.588 129.943 188.096 131.645 188.974 133.16C189.853 134.675 191.076 135.962 192.544 136.914C193.343 137.444 194.3 137.68 195.253 137.582C194.674 138.028 193.963 138.27 193.232 138.27C192.501 138.27 191.79 138.028 191.21 137.582C189.735 136.63 188.506 135.341 187.625 133.822C186.743 132.303 186.233 130.596 186.136 128.842C186.197 126.717 187.147 125.443 188.562 125.24Z" fill="#453C37"/>
<path d="M191.109 134.406L188.785 130.501L190.099 129.752C190.284 129.679 190.485 129.654 190.683 129.679C190.88 129.703 191.069 129.777 191.231 129.894C191.698 130.2 192.087 130.612 192.364 131.098C192.642 131.583 192.801 132.127 192.828 132.686C192.845 132.876 192.815 133.068 192.741 133.244C192.667 133.421 192.551 133.576 192.403 133.697L191.109 134.406Z" fill="#1D1D1D"/>
<path d="M169.277 118.988C169.277 122.205 166.993 123.5 164.204 121.882C162.734 120.924 161.511 119.634 160.633 118.116C159.755 116.597 159.247 114.893 159.15 113.141C159.15 109.944 161.414 108.649 164.204 110.248C165.673 111.206 166.898 112.496 167.779 114.014C168.66 115.532 169.173 117.236 169.277 118.988Z" fill="#2D2622"/>
<path d="M161.495 109.6C161.119 109.989 160.828 110.453 160.644 110.963C160.459 111.472 160.384 112.014 160.424 112.554C160.504 114.326 161.007 116.053 161.889 117.591C162.772 119.129 164.009 120.433 165.497 121.396C166.295 121.909 167.242 122.137 168.186 122.043C167.606 122.489 166.896 122.731 166.164 122.731C165.433 122.731 164.723 122.489 164.143 122.043C162.674 121.086 161.451 119.796 160.573 118.277C159.695 116.759 159.187 115.054 159.089 113.303C159.15 111.077 160.08 109.823 161.495 109.6Z" fill="#453C37"/>
<path d="M164.062 118.786L161.717 114.861L163.031 114.112C163.211 114.034 163.408 114.004 163.603 114.026C163.798 114.047 163.984 114.119 164.143 114.233C164.612 114.54 165.003 114.952 165.284 115.437C165.565 115.922 165.728 116.466 165.76 117.026C165.777 117.216 165.747 117.408 165.673 117.584C165.599 117.76 165.483 117.916 165.336 118.037L164.062 118.786Z" fill="#1D1D1D"/>
<path d="M161.232 115.913C161.263 116.473 161.425 117.018 161.706 117.503C161.987 117.988 162.379 118.4 162.849 118.705C163.739 119.231 164.466 118.705 164.466 117.795C164.436 117.235 164.273 116.69 163.992 116.205C163.711 115.719 163.319 115.308 162.849 115.003C161.96 114.476 161.232 114.901 161.232 115.913Z" fill="#403935"/>
<path d="M160.12 107.658L158.746 108.447L160.12 112.817L161.96 113.889V111.866L164.972 113.606L169.459 121.699L185.975 131.269L190.483 128.437L193.495 130.177V132.2L195.334 133.272V128.032L193.495 126.96L161.94 108.75L160.12 107.658ZM173.138 117.208L182.336 122.529V127.344L173.138 122.043V117.208Z" fill="#1D1D1D"/>
<path d="M161.96 113.89L160.605 114.679V109.843L161.96 110.632V113.89Z" fill="#37302C"/>
<path d="M188.279 131.512C188.312 132.072 188.475 132.616 188.756 133.101C189.037 133.586 189.427 133.998 189.896 134.304C190.806 134.81 191.514 134.304 191.514 133.374C191.485 132.816 191.323 132.273 191.041 131.791C190.76 131.309 190.367 130.901 189.896 130.602C189.007 130.116 188.279 130.521 188.279 131.512Z" fill="#403935"/>
<path d="M158.746 108.447V113.606L160.605 114.678V112.655L163.617 114.415L168.105 122.508L184.641 132.079L189.128 129.226L192.14 130.966V132.989L194 134.061V128.821L192.14 127.749L160.605 109.539L158.746 108.447ZM171.824 117.997L181.022 123.298V128.133L171.824 122.832V117.997Z" fill="#403935"/>
<path d="M195.354 128.032L194 128.821V133.981L195.354 133.192V128.032Z" fill="#37302C"/>
<path d="M173.139 122.043L171.784 122.812V117.997L173.139 118.765V122.043Z" fill="#37302C"/>
<path d="M149.588 145.796L149.225 145.169L150.741 144.319C150.96 144.158 151.197 144.022 151.448 143.915C152.169 143.692 152.932 143.636 153.678 143.752C154.424 143.867 155.134 144.151 155.754 144.583C157.698 145.846 159.318 147.55 160.48 149.558C161.643 151.565 162.316 153.819 162.445 156.135C162.506 156.889 162.392 157.647 162.111 158.349C161.83 159.051 161.391 159.678 160.828 160.182C160.653 160.313 160.463 160.422 160.262 160.506L158.746 161.416L158.382 160.789C157.422 160.706 156.491 160.416 155.653 159.939C153.715 158.676 152.101 156.973 150.942 154.97C149.783 152.966 149.112 150.718 148.982 148.406C149.004 147.504 149.21 146.616 149.588 145.796Z" fill="#1D1D1D"/>
<path d="M122.44 130.157L122.076 129.489L123.592 128.639C123.807 128.476 124.046 128.346 124.3 128.255C125.026 128.034 125.792 127.982 126.542 128.101C127.291 128.22 128.004 128.508 128.626 128.943C130.571 130.2 132.191 131.901 133.354 133.905C134.517 135.909 135.19 138.161 135.317 140.475C135.375 141.23 135.258 141.989 134.974 142.691C134.69 143.393 134.247 144.02 133.679 144.522C133.503 144.655 133.313 144.771 133.113 144.866L131.577 145.756L131.213 145.149C130.303 145.028 129.429 144.718 128.646 144.238C126.703 142.98 125.086 141.279 123.927 139.274C122.767 137.27 122.098 135.019 121.975 132.706C121.955 131.833 122.113 130.966 122.44 130.157Z" fill="#1D1D1D"/>
<path d="M120.095 133.839C120.226 136.152 120.899 138.403 122.062 140.406C123.225 142.41 124.843 144.111 126.786 145.371C130.465 147.496 133.417 145.796 133.417 141.628C133.287 139.314 132.616 137.063 131.457 135.056C130.298 133.049 128.684 131.343 126.746 130.076C123.087 127.89 120.095 129.59 120.095 133.839Z" fill="#37302C"/>
<path d="M147.142 149.479C147.274 151.792 147.949 154.042 149.111 156.045C150.274 158.049 151.892 159.75 153.834 161.012C157.533 163.035 160.525 161.436 160.525 157.188C160.39 154.878 159.714 152.632 158.551 150.632C157.389 148.633 155.773 146.934 153.834 145.675C150.134 143.531 147.142 145.23 147.142 149.479Z" fill="#37302C"/>
<path d="M148.78 150.409C148.877 152.161 149.385 153.865 150.263 155.384C151.141 156.903 152.364 158.193 153.833 159.15C156.623 160.769 158.887 159.474 158.887 156.257C158.79 154.505 158.282 152.801 157.404 151.282C156.526 149.764 155.303 148.473 153.833 147.516C151.044 145.898 148.78 147.192 148.78 150.409Z" fill="#2D2622"/>
<path d="M151.125 146.869C150.747 147.257 150.457 147.721 150.272 148.23C150.087 148.74 150.013 149.282 150.053 149.823C150.151 151.572 150.659 153.273 151.537 154.788C152.415 156.304 153.638 157.59 155.107 158.543C155.906 159.071 156.863 159.306 157.816 159.211C157.236 159.657 156.526 159.899 155.794 159.899C155.063 159.899 154.352 159.657 153.773 159.211C152.304 158.253 151.081 156.963 150.203 155.445C149.325 153.926 148.816 152.222 148.719 150.47C148.78 148.346 149.71 147.071 151.125 146.869Z" fill="#453C37"/>
<path d="M153.631 156.034L151.307 152.129L152.621 151.381C152.803 151.308 153 151.282 153.195 151.307C153.389 151.332 153.574 151.406 153.732 151.522C154.203 151.827 154.594 152.239 154.875 152.724C155.156 153.21 155.319 153.754 155.35 154.314C155.368 154.507 155.337 154.701 155.259 154.878C155.181 155.055 155.059 155.209 154.905 155.326L153.631 156.034Z" fill="#1D1D1D"/>
<path d="M131.84 140.617C131.84 143.834 129.576 145.129 126.786 143.51C125.311 142.557 124.082 141.269 123.201 139.75C122.319 138.23 121.809 136.524 121.712 134.769C121.712 131.573 123.976 130.278 126.786 131.876C128.253 132.836 129.475 134.126 130.352 135.645C131.23 137.163 131.74 138.866 131.84 140.617Z" fill="#2D2622"/>
<path d="M124.077 131.229C123.701 131.618 123.411 132.082 123.226 132.591C123.042 133.1 122.967 133.643 123.006 134.183C123.103 135.935 123.612 137.639 124.49 139.158C125.368 140.676 126.591 141.966 128.06 142.923C128.864 143.438 129.819 143.666 130.769 143.571C130.189 144.017 129.478 144.259 128.747 144.259C128.016 144.259 127.305 144.017 126.726 143.571C125.251 142.618 124.022 141.33 123.14 139.811C122.258 138.291 121.748 136.585 121.652 134.83C121.712 132.706 122.662 131.512 124.077 131.229Z" fill="#453C37"/>
<path d="M126.625 140.414L124.3 136.489L125.614 135.741C125.797 135.663 125.998 135.633 126.196 135.655C126.394 135.676 126.583 135.747 126.746 135.862C127.216 136.167 127.608 136.579 127.889 137.064C128.17 137.549 128.332 138.094 128.363 138.654C128.378 138.846 128.345 139.039 128.267 139.216C128.19 139.392 128.07 139.547 127.918 139.666L126.625 140.414Z" fill="#1D1D1D"/>
<path d="M123.795 137.582C123.825 138.142 123.988 138.687 124.269 139.172C124.55 139.657 124.942 140.069 125.412 140.374C126.321 140.9 127.029 140.374 127.029 139.464C127.003 138.902 126.842 138.356 126.561 137.87C126.28 137.384 125.885 136.973 125.412 136.671C124.522 136.105 123.795 136.53 123.795 137.582Z" fill="#403935"/>
<path d="M122.683 129.287L121.328 130.076L122.683 134.446L124.542 135.518V133.535L127.534 135.275L132.042 143.369L148.578 152.939L153.065 150.106L156.077 151.846V153.869L157.937 154.942V149.722L156.077 148.649L124.542 130.44L122.683 129.287ZM135.701 138.836L144.899 144.158V148.973L135.701 143.652V138.836Z" fill="#1D1D1D"/>
<path d="M124.522 135.518L123.168 136.307V131.472L124.542 132.261L124.522 135.518Z" fill="#37302C"/>
<path d="M150.862 153.181C150.894 153.741 151.058 154.285 151.338 154.77C151.619 155.255 152.01 155.667 152.479 155.973C153.369 156.479 154.096 155.973 154.096 155.043C154.064 154.486 153.901 153.945 153.62 153.463C153.339 152.981 152.948 152.573 152.479 152.271C151.61 151.745 150.862 152.149 150.862 153.181Z" fill="#403935"/>
<path d="M121.288 130.076V135.235L123.127 136.307V134.284L126.139 136.044L130.647 144.137L147.223 153.768L151.711 150.915L154.723 152.655V154.679L156.563 155.751V150.45L154.723 149.378L123.168 131.168L121.288 130.076ZM134.347 139.605L143.524 144.926V149.722L134.326 144.4L134.347 139.605Z" fill="#403935"/>
<path d="M157.937 149.661L156.562 150.45V155.61L157.937 154.82V149.661Z" fill="#37302C"/>
<path d="M135.701 143.672L134.347 144.441V139.625L135.701 140.394V143.672Z" fill="#37302C"/>
<path d="M23.2468 65.2704V69.2966L25.1066 71.4818L60.6439 50.9456L62.5239 46.6159V42.5693L23.2468 65.2704Z" fill="#37302C"/>
<path d="M55.1254 42.5693L199.539 126.029V130.055L55.1254 46.6159V42.5693Z" fill="#111111"/>
<path d="M58.8246 40.4248L203.238 123.884L199.539 126.029L55.1254 42.5695L58.8246 40.4248Z" fill="#1D1D1D"/>
<path d="M26.9462 63.1463V67.1726L28.8059 69.3577L56.9649 53.0907L58.8247 48.7407V44.7144L26.9462 63.1463Z" fill="#37302C"/>
<path d="M163.961 142.317L167.66 144.441V147.476L197.679 130.116L203.238 123.885L199.539 121.76L163.961 142.317Z" fill="#1D1D1D"/>
<path d="M23.2468 61.0014L26.9461 63.1258L62.5239 42.5695L58.8246 40.4248L23.2468 61.0014Z" fill="#1D1D1D"/>
<path d="M56.5201 84.4917L60.2194 86.6364V90.6627L56.5201 88.5382V84.4917Z" fill="#111111"/>
<path d="M62.0792 92.8477L65.7785 94.9924L63.9188 92.8073L60.2195 90.6626L62.0792 92.8477Z" fill="#3B312C"/>
<path d="M40.49 55.3159L84.6186 80.8293L81.6268 82.5491L40.49 58.7757V55.3159Z" fill="#111111"/>
<path d="M43.2796 53.6973L91.1277 81.3351L88.3178 82.9537L40.49 55.3159L43.2796 53.6973Z" fill="#1D1D1D"/>
<path d="M115.668 114.416V118.442L117.528 120.627L145.687 104.36L147.547 100.01V95.9839L115.668 114.416Z" fill="#37302C"/>
<path d="M71.0747 88.6395V92.6658L72.9345 94.8509L101.093 78.5838L102.953 74.254V70.2075L71.0747 88.6395Z" fill="#37302C"/>
<path d="M111.969 112.271L115.668 114.415L147.547 95.9835L143.848 93.8389L111.969 112.271Z" fill="#1D1D1D"/>
<path d="M111.969 112.271L115.668 114.416V118.442L111.969 116.297V112.271Z" fill="#111111"/>
<path d="M113.829 118.482L117.528 120.627L115.668 118.442L111.969 116.297L113.829 118.482Z" fill="#3B312C"/>
<path d="M84.6185 80.8296L125.513 104.441L122.501 106.181L84.6185 84.2894V80.8296Z" fill="#111111"/>
<path d="M87.4284 79.2109L135.701 107.112L132.911 108.73L84.6185 80.8295L87.4284 79.2109Z" fill="#1D1D1D"/>
<path d="M51.5474 89.206L51.1835 88.5787L52.6996 87.729C52.9191 87.5673 53.1565 87.4315 53.4071 87.3243C54.1317 87.101 54.8974 87.045 55.6467 87.1607C56.396 87.2763 57.1094 87.5606 57.733 87.992C59.669 89.2578 61.2811 90.9607 62.4397 92.9637C63.5983 94.9667 64.2711 97.2139 64.4039 99.5246C64.4632 100.278 64.3482 101.035 64.0677 101.737C63.7873 102.439 63.3489 103.066 62.7867 103.571C62.6027 103.699 62.4063 103.807 62.2005 103.895L60.6844 104.805L60.3205 104.178C59.4117 104.065 58.5369 103.762 57.7533 103.288C55.8113 102.027 54.1936 100.325 53.0311 98.3217C51.8686 96.3181 51.1941 94.0685 51.0622 91.7553C51.0537 90.8817 51.2186 90.0152 51.5474 89.206Z" fill="#1D1D1D"/>
<path d="M24.5001 73.566L24.1362 72.9388L25.6523 72.089C25.869 71.9231 26.107 71.787 26.3598 71.6844C27.0811 71.4612 27.8436 71.4054 28.5897 71.5211C29.3357 71.6368 30.0456 71.9209 30.6656 72.352C32.6101 73.6152 34.2295 75.3198 35.3922 77.3272C36.5548 79.3346 37.2278 81.5882 37.3566 83.9049C37.4175 84.6586 37.3032 85.4161 37.0227 86.1182C36.7421 86.8202 36.3029 87.4477 35.7394 87.9514C35.5582 88.0778 35.3691 88.1927 35.1734 88.2954L33.6573 89.1856L33.2935 88.5584C32.3754 88.4587 31.4913 88.1545 30.706 87.6682C28.7678 86.4047 27.154 84.7024 25.9951 82.6989C24.8362 80.6954 24.1648 78.447 24.0352 76.1355C24.0101 75.256 24.1685 74.3809 24.5001 73.566Z" fill="#1D1D1D"/>
<path d="M22.2361 77.2483C22.368 79.5615 23.0425 81.8111 24.205 83.8148C25.3675 85.8184 26.9852 87.5198 28.9271 88.7809C32.6062 90.8042 35.598 89.2058 35.598 84.957C35.4652 82.6463 34.7924 80.3991 33.6338 78.3961C32.4752 76.3931 30.8631 74.6902 28.9271 73.4244C25.147 71.2999 22.2361 72.9995 22.2361 77.2483Z" fill="#37302C"/>
<path d="M49.2227 92.8678C49.3524 95.182 50.0237 97.4332 51.1824 99.44C52.3412 101.447 53.9549 103.153 55.8935 104.421C59.5928 106.444 62.5845 104.846 62.5845 100.597C62.4605 98.2761 61.7896 96.0178 60.6267 94.0064C59.4638 91.995 57.8419 90.2876 55.8935 89.0236C52.2144 87.0003 49.2227 88.6392 49.2227 92.8678Z" fill="#37302C"/>
<path d="M50.8398 93.8186C50.9402 95.5697 51.4498 97.2727 52.3275 98.7908C53.2052 100.309 54.4266 101.6 55.8935 102.559C58.7033 104.158 60.9674 102.883 60.9674 99.6659C60.8711 97.9115 60.3612 96.2049 59.4793 94.6857C58.5974 93.1665 57.3686 91.8779 55.8935 90.9254C53.1039 89.3068 50.8398 90.6016 50.8398 93.8186Z" fill="#2D2622"/>
<path d="M53.1847 90.2783C52.8088 90.6636 52.519 91.1243 52.3343 91.63C52.1496 92.1358 52.0743 92.675 52.1133 93.2121C52.2096 94.9664 52.7196 96.673 53.6015 98.1922C54.4833 99.7114 55.7121 101 57.1872 101.953C57.9769 102.485 58.929 102.722 59.8758 102.62C59.2962 103.067 58.5855 103.308 57.8543 103.308C57.1231 103.308 56.4124 103.067 55.8328 102.62C54.366 101.661 53.1446 100.37 52.2668 98.8519C51.3891 97.3338 50.8796 95.6308 50.7792 93.8797C50.8398 91.7553 51.7697 90.4806 53.1847 90.2783Z" fill="#453C37"/>
<path d="M55.7521 99.4436L53.4274 95.5387L54.7413 94.7698C54.9234 94.6968 55.121 94.6715 55.3156 94.6962C55.5101 94.721 55.6952 94.7951 55.8531 94.9115C56.3218 95.2133 56.7125 95.6218 56.9936 96.1034C57.2746 96.5851 57.4379 97.1265 57.4703 97.6833C57.4907 97.8771 57.4625 98.0729 57.3884 98.253C57.3143 98.4331 57.1966 98.592 57.0458 98.7152L55.7521 99.4436Z" fill="#1D1D1D"/>
<path d="M33.9 84.0262C33.9 87.2432 31.636 88.5381 28.8463 86.9195C27.3746 85.9634 26.1484 84.6739 25.267 83.1555C24.3855 81.637 23.8735 79.9322 23.7725 78.179C23.7725 74.962 26.0567 73.6671 28.8463 75.2857C30.3154 76.2429 31.5385 77.5331 32.4166 79.0516C33.2946 80.5702 33.8028 82.2744 33.9 84.0262Z" fill="#2D2622"/>
<path d="M26.1376 74.6382C25.7601 75.0265 25.4694 75.4907 25.2847 75.9999C25.1 76.5092 25.0255 77.0519 25.0662 77.5921C25.1666 79.3432 25.6761 81.0462 26.5538 82.5643C27.4316 84.0824 28.653 85.3731 30.1198 86.3326C30.9243 86.8472 31.8786 87.0753 32.8286 86.9801C32.2491 87.4263 31.5384 87.6683 30.8071 87.6683C30.0759 87.6683 29.3652 87.4263 28.7857 86.9801C27.3139 86.024 26.0877 84.7345 25.2063 83.2161C24.3248 81.6976 23.8129 79.9928 23.7118 78.2396C23.7724 76.1152 24.7225 74.8607 26.1376 74.6382Z" fill="#453C37"/>
<path d="M28.7048 83.8241L26.2791 79.899L27.593 79.1503C27.776 79.0827 27.9727 79.0603 28.1662 79.0849C28.3598 79.1096 28.5445 79.1806 28.7048 79.292C29.175 79.597 29.5665 80.0089 29.8476 80.4941C30.1286 80.9793 30.2911 81.5241 30.322 82.0841C30.3403 82.2767 30.3091 82.4708 30.2312 82.6478C30.1534 82.8249 30.0315 82.9791 29.8773 83.0957L28.7048 83.8241Z" fill="#1D1D1D"/>
<path d="M25.8748 80.9308C25.9056 81.4907 26.0681 82.0355 26.3492 82.5207C26.6302 83.0059 27.0217 83.4178 27.4919 83.7229C28.3814 84.2489 29.1091 83.7229 29.1091 82.8124C29.0783 82.2524 28.9157 81.7076 28.6347 81.2224C28.3537 80.7372 27.9621 80.3253 27.4919 80.0203C26.6025 79.5145 25.8748 79.9394 25.8748 80.9308Z" fill="#403935"/>
<path d="M24.7427 72.6958L23.3883 73.4849L24.7427 77.8551L26.6024 78.9275V76.884L29.6144 78.6442L34.1021 86.7373L50.6377 96.3073L55.1253 93.4747L58.1373 95.2147V97.238L59.997 98.3103V93.0701L58.1373 91.9977L26.6024 73.7884L24.7427 72.6958ZM37.7609 82.2456L46.9788 87.5466V92.3822L37.7609 87.0003V82.2456Z" fill="#1D1D1D"/>
<path d="M26.6024 78.9274L25.248 79.7165V74.8809L26.6024 75.6699V78.9274Z" fill="#37302C"/>
<path d="M52.922 96.5906C52.9544 97.1503 53.1176 97.6944 53.3985 98.1794C53.6794 98.6643 54.0701 99.0765 54.5392 99.3828C55.4286 99.8886 56.1563 99.4839 56.1563 98.4521C56.1208 97.8932 55.9563 97.3502 55.6757 96.8657C55.3951 96.3813 55.006 95.9685 54.5392 95.6599C53.6497 95.0934 52.922 95.5588 52.922 96.5906Z" fill="#403935"/>
<path d="M23.3883 73.4849V78.6442L25.2481 79.7165V77.6933L28.26 79.4333L32.7477 87.5263L49.2833 97.1166L53.7709 94.284L56.7829 96.024V98.0473L58.6427 99.1196V93.8591L56.7829 92.7868L25.2481 74.5774L23.3883 73.4849ZM36.3863 82.9537L45.584 88.2749V93.1105L36.3863 87.85V82.9537Z" fill="#403935"/>
<path d="M59.9971 93.0703L58.6427 93.8594V99.0187L59.9971 98.2296V93.0703Z" fill="#37302C"/>
<path d="M37.761 87.0814L36.4066 87.8503V83.0146L37.761 83.8037V87.0814Z" fill="#37302C"/>
<path d="M23.2469 61.0015L167.66 144.441L163.961 146.586L19.5476 63.1259L23.2469 61.0015Z" fill="#1D1D1D"/>
<path d="M19.5476 63.126L163.961 146.586V150.612L19.5476 67.1725V63.126Z" fill="#403935"/>
<path d="M129.212 106.585L177.505 134.486L174.513 136.226L129.212 110.045V106.585Z" fill="#111111"/>
<path d="M132.022 104.967L183.994 135.012L181.204 136.631L129.212 106.585L132.022 104.967Z" fill="#1D1D1D"/>
<path d="M67.3755 86.5149L71.0748 88.6394L102.953 70.2074L99.254 68.083L67.3755 86.5149Z" fill="#1D1D1D"/>
<path d="M114.597 107.658L121.167 106.161L124.866 108.285L111.726 109.762L109.099 111.28V108.184L114.597 107.658Z" fill="#FDD453"/>
<path d="M118.296 109.803L124.866 108.285V109.094L115.668 114.416L112.778 113.424V110.329L118.296 109.803Z" fill="#FCC10B"/>
<path d="M109.099 108.184L112.778 110.328L118.296 109.802L114.597 107.658L109.099 108.184Z" fill="#FDDA6F"/>
<path d="M109.099 108.184L112.778 110.329V113.424L109.099 111.28V108.184Z" fill="#FDD453"/>
<path d="M141.22 92.2611L134.65 98.3511V99.1604L141.22 99.646L147.547 92.8883L143.847 90.7437L141.22 92.2611Z" fill="#FDDA6F"/>
<path d="M144.919 94.4056L138.349 100.496V101.305L144.919 97.5012L147.547 95.9838V92.8882L144.919 94.4056Z" fill="#FCC10B"/>
<path d="M134.65 98.3511L138.349 100.496V101.305L134.65 99.1604V98.3511Z" fill="#FDD453"/>
<path d="M134.65 98.3508L138.349 100.495L144.919 94.4054L141.22 92.2607L134.65 98.3508Z" fill="#FDD55B"/>
<path d="M70.0034 81.8815L76.5732 80.3843L80.2724 82.5087L67.1329 84.0059L64.505 85.5234V82.4278L70.0034 81.8815Z" fill="#FDD453"/>
<path d="M73.7026 84.0262L80.2724 82.5088V83.3181L71.0747 88.6393L68.2042 87.6681V84.5725L73.7026 84.0262Z" fill="#FCC10B"/>
<path d="M64.505 82.4276L68.2043 84.5723L73.7027 84.026L70.0034 81.8813L64.505 82.4276Z" fill="#FDDA6F"/>
<path d="M64.505 82.4277L68.2043 84.5724V87.668L64.505 85.5233V82.4277Z" fill="#FDD453"/>
<path d="M96.626 66.5048L90.0563 72.5948V73.3839L96.626 73.8897L102.953 67.1117L99.2539 64.9873L96.626 66.5048Z" fill="#FDDA6F"/>
<path d="M100.325 68.6293L93.7556 74.7193V75.5286L100.325 71.7249L102.953 70.2074V67.1118L100.325 68.6293Z" fill="#FCC10B"/>
<path d="M90.0563 72.5947L93.7556 74.7191V75.5285L90.0563 73.3838V72.5947Z" fill="#FDD453"/>
<path d="M90.0563 72.5949L93.7556 74.7193L100.325 68.6293L96.626 66.5049L90.0563 72.5949Z" fill="#FDD55B"/>
<path d="M158.564 158.442L157.715 157.956V151.421L158.564 151.906V158.442Z" fill="#403935"/>
<path d="M159.655 157.815L158.564 158.442V151.907L159.655 152.554V157.815Z" fill="#2D2622"/>
<path d="M163.415 159.797V160.303L158.847 157.673V157.167L163.415 159.797Z" fill="#403935"/>
<path d="M163.415 156.419V156.925L158.847 154.294V153.789L163.415 156.419Z" fill="#403935"/>
<path d="M158.867 157.167L163.415 159.797V158.887L159.655 156.702L158.867 157.167Z" fill="#1D1D1D"/>
<path d="M158.867 153.789L163.415 156.419V155.508L159.655 153.323L158.867 153.789Z" fill="#1D1D1D"/>
<path d="M14.13 64.3197L161.859 149.681V108.063L14.13 22.7012V64.3197Z" fill="#FCC721"/>
<path d="M78.8574 80.3639L61.6143 70.4094V69.6001L78.8574 79.5748V80.3639Z" fill="#FCC006"/>
<path d="M78.8574 80.9104L61.6143 70.9357V70.4097L78.8574 80.3641V80.9104Z" fill="#FDD047"/>
<path d="M78.8574 71.7045L61.6143 61.75V60.9609L78.8574 70.9154V71.7045Z" fill="#FCC006"/>
<path d="M78.8574 72.2507L61.6143 62.2963V61.75L78.8574 71.7045V72.2507Z" fill="#FDD047"/>
<path d="M100.386 92.8072L83.1428 82.8325V82.0435L100.386 92.0181V92.8072Z" fill="#FCC006"/>
<path d="M100.386 93.3535L83.1428 83.3788V82.8325L100.386 92.8072V93.3535Z" fill="#FDD047"/>
<path d="M100.386 84.1476L83.1428 74.1931V73.3838L100.386 83.3585V84.1476Z" fill="#FCC006"/>
<path d="M100.386 84.6941L83.1428 74.7396V74.1934L100.386 84.1478V84.6941Z" fill="#FDD047"/>
<path d="M21.286 28.6294V65.8777L22.6404 65.1089V29.4185L21.286 28.6294Z" fill="#344236"/>
<path d="M156.825 105.149V150.915L159.655 152.554L161.01 152.392L162.344 153.161V154.112L163.961 155.043V109.297L162.344 108.346L159.655 106.808V106.788L156.825 105.149Z" fill="#FDD453"/>
<path d="M159.655 106.788V152.554L161.01 152.393L162.344 153.161V108.346L162.485 107.496L161.01 106.646L159.655 106.788Z" fill="#FCC721"/>
<path d="M159.655 106.788V152.554L161.01 152.392V106.646L159.655 106.788Z" fill="#344236"/>
<path d="M21.286 65.8777L156.825 144.219L158.18 143.429L22.6404 65.1089L21.286 65.8777Z" fill="#FDDE7E"/>
<path d="M14.13 22.7012L159.655 106.788L161.01 106.646L162.061 107.253L162.485 107.496L162.344 108.346L162.607 108.508L163.961 109.297L165.315 108.508L162.607 106.95L15.4844 21.9121L14.13 22.7012Z" fill="#FDDE7E"/>
<path d="M15.4844 21.9121L165.315 108.508L166.67 107.719L16.8388 21.123L15.4844 21.9121Z" fill="#FDDE7E"/>
<path d="M50.6984 1.57814L200.529 88.1536L201.884 87.3848L52.0527 0.789062L50.6984 1.57814Z" fill="#FDDE7E"/>
<path d="M52.0527 0.789073L199.175 85.8067L200.529 86.5957L201.884 87.3848L203.238 86.5957L201.884 85.8067L200.529 85.9483L199.721 85.4829L199.054 85.0985L199.195 84.2487L53.4071 0L52.0527 0.789073Z" fill="#FDDE7E"/>
<path d="M162.344 145.068L159.655 143.53V149.054L162.344 150.612V145.068Z" fill="#FDD453"/>
<path d="M162.344 132.099L159.655 130.541V133.94L162.344 135.478V132.099Z" fill="#FDD453"/>
<path d="M162.344 116.985L159.655 115.427V118.826L162.344 120.364V116.985Z" fill="#FDD453"/>
<path d="M156.825 150.916L152.701 144.401V141.831L156.825 144.219V150.916Z" fill="#FDD453"/>
<path d="M139.582 140.941L138.005 140.03V94.2842L139.582 95.1947V140.941Z" fill="#FDD453"/>
<path d="M156.825 105.149V106.97L138.005 96.0849V94.2842L156.825 105.149Z" fill="#FDD453"/>
<path d="M156.825 146.768L139.582 136.813V134.244L156.825 144.218V146.768Z" fill="#FDD453"/>
<path d="M120.762 130.076L119.186 129.165V83.4194L120.762 84.3299V130.076Z" fill="#FDD453"/>
<path d="M138.005 94.2844V96.0851L119.186 85.2201V83.4194L138.005 94.2844Z" fill="#FDD453"/>
<path d="M138.005 135.903L120.762 125.948V123.379L138.005 133.333V135.903Z" fill="#FDD453"/>
<path d="M101.943 119.211L100.386 118.3V72.5342L101.943 73.4447V119.211Z" fill="#FDD453"/>
<path d="M119.186 83.4193V85.22L100.386 74.3551V72.5342L119.186 83.4193Z" fill="#FDD453"/>
<path d="M119.186 125.038L101.943 115.063V112.514L119.186 122.468V125.038Z" fill="#FDD453"/>
<path d="M80.4341 106.768L78.8573 105.857V60.1113L80.4341 61.0218V106.768Z" fill="#FDD453"/>
<path d="M100.386 72.5342V74.3551L78.8573 61.912V60.1113L100.386 72.5342Z" fill="#FDD453"/>
<path d="M100.386 114.153L80.4341 102.64V100.071L100.386 111.603V114.153Z" fill="#FDD453"/>
<path d="M58.9055 94.3245L57.3287 93.414V47.668L58.9055 48.5784V94.3245Z" fill="#FDD453"/>
<path d="M78.8573 60.111V61.9118L57.3287 49.4687V47.668L78.8573 60.111Z" fill="#FDD453"/>
<path d="M78.8574 101.73L58.9055 90.197V87.6274L78.8574 99.16V101.73Z" fill="#FDD453"/>
<path d="M40.0857 83.4597L38.5089 82.5492V36.8032L40.0857 37.7137V83.4597Z" fill="#FDD453"/>
<path d="M57.3288 47.6681V49.4689L38.5089 38.6039V36.8032L57.3288 47.6681Z" fill="#FDD453"/>
<path d="M57.3288 89.2867L40.0857 79.312V76.7627L57.3288 86.7172V89.2867Z" fill="#FDD453"/>
<path d="M38.5089 36.8031V38.6038L19.7092 27.7389V25.918L38.5089 36.8031Z" fill="#FDD453"/>
<path d="M38.5089 78.4217L21.286 68.447V65.8774L38.5089 75.8521V78.4217Z" fill="#FDD453"/>
<path d="M14.13 68.4472L21.286 72.5949V26.8286L14.13 22.7012V68.4472Z" fill="#FDD453"/>
<path d="M21.286 72.5947L25.3896 70.8344V68.2649L21.286 65.8774V72.5947Z" fill="#FDD453"/>
<path d="M40.0857 39.5142V83.4595L41.4401 82.6704V40.283L40.0857 39.5142Z" fill="#344236"/>
<path d="M41.4401 40.2832V77.5517L42.7944 76.7627V41.0723L41.4401 40.2832Z" fill="#FFB217"/>
<path d="M60.2599 51.1685V88.4168L61.6143 87.6277V51.9575L60.2599 51.1685Z" fill="#344236"/>
<path d="M81.7885 63.5913V100.86L83.1428 100.071V64.3804L81.7885 63.5913Z" fill="#344236"/>
<path d="M103.297 76.0342V113.282L104.651 112.514V76.8233L103.297 76.0342Z" fill="#344236"/>
<path d="M122.117 86.9194V124.168L123.471 123.379V87.6883L122.117 86.9194Z" fill="#344236"/>
<path d="M140.937 97.7842V135.032L142.291 134.243V98.5733L140.937 97.7842Z" fill="#344236"/>
<path d="M58.9055 50.3794V94.3247L60.2599 93.5356V51.1685L58.9055 50.3794Z" fill="#FFB217"/>
<path d="M80.4341 62.8223V106.768L81.7885 105.979V63.5911L80.4341 62.8223Z" fill="#FFB217"/>
<path d="M101.943 75.2656V119.211L103.297 118.422V76.0345L101.943 75.2656Z" fill="#FFB217"/>
<path d="M120.762 86.1304V130.076L122.117 129.287V86.9194L120.762 86.1304Z" fill="#FFB217"/>
<path d="M139.582 96.9951V140.94L140.937 140.172V97.7842L139.582 96.9951Z" fill="#FFB217"/>
<path d="M163.961 161.558L163.112 161.072V154.557L163.961 155.043V161.558Z" fill="#403935"/>
<path d="M97.1111 97.9666L85.7505 91.4112V90.0151L97.1111 96.5907V97.9666Z" fill="#FDD453"/>
<path d="M97.1112 96.5909L85.7505 90.0153L84.7196 87.8706L98.6071 95.903L97.1112 96.5909Z" fill="#FDD047"/>
<path d="M85.7505 91.4112L97.1112 97.9665L98.6071 99.3019L84.7196 91.2695L85.7505 91.4112Z" fill="#FCC006"/>
<path d="M98.6071 95.9028V99.3019L97.1112 97.9666V96.5907L98.6071 95.9028Z" fill="#FCC006"/>
<path d="M84.7196 87.8706V91.2697L85.7505 91.4113V90.0153L84.7196 87.8706Z" fill="#FCC721"/>
<path d="M97.1111 105.736L85.7505 99.16V97.7842L97.1111 104.34V105.736Z" fill="#FDD453"/>
<path d="M97.1112 104.34L85.7505 97.7843L84.7196 95.6396L98.6071 103.652L97.1112 104.34Z" fill="#FDD047"/>
<path d="M85.7505 99.1602L97.1112 105.736L98.6071 107.051L84.7196 99.0186L85.7505 99.1602Z" fill="#FCC006"/>
<path d="M98.6071 103.652V107.051L97.1112 105.736V104.34L98.6071 103.652Z" fill="#FCC006"/>
<path d="M84.7196 95.6396V99.0185L85.7505 99.1601V97.7843L84.7196 95.6396Z" fill="#FCC721"/>
<path d="M75.5826 85.5235L64.2219 78.9681V77.5923L75.5826 84.1477V85.5235Z" fill="#FDD453"/>
<path d="M75.5826 84.1475L64.222 77.5921L63.191 75.4272L77.0785 83.4596L75.5826 84.1475Z" fill="#FDD047"/>
<path d="M64.222 78.9678L75.5826 85.5232L77.0785 86.8585L63.191 78.8262L64.222 78.9678Z" fill="#FCC006"/>
<path d="M77.0784 83.4595V86.8586L75.5825 85.5232V84.1474L77.0784 83.4595Z" fill="#FCC006"/>
<path d="M63.191 75.4272V78.8263L64.222 78.968V77.5921L63.191 75.4272Z" fill="#FCC721"/>
<path d="M75.5826 93.2927L64.2219 86.7171V85.3413L75.5826 91.8967V93.2927Z" fill="#FDD453"/>
<path d="M75.5826 91.8968L64.222 85.3414L63.191 83.1968L77.0785 91.2291L75.5826 91.8968Z" fill="#FDD047"/>
<path d="M64.222 86.7171L75.5826 93.2927L77.0785 94.6078L63.191 86.5957L64.222 86.7171Z" fill="#FCC006"/>
<path d="M77.0784 91.229V94.6078L75.5825 93.2927V91.8967L77.0784 91.229Z" fill="#FCC006"/>
<path d="M63.191 83.1968V86.5959L64.222 86.7173V85.3414L63.191 83.1968Z" fill="#FCC721"/>
<path d="M199.195 84.2485V85.1792L199.054 85.0983L199.195 84.2485Z" fill="#FCC006"/>
<path d="M165.113 110.005V146.12L202.086 124.754V88.6392L165.113 110.005Z" fill="#111111"/>
<path d="M163.961 146.585V150.227L165.841 152.028L201.378 131.492L203.238 127.546V123.884L163.961 146.585Z" fill="#111111"/>
<path d="M186.359 133.212L178.839 137.562V142.721L186.359 138.371V133.212Z" fill="#1B130F"/>
<path d="M202.086 88.6392V133.009L200.731 132.22V89.4282L202.086 88.6392Z" fill="#FCC721"/>
<path d="M191.797 114.213V129.529L190.442 128.74V115.002L191.797 114.213Z" fill="#FCC721"/>
<path d="M174.068 124.471V139.787L172.714 138.998V125.24L174.068 124.471Z" fill="#FCC721"/>
<path d="M165.113 118.098L202.086 96.7322V95.1743L165.113 116.54V118.098Z" fill="#FCC006"/>
<path d="M165.113 129.631L202.086 108.265V106.707L165.113 128.073V129.631Z" fill="#FCC006"/>
<path d="M191.797 114.213V129.529L193.151 128.76V113.444L191.797 114.213Z" fill="#FCC006"/>
<path d="M174.068 124.471V139.787L175.423 138.998V123.682L174.068 124.471Z" fill="#FCC006"/>
<path d="M163.961 109.297V155.043L165.113 154.375V110.005L202.086 88.6392V133.009L203.238 132.342V86.5957L163.961 109.297Z" fill="#FCC006"/>
<path d="M202.086 95.1746L165.113 116.54V114.982L200.732 94.4058L202.086 95.1746Z" fill="#FDD453"/>
<path d="M202.086 106.707L165.113 128.073V126.515L200.732 105.918L202.086 106.707Z" fill="#FDD453"/>
<path d="M203.238 86.5957L163.961 109.297L162.607 108.508L201.884 85.8066L203.238 86.5957Z" fill="#FDDE7E"/>
<path d="M162.485 107.496L162.344 108.346L162.607 108.508L163.961 107.719L200.529 86.5957L201.884 85.8066L200.529 85.9483L199.721 85.4829L199.175 85.8066L162.607 106.95L162.061 107.253L162.485 107.496Z" fill="#FDDE7E"/>
<path d="M56.1158 1.57814L16.8388 24.2589L15.4844 23.4901L54.7614 0.789062L56.1158 1.57814Z" fill="#FDDE7E"/>
<path d="M54.7615 0.789073L15.4844 23.4901L14.13 22.701L53.4071 0L54.7615 0.789073Z" fill="#FDDE7E"/>
<path d="M19.5476 22.7012L53.4071 42.2662L163.961 106.161L169.217 103.126L197.821 86.5959L53.4071 3.13623L19.5476 22.7012Z" fill="#FCC721"/>
<path d="M53.4071 42.2661L163.961 106.161L169.217 103.126L53.4071 36.1963V42.2661Z" fill="#FCC006"/>
<path d="M19.5476 22.7012L53.4072 42.2662V36.1964V3.13623L19.5476 22.7012Z" fill="#344236"/>
<path d="M160.383 115.346L162.344 116.479V116.985L159.655 115.427L160.383 115.346Z" fill="#FDDE7E"/>
<path d="M160.383 130.46L162.344 131.593V132.099L159.655 130.541L160.383 130.46Z" fill="#FDDE7E"/>
<path d="M160.383 143.45L162.344 144.562V145.068L159.655 143.531L160.383 143.45Z" fill="#FDDE7E"/>
<path d="M57.3288 78.1993L42.7944 69.8027V69.0137L57.3288 77.4102V78.1993Z" fill="#FCC006"/>
<path d="M57.3288 78.7456L42.7944 70.349V69.8027L57.3288 78.1993V78.7456Z" fill="#FDD047"/>
<path d="M57.3288 67.921L42.7944 59.5244V58.7354L57.3288 67.1319V67.921Z" fill="#FCC006"/>
<path d="M57.3288 68.4673L42.7944 60.0707V59.5244L57.3288 67.921V68.4673Z" fill="#FDD047"/>
<path d="M57.3288 59.2815L42.7944 50.885V50.0757L57.3288 58.4722V59.2815Z" fill="#FCC006"/>
<path d="M57.3288 59.8281L42.7944 51.4113V50.8853L57.3288 59.2818V59.8281Z" fill="#FDD047"/>
<path d="M119.186 113.95L104.651 105.554V104.765L119.186 113.141V113.95Z" fill="#FCC006"/>
<path d="M119.186 114.497L104.651 106.1V105.554L119.186 113.95V114.497Z" fill="#FDD047"/>
<path d="M119.186 103.672L104.651 95.2754V94.4863L119.186 102.883V103.672Z" fill="#FCC006"/>
<path d="M119.186 104.218L104.651 95.8217V95.2754L119.186 103.672V104.218Z" fill="#FDD047"/>
<path d="M119.186 95.0325L104.651 86.6157V85.8267L119.186 94.2232V95.0325Z" fill="#FCC006"/>
<path d="M119.186 95.559L104.651 87.1625V86.6162L119.186 95.033V95.559Z" fill="#FDD047"/>
<path d="M138.005 124.815L123.471 116.418V115.629L138.005 124.026V124.815Z" fill="#FCC006"/>
<path d="M138.005 125.361L123.471 116.965V116.418L138.005 124.815V125.361Z" fill="#FDD047"/>
<path d="M138.005 114.537L123.471 106.141V105.352L138.005 113.748V114.537Z" fill="#FCC006"/>
<path d="M138.005 115.083L123.471 106.687V106.141L138.005 114.537V115.083Z" fill="#FDD047"/>
<path d="M138.005 105.898L123.471 97.501V96.7119L138.005 105.108V105.898Z" fill="#FCC006"/>
<path d="M138.005 106.444L123.471 98.0473V97.501L138.005 105.898V106.444Z" fill="#FDD047"/>
<path d="M156.825 135.68L142.291 127.284V126.495L156.825 134.891V135.68Z" fill="#FCC006"/>
<path d="M156.825 136.227L142.291 127.83V127.284L156.825 135.68V136.227Z" fill="#FDD047"/>
<path d="M156.825 125.422L142.291 117.025V116.236L156.825 124.613V125.422Z" fill="#FCC006"/>
<path d="M156.825 125.968L142.291 117.572V117.025L156.825 125.422V125.968Z" fill="#FDD047"/>
<path d="M156.825 116.763L142.291 108.366V107.577L156.825 115.974V116.763Z" fill="#FCC006"/>
<path d="M156.825 117.309L142.291 108.912V108.366L156.825 116.763V117.309Z" fill="#FDD047"/>
<path d="M38.5089 67.3341L22.6404 58.1484V57.3594L38.5089 66.5248V67.3341Z" fill="#FCC006"/>
<path d="M38.5089 67.8803L22.6404 58.6947V58.1484L38.5089 67.3341V67.8803Z" fill="#FDD047"/>
<path d="M38.5089 57.0562L22.6404 47.8706V47.0815L38.5089 56.2672V57.0562Z" fill="#FCC006"/>
<path d="M38.5089 57.6025L22.6404 48.4169V47.8706L38.5089 57.0562V57.6025Z" fill="#FDD047"/>
<path d="M38.5089 48.3966L22.6404 39.2312V38.4219L38.5089 47.6075V48.3966Z" fill="#FCC006"/>
<path d="M38.5089 48.9426L22.6404 39.7772V39.231L38.5089 48.3963V48.9426Z" fill="#FDD047"/>
<path d="M165.073 160.93L163.961 161.558V155.043L165.073 154.416V160.93Z" fill="#2D2622"/>
<path d="M19.5476 22.7012L53.4072 36.1963V42.2661L19.5476 22.7012Z" fill="#223124"/>
<path d="M202.268 86.5959L164.204 108.386L15.8281 22.4584L53.4072 0.121582L202.268 86.5959Z" fill="#FCC006"/>
<defs>
<linearGradient id="paint0_linear_299_6063" x1="160.161" y1="191.219" x2="76.502" y2="46.4172" gradientUnits="userSpaceOnUse">
<stop offset="0.11" stop-color="#AEACBA"/>
<stop offset="0.99" stop-color="#7B738C"/>
</linearGradient>
</defs>
</svg>
