<svg width="196" height="175" viewBox="0 0 196 175" fill="none" xmlns="http://www.w3.org/2000/svg">
<path d="M59.8678 34.6919V102.542L99.2835 125.668L100.705 124.848L118.492 135.112V136.752L125.159 140.603V72.7527L59.8678 34.6919Z" fill="#F4B400"/>
<path d="M70.564 41.1938L67.5557 39.4512V100.981L70.564 102.719V41.1938Z" fill="#5D5D5D"/>
<path d="M65.1981 37.704L62.1853 35.9614V97.4916L65.1981 99.2297V37.704Z" fill="#5D5D5D"/>
<path d="M75.9122 44.2865L72.8994 42.5439V104.079L75.9122 105.812V44.2865Z" fill="#5D5D5D"/>
<path d="M81.2558 47.3798L78.243 45.6372V107.172L81.2558 108.906V47.3798Z" fill="#5D5D5D"/>
<path d="M86.5995 50.4731L83.5867 48.7305V110.265L86.5995 111.999V50.4731Z" fill="#F4B400"/>
<path d="M91.9431 53.5658L88.9348 51.8232V113.358L91.9431 115.092V53.5658Z" fill="#F4B400"/>
<path d="M97.2912 56.6591L94.2784 54.9165V116.451L97.2912 118.189V56.6591Z" fill="#F4B400"/>
<path d="M102.635 59.7524L99.6222 58.0098V119.544L102.635 121.283V59.7524Z" fill="#F4B400"/>
<path d="M107.979 62.8491L104.966 61.1021V122.637L107.979 124.375V62.8491Z" fill="#F4B400"/>
<path d="M113.327 65.9418L110.309 64.1992V127.673L113.327 129.411V65.9418Z" fill="#F4B400"/>
<path d="M118.67 69.0356L115.658 67.293V128.823L118.67 130.561V69.0356Z" fill="#F4B400"/>
<path d="M124.014 72.1283L121.001 70.3857V131.92L124.014 131.662V72.1283Z" fill="#F4B400"/>
<path d="M69.7618 40.748L66.749 39.0054V100.469L69.7618 102.202V40.748Z" fill="#232323"/>
<path d="M64.3914 37.2587L61.3787 35.5161V96.9794L64.3914 98.7131V37.2587Z" fill="#232323"/>
<path d="M75.1054 43.8412L72.0927 42.0986V103.562L75.1054 105.296V43.8412Z" fill="#232323"/>
<path d="M80.4491 46.934L77.4363 45.1914V106.655L80.4491 108.393V46.934Z" fill="#232323"/>
<path d="M85.7972 50.0268L82.7844 48.2842V109.747L85.7972 111.486V50.0268Z" fill="#F4B400"/>
<path d="M91.141 53.1196L88.1282 51.377V112.84L91.141 114.578V53.1196Z" fill="#F4B400"/>
<path d="M96.4846 56.2133L93.4718 54.4707V115.934L96.4846 117.672V56.2133Z" fill="#F4B400"/>
<path d="M101.828 59.3061L98.8154 57.5635V119.027L101.828 120.765V59.3061Z" fill="#F4B400"/>
<path d="M107.176 62.4037L104.164 60.6611V124.068L107.176 125.801V62.4037Z" fill="#F4B400"/>
<path d="M112.52 65.4965L109.507 63.7539V125.217L112.52 126.951V65.4965Z" fill="#232323"/>
<path d="M117.864 68.5898L114.851 66.8472V128.31L117.864 130.044V68.5898Z" fill="#F4B400"/>
<path d="M123.207 71.683L120.195 69.9404V131.404L123.207 133.137V71.683Z" fill="#F4B400"/>
<path d="M59.8678 92.2729L57.7909 92.8523L102.14 125.543L115.635 133.329L125.159 138.819V130.334L59.8678 92.2729Z" fill="#D8D8D8"/>
<path d="M57.7909 92.8521V101.338L102.14 127.321L115.635 135.111L125.159 140.602V132.116L57.7909 92.8521Z" fill="#9D9B96"/>
<path d="M185.393 38.0653L120.11 0L59.8722 34.6915L125.159 72.7568L185.393 38.0653Z" fill="#E8E5E5"/>
<path d="M177.076 37.0179L120.11 3.85059L66.5439 34.6914L124.014 67.7116L177.076 37.0179Z" fill="#D1C9CA"/>
<path d="M55.5403 41.5097L120.097 4.38037L176.653 37.2758L112.123 74.5121L55.5403 41.5097Z" fill="#010101"/>
<path d="M120.11 9.21208L71.1879 37.3744L66.5439 34.6914L120.11 3.85059L177.076 37.0179L172.303 39.6964L120.11 9.21208Z" fill="#BFBFBF"/>
<path d="M120.11 3.85059V9.21208L172.303 39.6964L177.076 37.0179L120.11 3.85059Z" fill="#9C9C9C"/>
<path d="M125.159 140.602L131.586 136.89V135.37L171.688 110.368L133.427 135.883L185.393 103.968V38.0654L125.159 72.7569V140.602Z" fill="#F6C12B"/>
<path d="M178.739 103.014V41.9872L181.752 40.2446V101.276L178.739 103.014Z" fill="#F4B400"/>
<path d="M172.33 45.7265L175.343 43.9839V104.975L172.33 106.713V45.7265Z" fill="#F4B400"/>
<path d="M165.926 49.4657L168.938 47.7231V108.678L165.926 110.412V49.4657Z" fill="#F4B400"/>
<path d="M159.517 53.205L162.53 51.4624V112.378L159.517 114.116V53.205Z" fill="#F4B400"/>
<path d="M153.112 56.9477L156.125 55.2007V116.076L153.112 117.814V56.9477Z" fill="#F4B400"/>
<path d="M146.703 60.6879L149.716 58.9453V119.78L146.703 121.514V60.6879Z" fill="#F4B400"/>
<path d="M140.299 64.4277L143.312 62.6851V123.48L140.299 125.218V64.4277Z" fill="#F4B400"/>
<path d="M133.89 68.1659L136.903 66.4233V127.178L133.89 128.916V68.1659Z" fill="#F4B400"/>
<path d="M127.486 71.9057L130.499 70.1631V130.882L127.486 132.616V71.9057Z" fill="#F4B400"/>
<path d="M179.733 102.465V41.4389L182.745 39.6963V100.727L179.733 102.465Z" fill="#F8D163"/>
<path d="M173.328 45.1781L176.341 43.4355V104.426L173.328 106.165V45.1781Z" fill="#F8D163"/>
<path d="M166.919 48.9179L169.932 47.1753V108.131L166.919 109.864V48.9179Z" fill="#F8D163"/>
<path d="M160.515 52.6571L163.528 50.9146V111.83L160.515 113.568V52.6571Z" fill="#F8D163"/>
<path d="M154.106 56.3954L157.119 54.6528V115.528L154.106 117.266V56.3954Z" fill="#F8D163"/>
<path d="M147.702 60.1391L150.715 58.3965V119.231L147.702 120.965V60.1391Z" fill="#F8D163"/>
<path d="M141.293 63.8788L144.306 62.1362V122.931L141.293 124.669V63.8788Z" fill="#F8D163"/>
<path d="M134.889 67.6181L137.901 65.8755V126.63L134.889 128.368V67.6181Z" fill="#F8D163"/>
<path d="M128.48 71.3569L131.493 69.6143V130.333L128.48 132.067V71.3569Z" fill="#F8D163"/>
<path d="M131.586 126.626L146.32 118.189L185.393 95.6426L187.782 96.008L131.586 135.112L125.159 138.824V130.334L131.586 126.626Z" fill="#F7F7F7"/>
<path d="M131.586 128.497L146.32 120.065L185.393 97.5183L187.782 96.1011V104.582L131.586 136.983L125.159 140.696V132.21L131.586 128.497Z" fill="#CCCCCC"/>
<path d="M139.657 124.063V130.356L135.423 132.763V126.47L139.657 124.063Z" fill="#CCCCCC"/>
<path d="M178.89 55.3081V107.631L182.162 109.288L138.182 133.181V111.232V78.7997L176.35 56.7699L178.89 55.3081Z" fill="white"/>
<path d="M178.89 55.3081V107.631L176.35 106.712L173.818 58.2317L178.89 55.3081Z" fill="#F4B400"/>
<path d="M176.35 56.77V91.9072L138.182 115.965V78.7998L176.35 56.77Z" fill="#EBE7E7"/>
<path d="M176.047 57.5666L137.879 79.5942L138.485 80.6442L176.653 58.6166L176.047 57.5666Z" fill="#F6C538"/>
<path d="M176.046 66.4153L137.878 88.4429L138.484 89.4928L176.652 67.4652L176.046 66.4153Z" fill="#F6C538"/>
<path d="M176.046 61.883L137.878 83.9106L138.484 84.9606L176.652 62.933L176.046 61.883Z" fill="#F6C538"/>
<path d="M176.045 71.1633L137.877 93.1909L138.483 94.2409L176.651 72.2132L176.045 71.1633Z" fill="#F6C538"/>
<path d="M176.049 75.9148L137.881 97.9424L138.487 98.9923L176.655 76.9647L176.049 75.9148Z" fill="#F6C538"/>
<path d="M176.048 80.6682L137.88 102.696L138.486 103.746L176.654 81.7181L176.048 80.6682Z" fill="#F6C538"/>
<path d="M138.485 110.46L176.087 88.7604L176.047 87.3833L137.879 109.413L138.485 110.46Z" fill="#F4B400"/>
<path d="M138.182 106.699L176.35 84.6694V89.2064L138.182 111.232V106.699Z" fill="#F7F7F7"/>
<path d="M138.182 107.671L176.35 85.6416V90.1741L138.182 112.204V107.671Z" fill="#BDBDBD"/>
<path d="M176.35 89.2065V106.713L168.426 102.015L138.182 119.472V111.232L176.35 89.2065Z" fill="#ABABAB"/>
<path d="M141.623 78.7824L157.271 69.7485V74.5618L141.623 83.5913V78.7824Z" fill="#696969"/>
<path d="M156.704 73.8039V71.1655L142.193 79.5398V82.1782L156.704 73.8039Z" fill="black"/>
<path d="M156.281 73.6301V71.4062L156.704 71.1655V73.8039L142.193 82.1782V81.7637L156.281 73.6301Z" fill="#B1B1B1"/>
<path d="M173.177 60.5679V65.3901L159.842 73.0825V68.2603L173.177 60.5679Z" fill="#696969"/>
<path d="M172.557 64.6811V61.9937L160.461 68.9729V71.6604L172.557 64.6811Z" fill="black"/>
<path d="M172.138 64.5073V62.2343L172.557 61.9937V64.6811L160.461 71.6604V71.2459L172.138 64.5073Z" fill="#B1B1B1"/>
<path d="M2.07678 68.0771V135.931L41.4925 159.058L42.9097 158.238L60.6967 168.502V170.142L67.364 173.992V106.142L2.07678 68.0771Z" fill="#F4B400"/>
<path d="M12.773 74.5839L9.76025 72.8413V134.371L12.773 136.11V74.5839Z" fill="#FFCC4D"/>
<path d="M7.40267 71.0942L4.38989 69.3516V130.882L7.40267 132.62V71.0942Z" fill="#FFCC4D"/>
<path d="M18.1168 77.6772L15.104 75.9346V137.465L18.1168 139.203V77.6772Z" fill="#FFCC4D"/>
<path d="M23.4605 80.7699L20.4521 79.0273V140.562L23.4605 142.296V80.7699Z" fill="#FFCC4D"/>
<path d="M28.8086 83.8632L25.7958 82.1206V143.655L28.8086 145.389V83.8632Z" fill="#FFCC4D"/>
<path d="M34.1522 86.956L31.1394 85.2134V146.748L34.1522 148.482V86.956Z" fill="#FFCC4D"/>
<path d="M39.4959 90.0488L36.4832 88.3062V149.841L39.4959 151.579V90.0488Z" fill="#FFCC4D"/>
<path d="M44.8395 93.1465L41.8312 91.3994V152.934L44.8395 154.672V93.1465Z" fill="#FFCC4D"/>
<path d="M50.1877 96.2392L47.1749 94.4966V156.027L50.1877 157.765V96.2392Z" fill="#FFCC4D"/>
<path d="M55.5313 99.3329L52.5186 97.5903V161.064L55.5313 162.802V99.3329Z" fill="#FFCC4D"/>
<path d="M60.875 102.426L57.8622 100.683V162.213L60.875 163.951V102.426Z" fill="#FFCC4D"/>
<path d="M66.2186 105.518L63.2103 103.775V165.306L66.2186 165.052V105.518Z" fill="#FFCC4D"/>
<path d="M11.9664 74.1381L8.95361 72.3955V133.859L11.9664 135.592V74.1381Z" fill="#F4B400"/>
<path d="M6.60042 70.6488L3.58765 68.9062V130.37L6.60042 132.103V70.6488Z" fill="#F4B400"/>
<path d="M17.3101 77.2314L14.2974 75.4888V136.952L17.3101 138.686V77.2314Z" fill="#F4B400"/>
<path d="M22.6582 80.3241L19.6454 78.5815V140.045L22.6582 141.783V80.3241Z" fill="#F4B400"/>
<path d="M28.0019 83.4169L24.9891 81.6743V143.138L28.0019 144.876V83.4169Z" fill="#F4B400"/>
<path d="M33.3455 86.5102L30.3328 84.7676V146.231L33.3455 147.969V86.5102Z" fill="#F4B400"/>
<path d="M38.6936 89.603L35.6764 87.8604V149.324L38.6936 151.062V89.603Z" fill="#F4B400"/>
<path d="M44.0373 92.7007L41.0245 90.9536V152.417L44.0373 154.155V92.7007Z" fill="#F4B400"/>
<path d="M49.3809 95.7939L46.3682 94.0513V157.458L49.3809 159.191V95.7939Z" fill="#F4B400"/>
<path d="M54.7247 98.8871L51.7119 97.1445V158.608L54.7247 160.342V98.8871Z" fill="#F4B400"/>
<path d="M60.0727 101.98L57.0599 100.238V161.701L60.0727 163.435V101.98Z" fill="#F4B400"/>
<path d="M65.4165 105.073L62.4037 103.33V164.793L65.4165 166.527V105.073Z" fill="#F4B400"/>
<path d="M2.07686 125.663L0 126.242L44.3493 158.928L57.84 166.718L67.3641 172.209V163.723L2.07686 125.663Z" fill="#D8D8D8"/>
<path d="M0 126.242V134.728L44.3493 160.711L57.84 168.501L67.3641 173.992V165.506L0 126.242Z" fill="#9D9B96"/>
<path d="M127.597 71.451L62.3145 33.3901L2.0813 68.0816L67.3641 106.142L127.597 71.451Z" fill="#E8E5E5"/>
<path d="M119.281 70.4085L62.3145 37.2412L8.75305 68.0821L66.2186 101.102L119.281 70.4085Z" fill="#D1C9CA"/>
<path d="M9.64001 68.1037L73.5991 33.1982L130.766 63.7539L66.2187 101.102L9.64001 68.1037Z" fill="#020202"/>
<path d="M62.3145 42.6027L13.3926 70.765L8.75305 68.0821L62.3145 37.2412L66.544 34.6919L81.2558 31.5767L62.3145 42.6027Z" fill="#BFBFBF"/>
<path d="M67.364 173.992L73.7951 170.28V168.76L113.897 143.757L75.6313 169.272L127.597 137.357V71.4507L67.364 106.142V173.992Z" fill="#F6C12B"/>
<path d="M120.943 136.404V75.3774L123.956 73.6348V134.666L120.943 136.404Z" fill="#F4B400"/>
<path d="M114.539 79.1161L117.552 77.3735V138.364L114.539 140.103V79.1161Z" fill="#F4B400"/>
<path d="M108.13 82.8559L111.143 81.1133V142.069L108.13 143.802V82.8559Z" fill="#F4B400"/>
<path d="M101.726 86.5956L104.739 84.853V145.768L101.726 147.506V86.5956Z" fill="#F4B400"/>
<path d="M95.3169 90.3344L98.3297 88.5918V149.467L95.3169 151.205V90.3344Z" fill="#F4B400"/>
<path d="M88.9126 94.0776L91.9254 92.335V153.17L88.9126 154.904V94.0776Z" fill="#F4B400"/>
<path d="M82.5037 97.8168L85.5164 96.0742V156.869L82.5037 158.607V97.8168Z" fill="#F4B400"/>
<path d="M76.0994 101.557L79.1121 99.814V160.569L76.0994 162.307V101.557Z" fill="#F4B400"/>
<path d="M69.6906 105.296L72.7078 103.553V164.272L69.6906 166.006V105.296Z" fill="#F4B400"/>
<path d="M121.942 135.856V74.829L124.95 73.0864V134.117L121.942 135.856Z" fill="#F8D163"/>
<path d="M115.533 78.5678L118.546 76.8252V137.816L115.533 139.554V78.5678Z" fill="#F8D163"/>
<path d="M109.128 82.3075L112.141 80.5649V141.52L109.128 143.254V82.3075Z" fill="#F8D163"/>
<path d="M102.72 86.0468L105.732 84.3042V145.219L102.72 146.957V86.0468Z" fill="#F8D163"/>
<path d="M96.3152 89.7861L99.328 88.0435V148.918L96.3152 150.657V89.7861Z" fill="#F8D163"/>
<path d="M89.9064 93.5258L92.9192 91.7832V152.623L89.9064 154.356V93.5258Z" fill="#F8D163"/>
<path d="M83.5021 97.269L86.5149 95.5264V156.321L83.5021 158.059V97.269Z" fill="#F8D163"/>
<path d="M77.0931 101.008L80.1059 99.2651V160.02L77.0931 161.758V101.008Z" fill="#F8D163"/>
<path d="M70.6887 104.747L73.7015 103.005V163.724L70.6887 165.458V104.747Z" fill="#F8D163"/>
<path d="M73.7951 160.016L88.5292 151.579L127.597 129.032L129.986 129.398L73.7951 168.501L67.364 172.209V163.724L73.7951 160.016Z" fill="#F7F7F7"/>
<path d="M73.7951 161.888L88.5292 153.455L127.597 130.909L129.986 129.487V137.972L73.7951 170.373L67.364 174.086V165.6L73.7951 161.888Z" fill="#CCCCCC"/>
<path d="M81.8664 157.453V163.746L77.6281 166.153V159.86L81.8664 157.453Z" fill="#CCCCCC"/>
<path d="M121.099 88.6987V141.021L124.366 142.675L80.3867 166.572V144.622V112.186L118.554 90.1606L121.099 88.6987Z" fill="white"/>
<path d="M121.099 88.6987V141.021L118.555 140.103L116.028 91.6224L121.099 88.6987Z" fill="#F4B400"/>
<path d="M118.252 90.9573L80.084 112.985L80.6899 114.035L118.858 92.0072L118.252 90.9573Z" fill="#F6C538"/>
<path d="M118.251 99.8015L80.0826 121.829L80.6886 122.879L118.857 100.851L118.251 99.8015Z" fill="#F6C538"/>
<path d="M118.252 95.2737L80.0834 117.301L80.6893 118.351L118.858 96.3236L118.252 95.2737Z" fill="#F6C538"/>
<path d="M118.554 95.2681V140.103L110.63 135.406L80.3867 152.863V117.298L118.554 95.2681Z" fill="#ABABAB"/>
<path d="M83.8318 112.173L99.4795 103.139V107.952L83.8318 116.981V112.173Z" fill="#696969"/>
<path d="M98.9091 107.194V104.556L84.4023 112.93V115.568L98.9091 107.194Z" fill="black"/>
<path d="M98.4857 107.02V104.796L98.9091 104.556V107.194L84.4023 115.568V115.154L98.4857 107.02Z" fill="#B1B1B1"/>
<path d="M115.386 93.958V98.7802L102.047 106.473V101.65L115.386 93.958Z" fill="#696969"/>
<path d="M114.766 98.0713V95.3794L102.666 102.363V105.051L114.766 98.0713Z" fill="black"/>
<path d="M114.343 97.8975V95.6245L114.766 95.3794V98.0713L102.666 105.051V104.636L114.343 97.8975Z" fill="#B1B1B1"/>
<path d="M121.099 132.785V141.021L123.016 141.992V133.551L121.099 132.785Z" fill="#9A9A9A"/>
<path d="M178.89 99.3989V107.635L180.811 108.607V100.165L178.89 99.3989Z" fill="#9A9A9A"/>
<g style="mix-blend-mode:multiply">
<path d="M59.6672 97.2775L165.926 35.9702L177.076 37.0176L66.2187 101.101L59.6672 97.2775Z" fill="#BFBFBF"/>
</g>
<path d="M172.232 101.953L170.73 102.915L155.889 94.385L157.391 93.4224L172.232 101.953Z" fill="#F4B400"/>
<path d="M170.73 102.916V105.839L155.889 97.3089V94.3853L170.73 102.916Z" fill="#F4B400"/>
<path d="M164.45 99.8979V101.587L169.714 104.618V102.937L164.45 99.8979Z" fill="#F4B400"/>
<path d="M157.03 95.6465V97.3356L162.302 100.362V98.6726L157.03 95.6465Z" fill="#F4B400"/>
<path d="M172.232 101.953V104.979L170.73 105.839V102.915L172.232 101.953Z" fill="#F4B400"/>
<path d="M158.394 96.4621L157.03 97.3356V95.6465L158.394 96.4621Z" fill="#F4B400"/>
<path d="M165.814 100.714L164.45 101.587V99.8979L165.814 100.714Z" fill="#F4B400"/>
<path d="M165.609 105.759L164.103 106.721L149.262 98.1912L150.768 97.2285L165.609 105.759Z" fill="#F4B400"/>
<path d="M164.103 106.721V109.645L149.262 101.115V98.1909L164.103 106.721Z" fill="#F4B400"/>
<path d="M157.828 103.704V105.393L163.091 108.424V106.744L157.828 103.704Z" fill="#F4B400"/>
<path d="M150.407 99.4521V101.141L155.679 104.167V102.478L150.407 99.4521Z" fill="#F4B400"/>
<path d="M165.609 105.758V108.784L164.103 109.645V106.721L165.609 105.758Z" fill="#F4B400"/>
<path d="M151.771 100.263L150.407 101.141V99.4521L151.771 100.263Z" fill="#F4B400"/>
<path d="M159.191 104.52L157.828 105.393V103.704L159.191 104.52Z" fill="#F4B400"/>
<path d="M158.986 109.564L157.48 110.527L142.639 101.992L144.145 101.03L158.986 109.564Z" fill="#F4B400"/>
<path d="M157.48 110.527V113.451L142.639 104.916V101.993L157.48 110.527Z" fill="#F4B400"/>
<path d="M151.205 107.51V109.199L156.468 112.226V110.55L151.205 107.51Z" fill="#F4B400"/>
<path d="M143.78 103.259V104.943L149.057 107.974V106.285L143.78 103.259Z" fill="#F4B400"/>
<path d="M158.986 109.565V112.591L157.48 113.451V110.528L158.986 109.565Z" fill="#F4B400"/>
<path d="M145.148 104.07L143.78 104.943V103.259L145.148 104.07Z" fill="#F4B400"/>
<path d="M152.569 108.326L151.205 109.199V107.51L152.569 108.326Z" fill="#F4B400"/>
<path d="M155.978 108.83L157.48 109.792L172.232 101.218L170.73 100.255L155.978 108.83Z" fill="#F4B400"/>
<path d="M157.48 109.792V110.527L172.232 101.953V101.217L157.48 109.792Z" fill="#F4B400"/>
<path d="M155.978 108.83V109.667L157.48 110.528V109.792L155.978 108.83Z" fill="#F4B400"/>
<path d="M152.64 106.913L154.146 107.875L168.898 99.3006L167.396 98.3379L152.64 106.913Z" fill="#F4B400"/>
<path d="M154.146 107.876V108.611L168.898 100.036V99.3008L154.146 107.876Z" fill="#F4B400"/>
<path d="M152.64 106.913V107.746L154.146 108.611V107.875L152.64 106.913Z" fill="#F4B400"/>
<path d="M149.306 104.996L150.813 105.959L165.565 97.384L164.058 96.4214L149.306 104.996Z" fill="#F4B400"/>
<path d="M150.813 105.959V106.694L165.565 98.1196V97.3843L150.813 105.959Z" fill="#F4B400"/>
<path d="M149.306 104.997V105.83L150.813 106.695V105.959L149.306 104.997Z" fill="#F4B400"/>
<path d="M145.973 103.075L147.479 104.038L162.231 95.4632L160.725 94.5005L145.973 103.075Z" fill="#F4B400"/>
<path d="M147.479 104.038V104.773L162.231 96.1983V95.4629L147.479 104.038Z" fill="#F4B400"/>
<path d="M145.973 103.075V103.913L147.479 104.773V104.038L145.973 103.075Z" fill="#F4B400"/>
<path d="M142.639 101.159L144.145 102.121L158.897 93.5466L157.391 92.584L142.639 101.159Z" fill="#F4B400"/>
<path d="M144.145 102.122V102.857L158.897 94.2822V93.5469L144.145 102.122Z" fill="#F4B400"/>
<path d="M142.639 101.159V101.993L144.145 102.857V102.122L142.639 101.159Z" fill="#F4B400"/>
<path d="M157.525 100.669L150.688 96.7292V89.3755L157.525 93.3153V100.669Z" fill="#F4B400"/>
<path d="M162.948 90.1685L157.525 93.3149V100.669L162.948 97.5355V90.1685Z" fill="#F4B400"/>
<path d="M159.829 92.9277L158.175 93.8904V96.1366L159.829 95.1784V92.9277Z" stroke="#F4B400" stroke-width="0.23" stroke-miterlimit="10"/>
<path d="M159.263 94.1528L159.258 95.2759L158.741 95.5656L158.746 94.4514L158.487 94.594L159.004 93.4932L159.521 94.0102L159.263 94.1528Z" fill="#F4B400"/>
<path d="M162.948 90.1684L157.525 93.3148L154.316 91.4653L153.277 90.8636L150.688 89.3706L156.116 86.2241L158.706 87.7171L159.748 88.3188L162.948 90.1684Z" fill="#FADE8F"/>
<path d="M154.316 91.4659L153.277 90.8643L158.706 87.7178L159.748 88.3194L154.316 91.4659Z" fill="#FCE9B3"/>
<path d="M153.153 97.5134L151.192 96.3903V94.7012L153.153 95.8198V97.5134Z" fill="#ABABAB"/>
<path d="M153.045 97.2942L151.303 96.3004V96.2246L153.045 97.2185V97.2942Z" fill="#595959"/>
<path d="M153.045 97.0853L151.303 96.087V96.0112L153.045 97.0095V97.0853Z" fill="#595959"/>
<path d="M153.045 96.8719L151.303 95.878V95.8022L153.045 96.7961V96.8719Z" fill="#595959"/>
<path d="M153.045 96.662L151.303 95.6637V95.5879L153.045 96.5818V96.662Z" fill="#595959"/>
<path d="M153.045 96.2614L151.303 95.2631V95.0225L153.045 96.0163V96.2614Z" fill="#595959"/>
<path d="M153.277 90.8643L153.273 93.3422L153.487 92.7628L153.71 93.5829L154.013 93.0525L154.285 93.8993L154.316 91.4659L153.277 90.8643Z" fill="#F7C63D"/>
<path d="M161.068 92.3081L160.573 92.5978V93.2619L161.068 92.9722V92.3081Z" fill="#F4B400"/>
<path d="M161.767 91.9067L161.268 92.1964V92.8605L161.767 92.5708V91.9067Z" fill="#F4B400"/>
<path d="M162.463 91.5059L161.968 91.7955V92.4596L162.463 92.1699V91.5059Z" fill="#F4B400"/>
<path d="M151 104.448L144.168 100.508V93.1548L151 97.099V104.448Z" fill="#F4B400"/>
<path d="M156.428 93.9487L151 97.0997V104.449L156.428 101.32V93.9487Z" fill="#F4B400"/>
<path d="M153.308 96.7114L151.651 97.6696V99.9158L153.308 98.9576V96.7114Z" stroke="#F4B400" stroke-width="0.23" stroke-miterlimit="10"/>
<path d="M152.738 97.9365L152.734 99.0551L152.217 99.3493L152.221 98.2306L151.963 98.3777L152.484 97.2769L152.996 97.7894L152.738 97.9365Z" fill="#F4B400"/>
<path d="M156.428 93.9477L151 97.0986L147.795 95.2446L146.753 94.6474L144.168 93.1544L149.591 90.0034L152.181 91.5009L153.228 92.1026L156.428 93.9477Z" fill="#FADE8F"/>
<path d="M147.795 95.2452L146.753 94.6479L152.181 91.5015L153.228 92.1031L147.795 95.2452Z" fill="#FCE9B3"/>
<path d="M146.632 101.293L144.671 100.175V98.481L146.632 99.5996V101.293Z" fill="#ABABAB"/>
<path d="M146.521 101.079L144.778 100.081V100.005L146.521 101.003V101.079Z" fill="#595959"/>
<path d="M146.521 100.865L144.778 99.8707V99.7905L146.521 100.789V100.865Z" fill="#595959"/>
<path d="M146.521 100.656L144.778 99.6573V99.5815L146.521 100.575V100.656Z" fill="#595959"/>
<path d="M146.521 100.442L144.778 99.4434V99.3677L146.521 100.366V100.442Z" fill="#595959"/>
<path d="M146.521 100.041L144.778 99.0469V98.8018L146.521 99.8001V100.041Z" fill="#595959"/>
<path d="M146.753 94.6479L146.748 97.1259L146.962 96.5465L147.185 97.3666L147.492 96.8362L147.76 97.6786L147.796 95.2452L146.753 94.6479Z" fill="#F7C63D"/>
<path d="M154.547 96.0869L154.053 96.3766V97.0407L154.547 96.751V96.0869Z" fill="#F4B400"/>
<path d="M155.243 95.686L154.748 95.9757V96.6398L155.243 96.3501V95.686Z" fill="#F4B400"/>
<path d="M155.938 95.2852L155.443 95.5748V96.2389L155.938 95.9492V95.2852Z" fill="#F4B400"/>
<path d="M165.101 104.997L158.269 101.057V93.7031L165.101 97.6429V104.997Z" fill="#F4B400"/>
<path d="M170.529 94.4961L165.101 97.6426V104.996L170.529 101.863V94.4961Z" fill="#F4B605"/>
<path d="M167.41 97.2549L165.752 98.2175V100.464L167.41 99.5056V97.2549Z" stroke="#F4B400" stroke-width="0.23" stroke-miterlimit="10"/>
<path d="M166.839 98.4804L166.835 99.6035L166.318 99.8932L166.322 98.7745L166.064 98.9216L166.585 97.8208L167.098 98.3378L166.839 98.4804Z" fill="#F4B400"/>
<path d="M170.529 94.4965L165.106 97.643L161.897 95.7934L160.854 95.1917L158.269 93.6987L163.693 90.5522L166.287 92.0453L167.33 92.6469L170.529 94.4965Z" fill="#FADE8F"/>
<path d="M161.897 95.7931L160.854 95.1914L166.287 92.0449L167.329 92.6466L161.897 95.7931Z" fill="#FCE9B3"/>
<path d="M160.733 101.842L158.772 100.718V99.0249L160.733 100.148V101.842Z" fill="#ABABAB"/>
<path d="M160.626 101.627L158.879 100.628V100.553L160.626 101.547V101.627Z" fill="#595959"/>
<path d="M160.626 101.413L158.879 100.415V100.339L160.626 101.337V101.413Z" fill="#595959"/>
<path d="M160.626 101.2L158.879 100.206V100.125L160.626 101.124V101.2Z" fill="#595959"/>
<path d="M160.626 100.99L158.879 99.9913V99.9155L160.626 100.909V100.99Z" fill="#595959"/>
<path d="M160.626 100.589L158.879 99.5903V99.3496L160.626 100.343V100.589Z" fill="#595959"/>
<path d="M160.854 95.1919L160.849 97.6699L161.063 97.0905L161.29 97.9105L161.594 97.3802L161.861 98.227L161.897 95.7936L160.854 95.1919Z" fill="#F7C63D"/>
<path d="M168.649 96.6357L168.154 96.9254V97.5895L168.649 97.2998V96.6357Z" fill="#F4B400"/>
<path d="M169.344 96.2344L168.849 96.5241V97.1837L169.344 96.8984V96.2344Z" fill="#F4B400"/>
<path d="M170.039 95.8335L169.544 96.1232V96.7872L170.039 96.4976V95.8335Z" fill="#F4B400"/>
<path d="M158.581 108.775L151.749 104.836V97.4819L158.581 101.422V108.775Z" fill="#F4B400"/>
<path d="M164.009 98.2759L158.581 101.422V108.776L164.009 105.647V98.2759Z" fill="#F4B605"/>
<path d="M160.889 101.039L159.232 101.997V104.243L160.889 103.285V101.039Z" stroke="#F4B400" stroke-width="0.23" stroke-miterlimit="10"/>
<path d="M160.319 102.265L160.314 103.383L159.797 103.677L159.802 102.559L159.543 102.706L160.06 101.605L160.577 102.118L160.319 102.265Z" fill="#F4B400"/>
<path d="M164.005 98.2753L158.581 101.422L155.372 99.5722L154.333 98.975L151.749 97.482L157.172 94.3311L159.762 95.8241L160.805 96.4302L164.005 98.2753Z" fill="#FADE8F"/>
<path d="M155.372 99.5724L154.333 98.9752L159.762 95.8242L160.805 96.4303L155.372 99.5724Z" fill="#FCE9B3"/>
<path d="M154.209 105.62L152.248 104.502V102.808L154.209 103.927V105.62Z" fill="#ABABAB"/>
<path d="M154.102 105.407L152.359 104.408V104.333L154.102 105.331V105.407Z" fill="#595959"/>
<path d="M154.102 105.193L152.359 104.199V104.119L154.102 105.117V105.193Z" fill="#595959"/>
<path d="M154.102 104.983L152.359 103.985V103.909L154.102 104.903V104.983Z" fill="#595959"/>
<path d="M154.102 104.769L152.359 103.771V103.695L154.102 104.693V104.769Z" fill="#595959"/>
<path d="M154.102 104.368L152.359 103.374V103.129L154.102 104.127V104.368Z" fill="#595959"/>
<path d="M154.334 98.9756L154.329 101.454L154.543 100.874L154.766 101.694L155.069 101.164L155.341 102.006L155.372 99.5728L154.334 98.9756Z" fill="#F7C63D"/>
<path d="M162.128 100.415L161.629 100.704V101.368L162.128 101.079V100.415Z" fill="#F4B400"/>
<path d="M162.824 100.014L162.329 100.304V100.968L162.824 100.678V100.014Z" fill="#F4B400"/>
<path d="M163.519 99.6128L163.024 99.9025V100.567L163.519 100.277V99.6128Z" fill="#F4B400"/>
<path d="M157.525 93.0522L150.688 89.1125V81.7588L157.525 85.6986V93.0522Z" fill="#F4B400"/>
<path d="M162.948 82.5522L157.525 85.6987V93.0524L162.948 89.9237V82.5522Z" fill="#F4B400"/>
<path d="M159.829 85.3154L158.175 86.2736V88.5198L159.829 87.5616V85.3154Z" stroke="#F4B400" stroke-width="0.23" stroke-miterlimit="10"/>
<path d="M159.263 86.5409L159.258 87.6596L158.741 87.9537L158.746 86.8351L158.487 86.9822L159.004 85.8813L159.521 86.3939L159.263 86.5409Z" fill="#F4B400"/>
<path d="M162.948 82.5521L157.525 85.6986L154.316 83.8491L153.277 83.2519L150.688 81.7588L156.116 78.6079L158.706 80.1009L159.748 80.707L162.948 82.5521Z" fill="#FADE8F"/>
<path d="M154.316 83.8492L153.277 83.252L158.706 80.1011L159.748 80.7072L154.316 83.8492Z" fill="#FCE9B3"/>
<path d="M153.153 89.8977L151.192 88.779V87.0854L153.153 88.2041V89.8977Z" fill="#ABABAB"/>
<path d="M153.045 89.683L151.303 88.6847V88.6089L153.045 89.6072V89.683Z" fill="#595959"/>
<path d="M153.045 89.4691L151.303 88.4752V88.395L153.045 89.3933V89.4691Z" fill="#595959"/>
<path d="M153.045 89.2601L151.303 88.2618V88.186L153.045 89.1799V89.2601Z" fill="#595959"/>
<path d="M153.045 89.0463L151.303 88.0479V87.9722L153.045 88.9705V89.0463Z" fill="#595959"/>
<path d="M153.045 88.6447L151.303 87.6464V87.4058L153.045 88.4041V88.6447Z" fill="#595959"/>
<path d="M153.277 83.252L153.273 85.7299L153.487 85.1505L153.71 85.9706L154.013 85.4402L154.285 86.2826L154.316 83.8492L153.277 83.252Z" fill="#F7C63D"/>
<path d="M161.068 84.6909L160.573 84.9806V85.6447L161.068 85.355V84.6909Z" fill="#F4B400"/>
<path d="M161.767 84.2905L161.268 84.5802V85.2443L161.767 84.9546V84.2905Z" fill="#F4B400"/>
<path d="M162.463 83.8896L161.968 84.1793V84.8434L162.463 84.5537V83.8896Z" fill="#F4B400"/>
<path d="M151 96.836L144.168 92.8918V85.5381L151 89.4823V96.836Z" fill="#F4B400"/>
<path d="M156.428 86.3315L151 89.4825V96.8361L156.428 93.703V86.3315Z" fill="#F4B400"/>
<path d="M153.308 89.0938L151.651 90.0564V92.2982L153.308 91.3444V89.0938Z" stroke="#F4B400" stroke-width="0.23" stroke-miterlimit="10"/>
<path d="M152.738 90.3203L152.734 91.4389L152.217 91.733L152.221 90.6144L151.963 90.7615L152.484 89.6606L152.996 90.1732L152.738 90.3203Z" fill="#F4B400"/>
<path d="M156.428 86.3314L151 89.4823L147.795 87.6283L146.753 87.0311L144.168 85.5381L149.591 82.3916L152.181 83.8846L153.228 84.4863L156.428 86.3314Z" fill="#FADE8F"/>
<path d="M147.795 87.6284L146.753 87.0312L152.181 83.8848L153.228 84.4864L147.795 87.6284Z" fill="#FCE9B3"/>
<path d="M146.632 93.6765L144.671 92.5578V90.8643L146.632 91.9829V93.6765Z" fill="#ABABAB"/>
<path d="M146.521 93.4628L144.778 92.4689V92.3887L146.521 93.387V93.4628Z" fill="#595959"/>
<path d="M146.521 93.2533L144.778 92.255V92.1792L146.521 93.1731V93.2533Z" fill="#595959"/>
<path d="M146.521 93.0394L144.778 92.0411V91.9653L146.521 92.9636V93.0394Z" fill="#595959"/>
<path d="M146.521 92.825L144.778 91.8311V91.7554L146.521 92.7492V92.825Z" fill="#595959"/>
<path d="M146.521 92.424L144.778 91.4302V91.1851L146.521 92.1834V92.424Z" fill="#595959"/>
<path d="M146.753 87.0312L146.748 89.5092L146.962 88.9298L147.185 89.7499L147.492 89.2195L147.76 90.0619L147.796 87.6285L146.753 87.0312Z" fill="#F7C63D"/>
<path d="M154.547 88.4707L154.053 88.7604V89.4245L154.547 89.1392V88.4707Z" fill="#F4B400"/>
<path d="M155.243 88.0688L154.748 88.3585V89.0226L155.243 88.7374V88.0688Z" fill="#F4B400"/>
<path d="M155.938 87.6689L155.443 87.9586V88.6227L155.938 88.3375V87.6689Z" fill="#F4B400"/>
<path d="M165.101 97.3794L158.269 93.4396V86.0859L165.101 90.0257V97.3794Z" fill="#F4B400"/>
<path d="M170.529 86.8799L165.101 90.0264V97.38L170.529 94.2514V86.8799Z" fill="#F4B605"/>
<path d="M167.41 89.6382L165.752 90.6008V92.8471L167.41 91.8888V89.6382Z" stroke="#F4B400" stroke-width="0.23" stroke-miterlimit="10"/>
<path d="M166.839 90.8686L166.835 91.9872L166.318 92.2814L166.322 91.1627L166.064 91.3098L166.585 90.209L167.098 90.7215L166.839 90.8686Z" fill="#F4B400"/>
<path d="M170.529 86.8798L165.106 90.0263L161.897 88.1767L160.854 87.5795L158.269 86.0865L163.693 82.9355L166.287 84.4286L167.33 85.0302L170.529 86.8798Z" fill="#FADE8F"/>
<path d="M161.897 88.1764L160.854 87.5792L166.287 84.4282L167.329 85.0299L161.897 88.1764Z" fill="#FCE9B3"/>
<path d="M160.733 94.2243L158.772 93.1057V91.4121L160.733 92.5308V94.2243Z" fill="#ABABAB"/>
<path d="M160.626 94.0106L158.879 93.0123V92.9365L160.626 93.9304V94.0106Z" fill="#595959"/>
<path d="M160.626 93.7967L158.879 92.8029V92.7227L160.626 93.721V93.7967Z" fill="#595959"/>
<path d="M160.626 93.5878L158.879 92.5894V92.5137L160.626 93.5075V93.5878Z" fill="#595959"/>
<path d="M160.626 93.3734L158.879 92.3751V92.2993L160.626 93.2976V93.3734Z" fill="#595959"/>
<path d="M160.626 92.9724L158.879 91.9785V91.7334L160.626 92.7317V92.9724Z" fill="#595959"/>
<path d="M160.854 87.5791L160.849 90.0571L161.063 89.4777L161.29 90.2933L161.594 89.7629L161.861 90.6097L161.897 88.1763L160.854 87.5791Z" fill="#F7C63D"/>
<path d="M168.649 89.0186L168.154 89.3082V89.9723L168.649 89.6826V89.0186Z" fill="#F4B400"/>
<path d="M169.344 88.6177L168.849 88.9074V89.5714L169.344 89.2817V88.6177Z" fill="#F4B400"/>
<path d="M170.039 88.2173L169.544 88.507V89.171L170.039 88.8813V88.2173Z" fill="#F4B400"/>
<path d="M158.581 101.164L151.749 97.2194V89.8657L158.581 93.81V101.164Z" fill="#F4B400"/>
<path d="M164.009 90.6587L158.581 93.8096V101.163L164.009 98.0302V90.6587Z" fill="#F4B605"/>
<path d="M160.889 93.4224L159.232 94.385V96.6268L160.889 95.673V93.4224Z" stroke="#F4B400" stroke-width="0.23" stroke-miterlimit="10"/>
<path d="M160.319 94.6479L160.314 95.7665L159.797 96.0607L159.802 94.942L159.543 95.0891L160.06 93.9883L160.577 94.5008L160.319 94.6479Z" fill="#F4B400"/>
<path d="M164.005 90.659L158.581 93.81L155.372 91.9559L154.333 91.3587L151.749 89.8657L157.172 86.7192L159.762 88.2123L160.805 88.8139L164.005 90.659Z" fill="#FADE8F"/>
<path d="M155.372 91.9561L154.333 91.3589L159.762 88.2124L160.805 88.8141L155.372 91.9561Z" fill="#FCE9B3"/>
<path d="M154.209 98.0041L152.248 96.8855V95.1919L154.209 96.3105V98.0041Z" fill="#ABABAB"/>
<path d="M154.102 97.7899L152.359 96.796V96.7158L154.102 97.7141V97.7899Z" fill="#595959"/>
<path d="M154.102 97.576L152.359 96.5821V96.5063L154.102 97.5002V97.576Z" fill="#595959"/>
<path d="M154.102 97.3666L152.359 96.3682V96.2925L154.102 97.2908V97.3666Z" fill="#595959"/>
<path d="M154.102 97.1522L152.359 96.1583V96.0781L154.102 97.0764V97.1522Z" fill="#595959"/>
<path d="M154.102 96.7517L152.359 95.7578V95.5127L154.102 96.511V96.7517Z" fill="#595959"/>
<path d="M154.334 91.3589L154.329 93.8368L154.543 93.2575L154.766 94.0775L155.069 93.5472L155.341 94.3895L155.372 91.9561L154.334 91.3589Z" fill="#F7C63D"/>
<path d="M162.128 92.7983L161.629 93.088V93.7521L162.128 93.4669V92.7983Z" fill="#F4B400"/>
<path d="M162.824 92.397L162.329 92.6867V93.3507L162.824 93.0655V92.397Z" fill="#F4B400"/>
<path d="M163.519 91.9956L163.024 92.2853V92.9494L163.519 92.6641V91.9956Z" fill="#F4B400"/>
<path d="M153.803 112.67L152.301 113.633L137.46 105.098L138.962 104.136L153.803 112.67Z" fill="#F4B400"/>
<path d="M152.301 113.633V116.557L137.46 108.022V105.099L152.301 113.633Z" fill="#F4B400"/>
<path d="M146.026 110.616V112.305L151.29 115.331V113.656L146.026 110.616Z" fill="#F4B400"/>
<path d="M138.601 106.36V108.049L143.878 111.08V109.391L138.601 106.36Z" fill="#F4B400"/>
<path d="M153.803 112.671V115.698L152.301 116.558V113.634L153.803 112.671Z" fill="#F4B400"/>
<path d="M139.965 107.176L138.601 108.049V106.36L139.965 107.176Z" fill="#F4B400"/>
<path d="M147.39 111.432L146.026 112.305V110.616L147.39 111.432Z" fill="#F4B400"/>
<path d="M147.18 116.477L145.678 117.44L130.837 108.905L132.339 107.942L147.18 116.477Z" fill="#F4B400"/>
<path d="M145.678 117.44V120.363L130.837 111.828V108.905L145.678 117.44Z" fill="#F4B400"/>
<path d="M139.399 114.422V116.111L144.662 119.138V117.462L139.399 114.422Z" fill="#F4B400"/>
<path d="M131.978 110.166V111.855L137.251 114.886V113.197L131.978 110.166Z" fill="#F4B400"/>
<path d="M147.18 116.478V119.499L145.678 120.364V117.44L147.18 116.478Z" fill="#F4B400"/>
<path d="M133.342 110.982L131.978 111.855V110.166L133.342 110.982Z" fill="#F4B400"/>
<path d="M140.763 115.238L139.399 116.111V114.422L140.763 115.238Z" fill="#F4B400"/>
<path d="M140.558 120.283L139.051 121.246L124.21 112.711L125.717 111.749L140.558 120.283Z" fill="#F4B400"/>
<path d="M139.051 121.246V124.17L124.21 115.635V112.711L139.051 121.246Z" fill="#F4B400"/>
<path d="M132.776 118.229V119.913L138.04 122.944V121.268L132.776 118.229Z" fill="#F4B400"/>
<path d="M125.351 113.973V115.662L130.628 118.692V117.003L125.351 113.973Z" fill="#F4B400"/>
<path d="M140.558 120.283V123.305L139.051 124.169V121.246L140.558 120.283Z" fill="#F4B400"/>
<path d="M126.719 114.788L125.351 115.662V113.973L126.719 114.788Z" fill="#F4B400"/>
<path d="M134.14 119.044L132.776 119.913V118.229L134.14 119.044Z" fill="#F4B400"/>
<path d="M137.549 119.547L139.051 120.51L153.803 111.935L152.301 110.973L137.549 119.547Z" fill="#F4B400"/>
<path d="M139.051 120.51V121.246L153.803 112.671V111.936L139.051 120.51Z" fill="#F4B400"/>
<path d="M137.549 119.547V120.385L139.051 121.245V120.51L137.549 119.547Z" fill="#F4B400"/>
<path d="M134.216 117.631L135.718 118.594L150.469 110.019L148.967 109.057L134.216 117.631Z" fill="#F4B400"/>
<path d="M135.718 118.594V119.329L150.47 110.754V110.019L135.718 118.594Z" fill="#F4B400"/>
<path d="M134.216 117.631V118.465L135.718 119.329V118.594L134.216 117.631Z" fill="#F4B400"/>
<path d="M130.882 115.71L132.384 116.673L147.136 108.098L145.634 107.135L130.882 115.71Z" fill="#F4B400"/>
<path d="M132.384 116.673V117.409L147.136 108.838V108.099L132.384 116.673Z" fill="#F4B400"/>
<path d="M130.882 115.711V116.549L132.384 117.409V116.674L130.882 115.711Z" fill="#F4B400"/>
<path d="M127.544 113.794L129.05 114.757L143.802 106.182L142.3 105.219L127.544 113.794Z" fill="#F4B400"/>
<path d="M129.05 114.757V115.492L143.802 106.917V106.182L129.05 114.757Z" fill="#F4B400"/>
<path d="M127.544 113.794V114.632L129.05 115.492V114.757L127.544 113.794Z" fill="#F4B400"/>
<path d="M124.21 111.878L125.717 112.841L140.469 104.266L138.962 103.303L124.21 111.878Z" fill="#F4B400"/>
<path d="M125.717 112.84V113.575L140.468 105.001V104.265L125.717 112.84Z" fill="#F4B400"/>
<path d="M124.21 111.877V112.711L125.717 113.575V112.84L124.21 111.877Z" fill="#F4B400"/>
<path d="M139.096 111.388L132.259 107.444V100.09L139.096 104.034V111.388Z" fill="#F4B400"/>
<path d="M144.524 100.883L139.096 104.034V111.387L144.524 108.254V100.883Z" fill="#F4B400"/>
<path d="M141.404 103.646L139.746 104.609V106.851L141.404 105.897V103.646Z" stroke="#F4B400" stroke-width="0.23" stroke-miterlimit="10"/>
<path d="M140.834 104.872L140.829 105.99L140.313 106.284L140.317 105.166L140.058 105.313L140.575 104.212L141.092 104.724L140.834 104.872Z" fill="#F4B400"/>
<path d="M144.52 100.887L139.096 104.034L135.887 102.184L134.849 101.582L132.264 100.089L137.688 96.9429L140.277 98.4359L141.32 99.0376L144.52 100.887Z" fill="#FADE8F"/>
<path d="M135.887 102.184L134.849 101.582L140.277 98.4355L141.32 99.0372L135.887 102.184Z" fill="#FCE9B3"/>
<path d="M134.728 108.228L132.763 107.109V105.416L134.728 106.534V108.228Z" fill="#ABABAB"/>
<path d="M134.617 108.013L132.874 107.02V106.944L134.617 107.938V108.013Z" fill="#595959"/>
<path d="M134.617 107.804L132.874 106.806V106.73L134.617 107.724V107.804Z" fill="#595959"/>
<path d="M134.617 107.59L132.874 106.596V106.516L134.617 107.514V107.59Z" fill="#595959"/>
<path d="M134.617 107.377L132.874 106.383V106.307L134.617 107.301V107.377Z" fill="#595959"/>
<path d="M134.617 106.975L132.874 105.981V105.74L134.617 106.734V106.975Z" fill="#595959"/>
<path d="M134.849 101.583L134.844 104.06L135.058 103.481L135.281 104.301L135.584 103.771L135.856 104.618L135.887 102.184L134.849 101.583Z" fill="#F7C63D"/>
<path d="M142.639 103.022L142.144 103.312V103.976L142.639 103.69V103.022Z" fill="#F4B400"/>
<path d="M143.339 102.621L142.839 102.911V103.575L143.339 103.29V102.621Z" fill="#F4B400"/>
<path d="M144.034 102.224L143.539 102.509V103.173L144.034 102.888V102.224Z" fill="#F4B400"/>
<path d="M132.576 115.166L125.739 111.227V103.873L132.576 107.813V115.166Z" fill="#F4B400"/>
<path d="M137.999 104.667L132.576 107.813V115.167L137.999 112.034V104.667Z" fill="#F4B400"/>
<path d="M134.88 107.425L133.222 108.388V110.634L134.88 109.676V107.425Z" stroke="#F4B400" stroke-width="0.23" stroke-miterlimit="10"/>
<path d="M134.309 108.656L134.305 109.774L133.788 110.068L133.792 108.95L133.534 109.097L134.055 107.996L134.568 108.509L134.309 108.656Z" fill="#F4B400"/>
<path d="M137.999 104.667L132.576 107.813L129.367 105.964L128.324 105.367L125.739 103.869L131.163 100.723L133.757 102.216L134.8 102.817L137.999 104.667Z" fill="#FADE8F"/>
<path d="M129.367 105.963L128.324 105.366L133.757 102.215L134.799 102.817L129.367 105.963Z" fill="#FCE9B3"/>
<path d="M128.203 112.011L126.242 110.888V109.199L128.203 110.318V112.011Z" fill="#ABABAB"/>
<path d="M128.097 111.798L126.349 110.799V110.724L128.097 111.717V111.798Z" fill="#595959"/>
<path d="M128.097 111.584L126.349 110.586V110.51L128.097 111.508V111.584Z" fill="#595959"/>
<path d="M128.097 111.369L126.349 110.376V110.3L128.097 111.294V111.369Z" fill="#595959"/>
<path d="M128.097 111.16L126.349 110.162V110.086L128.097 111.084V111.16Z" fill="#595959"/>
<path d="M128.097 110.759L126.349 109.761V109.52L128.097 110.514V110.759Z" fill="#595959"/>
<path d="M128.324 105.366L128.319 107.844L128.533 107.264L128.761 108.08L129.064 107.55L129.335 108.396L129.367 105.963L128.324 105.366Z" fill="#F7C63D"/>
<path d="M136.119 106.806L135.624 107.096V107.76L136.119 107.47V106.806Z" fill="#F4B400"/>
<path d="M136.814 106.405L136.319 106.695V107.359L136.814 107.069V106.405Z" fill="#F4B400"/>
<path d="M137.509 106.003L137.015 106.293V106.957L137.509 106.667V106.003Z" fill="#F4B400"/>
<path d="M146.677 115.715L139.84 111.771V104.417L146.677 108.361V115.715Z" fill="#F4B400"/>
<path d="M152.101 105.21L146.677 108.361V115.715L152.101 112.581V105.21Z" fill="#F4B605"/>
<path d="M148.981 107.974L147.323 108.937V111.179L148.981 110.225V107.974Z" stroke="#F4B400" stroke-width="0.23" stroke-miterlimit="10"/>
<path d="M148.41 109.199L148.406 110.317L147.894 110.611V109.493L147.635 109.64L148.156 108.539L148.669 109.052L148.41 109.199Z" fill="#F4B400"/>
<path d="M152.101 105.21L146.677 108.361L143.468 106.512L142.425 105.91L139.84 104.417L145.264 101.271L147.858 102.764L148.901 103.365L152.101 105.21Z" fill="#FADE8F"/>
<path d="M143.468 106.512L142.425 105.91L147.858 102.764L148.901 103.365L143.468 106.512Z" fill="#FCE9B3"/>
<path d="M142.305 112.555L140.344 111.437V109.743L142.305 110.862V112.555Z" fill="#ABABAB"/>
<path d="M142.198 112.341L140.451 111.347V111.267L142.198 112.265V112.341Z" fill="#595959"/>
<path d="M142.198 112.132L140.451 111.133V111.058L142.198 112.051V112.132Z" fill="#595959"/>
<path d="M142.198 111.918L140.451 110.92V110.844L142.198 111.842V111.918Z" fill="#595959"/>
<path d="M142.198 111.704L140.451 110.71V110.634L142.198 111.628V111.704Z" fill="#595959"/>
<path d="M142.198 111.307L140.451 110.309V110.068L142.198 111.062V111.307Z" fill="#595959"/>
<path d="M142.425 105.909L142.421 108.387L142.634 107.808L142.862 108.628L143.165 108.097L143.437 108.94L143.468 106.511L142.425 105.909Z" fill="#F7C63D"/>
<path d="M150.22 107.354L149.725 107.64V108.304L150.22 108.019V107.354Z" fill="#F4B400"/>
<path d="M150.915 106.949L150.42 107.238V107.902L150.915 107.617V106.949Z" fill="#F4B400"/>
<path d="M151.61 106.547L151.116 106.837V107.501L151.61 107.215V106.547Z" fill="#F4B400"/>
<path d="M140.152 119.494L133.32 115.554V108.201L140.152 112.14V119.494Z" fill="#F4B400"/>
<path d="M145.58 108.994L140.152 112.141V119.494L145.58 116.366V108.994Z" fill="#F4B605"/>
<path d="M142.461 111.753L140.803 112.716V114.962L142.461 114.004V111.753Z" stroke="#F4B400" stroke-width="0.23" stroke-miterlimit="10"/>
<path d="M141.89 112.983L141.886 114.101L141.369 114.396L141.373 113.277L141.115 113.424L141.636 112.323L142.149 112.836L141.89 112.983Z" fill="#F4B400"/>
<path d="M145.58 108.994L140.152 112.141L136.943 110.291L135.905 109.694L133.32 108.201L138.744 105.05L141.333 106.543L142.38 107.144L145.58 108.994Z" fill="#FADE8F"/>
<path d="M136.943 110.291L135.905 109.694L141.333 106.543L142.38 107.145L136.943 110.291Z" fill="#FCE9B3"/>
<path d="M135.784 116.339L133.823 115.216V113.527L135.784 114.646V116.339Z" fill="#ABABAB"/>
<path d="M135.673 116.125L133.93 115.127V115.051L135.673 116.045V116.125Z" fill="#595959"/>
<path d="M135.673 115.911L133.93 114.917V114.837L135.673 115.835V115.911Z" fill="#595959"/>
<path d="M135.673 115.697L133.93 114.703V114.627L135.673 115.621V115.697Z" fill="#595959"/>
<path d="M135.673 115.488L133.93 114.489V114.414L135.673 115.407V115.488Z" fill="#595959"/>
<path d="M135.673 115.087L133.93 114.088V113.848L135.673 114.846V115.087Z" fill="#595959"/>
<path d="M135.905 109.693L135.9 112.171L136.114 111.587L136.337 112.408L136.645 111.877L136.912 112.724L136.943 110.291L135.905 109.693Z" fill="#F7C63D"/>
<path d="M143.7 111.134L143.2 111.423V112.088L143.7 111.798V111.134Z" fill="#F4B400"/>
<path d="M144.395 110.733L143.9 111.023V111.687L144.395 111.397V110.733Z" fill="#F4B400"/>
<path d="M145.09 110.331L144.595 110.62V111.284L145.09 110.995V110.331Z" fill="#F4B400"/>
<path d="M139.096 103.771L132.259 99.8312V92.4775L139.096 96.4173V103.771Z" fill="#F4B400"/>
<path d="M144.524 93.2705L139.096 96.417V103.771L144.524 100.638V93.2705Z" fill="#F4B400"/>
<path d="M141.404 96.0293L139.746 96.992V99.2382L141.404 98.28V96.0293Z" stroke="#F4B400" stroke-width="0.23" stroke-miterlimit="10"/>
<path d="M140.834 97.2548L140.829 98.3779L140.313 98.6676L140.317 97.549L140.058 97.696L140.575 96.5952L141.092 97.1122L140.834 97.2548Z" fill="#F4B400"/>
<path d="M144.52 93.2704L139.096 96.4169L135.887 94.5673L134.849 93.9701L132.264 92.4727L137.688 89.3262L140.277 90.8192L141.32 91.4209L144.52 93.2704Z" fill="#FADE8F"/>
<path d="M135.887 94.5675L134.849 93.9703L140.277 90.8193L141.32 91.421L135.887 94.5675Z" fill="#FCE9B3"/>
<path d="M134.728 100.616L132.763 99.4924V97.7988L134.728 98.9219V100.616Z" fill="#ABABAB"/>
<path d="M134.617 100.401L132.874 99.4029V99.3271L134.617 100.321V100.401Z" fill="#595959"/>
<path d="M134.617 100.187L132.874 99.189V99.1133L134.617 100.112V100.187Z" fill="#595959"/>
<path d="M134.617 99.974L132.874 98.9801V98.8999L134.617 99.8982V99.974Z" fill="#595959"/>
<path d="M134.617 99.7645L132.874 98.7662V98.6904L134.617 99.6843V99.7645Z" fill="#595959"/>
<path d="M134.617 99.3625L132.874 98.3642V98.1235L134.617 99.1174V99.3625Z" fill="#595959"/>
<path d="M134.849 93.9702L134.844 96.4437L135.058 95.8643L135.281 96.6844L135.584 96.154L135.856 97.0008L135.887 94.5674L134.849 93.9702Z" fill="#F7C63D"/>
<path d="M142.639 95.4102L142.144 95.6998V96.3639L142.639 96.0742V95.4102Z" fill="#F4B400"/>
<path d="M143.339 95.0093L142.839 95.299V95.963L143.339 95.6733V95.0093Z" fill="#F4B400"/>
<path d="M144.034 94.6074L143.539 94.8971V95.5612L144.034 95.2715V94.6074Z" fill="#F4B400"/>
<path d="M132.576 107.55L125.739 103.61V96.2563L132.576 100.201V107.55Z" fill="#F4B400"/>
<path d="M137.999 97.0498L132.576 100.201V107.55L137.999 104.421V97.0498Z" fill="#F4B400"/>
<path d="M134.88 99.8135L133.222 100.772V103.018L134.88 102.064V99.8135Z" stroke="#F4B400" stroke-width="0.23" stroke-miterlimit="10"/>
<path d="M134.309 101.039L134.305 102.158L133.788 102.452L133.792 101.333L133.534 101.48L134.055 100.379L134.568 100.892L134.309 101.039Z" fill="#F4B400"/>
<path d="M137.999 97.0497L132.576 100.196L129.367 98.3466L128.324 97.7494L125.739 96.2564L131.163 93.1055L133.757 94.6029L134.8 95.2046L137.999 97.0497Z" fill="#FADE8F"/>
<path d="M129.367 98.3472L128.324 97.75L133.757 94.6035L134.799 95.2052L129.367 98.3472Z" fill="#FCE9B3"/>
<path d="M128.203 104.395L126.242 103.276V101.583L128.203 102.701V104.395Z" fill="#ABABAB"/>
<path d="M128.097 104.181L126.349 103.182V103.106L128.097 104.105V104.181Z" fill="#595959"/>
<path d="M128.097 103.967L126.349 102.973V102.897L128.097 103.891V103.967Z" fill="#595959"/>
<path d="M128.097 103.758L126.349 102.759V102.684L128.097 103.677V103.758Z" fill="#595959"/>
<path d="M128.097 103.544L126.349 102.545V102.47L128.097 103.468V103.544Z" fill="#595959"/>
<path d="M128.097 103.143L126.349 102.149V101.904L128.097 102.902V103.143Z" fill="#595959"/>
<path d="M128.324 97.7495L128.319 100.227L128.533 99.6481L128.761 100.468L129.064 99.9378L129.335 100.78L129.367 98.3467L128.324 97.7495Z" fill="#F7C63D"/>
<path d="M136.119 99.189L135.624 99.4787V100.143L136.119 99.853V99.189Z" fill="#F4B400"/>
<path d="M136.814 98.7886L136.319 99.0783V99.7423L136.814 99.4526V98.7886Z" fill="#F4B400"/>
<path d="M137.509 98.3872L137.015 98.6769V99.341L137.509 99.0513V98.3872Z" fill="#F4B400"/>
<path d="M146.677 108.098L139.84 104.158V96.8047L146.677 100.744V108.098Z" fill="#F4B400"/>
<path d="M152.101 97.5981L146.677 100.745V108.098L152.101 104.965V97.5981Z" fill="#F4B605"/>
<path d="M148.981 100.357L147.323 101.32V103.566L148.981 102.608V100.357Z" stroke="#F4B400" stroke-width="0.23" stroke-miterlimit="10"/>
<path d="M148.41 101.587L148.406 102.702L147.894 102.996V101.877L147.635 102.024L148.156 100.923L148.669 101.44L148.41 101.587Z" fill="#F4B400"/>
<path d="M152.101 97.5981L146.677 100.745L143.468 98.895L142.425 98.2978L139.84 96.8003L145.264 93.6538L147.858 95.1468L148.901 95.7485L152.101 97.5981Z" fill="#FADE8F"/>
<path d="M143.468 98.8956L142.425 98.2984L147.858 95.1475L148.901 95.7491L143.468 98.8956Z" fill="#FCE9B3"/>
<path d="M142.305 104.943L140.344 103.82V102.126L142.305 103.249V104.943Z" fill="#ABABAB"/>
<path d="M142.198 104.729L140.451 103.731V103.655L142.198 104.649V104.729Z" fill="#595959"/>
<path d="M142.198 104.515L140.451 103.517V103.441L142.198 104.439V104.515Z" fill="#595959"/>
<path d="M142.198 104.302L140.451 103.308V103.228L142.198 104.226V104.302Z" fill="#595959"/>
<path d="M142.198 104.092L140.451 103.093V103.018L142.198 104.011V104.092Z" fill="#595959"/>
<path d="M142.198 103.691L140.451 102.692V102.452L142.198 103.446V103.691Z" fill="#595959"/>
<path d="M142.425 98.2979L142.421 100.771L142.634 100.192L142.862 101.012L143.165 100.482L143.437 101.328L143.468 98.8951L142.425 98.2979Z" fill="#F7C63D"/>
<path d="M150.22 99.7373L149.725 100.027V100.691L150.22 100.401V99.7373Z" fill="#F4B400"/>
<path d="M150.915 99.3364L150.421 99.6261V100.29L150.915 100V99.3364Z" fill="#F4B400"/>
<path d="M151.61 98.9351L151.116 99.2247V99.8888L151.61 99.5991V98.9351Z" fill="#F4B400"/>
<path d="M140.152 111.877L133.32 107.938V100.584L140.152 104.524V111.877Z" fill="#F4B400"/>
<path d="M145.58 101.377L140.152 104.524V111.878L145.58 108.749V101.377Z" fill="#F4B605"/>
<path d="M142.461 104.141L140.803 105.099V107.345L142.461 106.391V104.141Z" stroke="#F4B400" stroke-width="0.23" stroke-miterlimit="10"/>
<path d="M141.89 105.367L141.886 106.485L141.369 106.779L141.373 105.661L141.115 105.808L141.636 104.707L142.149 105.22L141.89 105.367Z" fill="#F4B400"/>
<path d="M145.58 101.378L140.152 104.524L136.943 102.675L135.905 102.078L133.32 100.585L138.744 97.4336L141.333 98.9266L142.38 99.5327L145.58 101.378Z" fill="#FADE8F"/>
<path d="M136.943 102.674L135.905 102.077L141.333 98.9263L142.38 99.5324L136.943 102.674Z" fill="#FCE9B3"/>
<path d="M135.784 108.721L133.823 107.603V105.909L135.784 107.028V108.721Z" fill="#ABABAB"/>
<path d="M135.673 108.508L133.93 107.51V107.434L135.673 108.432V108.508Z" fill="#595959"/>
<path d="M135.673 108.294L133.93 107.3V107.225L135.673 108.218V108.294Z" fill="#595959"/>
<path d="M135.673 108.085L133.93 107.087V107.011L135.673 108.005V108.085Z" fill="#595959"/>
<path d="M135.673 107.871L133.93 106.877V106.797L135.673 107.795V107.871Z" fill="#595959"/>
<path d="M135.673 107.47L133.93 106.476V106.231L135.673 107.229V107.47Z" fill="#595959"/>
<path d="M135.905 102.078L135.9 104.556L136.114 103.976L136.337 104.796L136.645 104.266L136.912 105.108L136.943 102.675L135.905 102.078Z" fill="#F7C63D"/>
<path d="M143.7 103.517L143.2 103.806V104.47L143.7 104.181V103.517Z" fill="#F4B400"/>
<path d="M144.395 103.116L143.9 103.406V104.07L144.395 103.78V103.116Z" fill="#F4B400"/>
<path d="M145.09 102.715L144.595 103.005V103.669L145.09 103.379V102.715Z" fill="#F4B400"/>
<path d="M124.598 120.426L123.096 121.388L108.255 112.854L109.761 111.891L124.598 120.426Z" fill="#F4B400"/>
<path d="M123.096 121.388V124.312L108.255 115.777V112.854L123.096 121.388Z" fill="#F4B400"/>
<path d="M116.821 118.367V120.056L122.084 123.086V121.406L116.821 118.367Z" fill="#F4B400"/>
<path d="M109.396 114.115V115.804L114.673 118.83V117.145L109.396 114.115Z" fill="#F4B400"/>
<path d="M124.598 120.426V123.447L123.096 124.312V121.388L124.598 120.426Z" fill="#F4B400"/>
<path d="M110.76 114.93L109.396 115.804V114.115L110.76 114.93Z" fill="#F4B400"/>
<path d="M118.185 119.182L116.821 120.056V118.367L118.185 119.182Z" fill="#F4B400"/>
<path d="M117.975 124.232L116.473 125.195L101.632 116.66L103.134 115.697L117.975 124.232Z" fill="#F4B400"/>
<path d="M116.473 125.194V128.114L101.632 119.583V116.66L116.473 125.194Z" fill="#F4B400"/>
<path d="M110.194 122.173V123.862L115.457 126.893V125.212L110.194 122.173Z" fill="#F4B400"/>
<path d="M102.773 117.921V119.611L108.046 122.641V120.948L102.773 117.921Z" fill="#F4B400"/>
<path d="M117.975 124.232V127.254L116.473 128.114V125.195L117.975 124.232Z" fill="#F4B400"/>
<path d="M104.137 118.737L102.773 119.611V117.921L104.137 118.737Z" fill="#F4B400"/>
<path d="M111.557 122.988L110.194 123.862V122.173L111.557 122.988Z" fill="#F4B400"/>
<path d="M111.352 128.038L109.846 128.996L95.005 120.466L96.5114 119.503L111.352 128.038Z" fill="#F4B400"/>
<path d="M109.846 128.996V131.92L95.005 123.389V120.466L109.846 128.996Z" fill="#F4B400"/>
<path d="M103.571 125.979V127.668L108.834 130.699V129.019L103.571 125.979Z" fill="#F4B400"/>
<path d="M96.1504 121.727V123.416L101.423 126.442V124.753L96.1504 121.727Z" fill="#F4B400"/>
<path d="M111.352 128.038V131.059L109.846 131.919V128.996L111.352 128.038Z" fill="#F4B400"/>
<path d="M97.5142 122.543L96.1504 123.416V121.727L97.5142 122.543Z" fill="#F4B400"/>
<path d="M104.935 126.795L103.571 127.668V125.979L104.935 126.795Z" fill="#F4B400"/>
<path d="M108.344 127.298L109.846 128.261L124.598 119.69L123.096 118.723L108.344 127.298Z" fill="#F4B400"/>
<path d="M109.846 128.261V128.996L124.598 120.426V119.69L109.846 128.261Z" fill="#F4B400"/>
<path d="M108.344 127.298V128.136L109.846 128.996V128.261L108.344 127.298Z" fill="#F4B400"/>
<path d="M105.01 125.381L106.512 126.344L121.264 117.769L119.762 116.807L105.01 125.381Z" fill="#F4B400"/>
<path d="M106.512 126.344V127.08L121.264 118.505V117.77L106.512 126.344Z" fill="#F4B400"/>
<path d="M105.01 125.381V126.219L106.512 127.079V126.344L105.01 125.381Z" fill="#F4B400"/>
<path d="M101.677 123.465L103.179 124.428L117.931 115.853L116.429 114.891L101.677 123.465Z" fill="#F4B400"/>
<path d="M103.179 124.428V125.163L117.931 116.588V115.853L103.179 124.428Z" fill="#F4B400"/>
<path d="M101.677 123.465V124.299L103.179 125.163V124.428L101.677 123.465Z" fill="#F4B400"/>
<path d="M98.343 121.545L99.845 122.508L114.597 113.937L113.095 112.975L98.343 121.545Z" fill="#F4B400"/>
<path d="M99.845 122.507V123.247L114.597 114.672V113.937L99.845 122.507Z" fill="#F4B400"/>
<path d="M98.343 121.544V122.382L99.845 123.246V122.507L98.343 121.544Z" fill="#F4B400"/>
<path d="M95.005 119.628L96.5114 120.59L111.263 112.015L109.761 111.053L95.005 119.628Z" fill="#F4B400"/>
<path d="M96.5114 120.59V121.326L111.263 112.751V112.016L96.5114 120.59Z" fill="#F4B400"/>
<path d="M95.005 119.628V120.466L96.5114 121.326V120.591L95.005 119.628Z" fill="#F4B400"/>
<path d="M110.167 126.264L98.1604 119.334V102.394L110.167 109.328V126.264Z" fill="#F4B400"/>
<path d="M108.968 110.015V124.191L99.3593 118.638V104.466L108.968 110.015Z" fill="#F4B400"/>
<path d="M118.541 104.471L110.167 109.329V126.264L118.541 121.438V104.471Z" fill="#F4B400"/>
<path d="M110.167 126.265L120.355 120.373V103.433L110.167 109.329V126.265Z" fill="#F4B400"/>
<path d="M111.366 110.015V124.192L119.156 119.677V105.505L111.366 110.015Z" fill="#F4B400"/>
<path d="M118.693 119.406V105.772L119.161 105.505V119.682L111.361 124.192V123.648L118.693 119.406Z" fill="#F4B400"/>
<path d="M111.366 116.13V117.083L119.156 112.154L118.693 111.891L111.366 116.13Z" fill="#F4B400"/>
<path d="M119.161 113.477V112.153L111.361 116.664V117.987L119.161 113.477Z" fill="#F4B400"/>
<path d="M118.693 119.405L119.161 119.682L111.361 124.192V123.648L118.693 119.405Z" fill="#F4B400"/>
<path d="M99.8227 118.366V104.738L99.3547 104.466V118.643L108.968 124.191V123.648L99.8227 118.366Z" fill="#F4B400"/>
<path d="M108.964 116.129L108.968 117.083L99.3593 111.115L99.8228 110.853L108.964 116.129Z" fill="#F4B400"/>
<path d="M99.3547 112.439V111.115L108.968 116.664V117.988L99.3547 112.439Z" fill="#F4B400"/>
<path d="M99.8227 118.367L99.3547 118.643L108.968 124.192V123.648L99.8227 118.367Z" fill="#F4B400"/>
<path d="M118.55 104.484L110.167 109.324L98.1604 102.393L106.53 97.5532L118.55 104.484Z" fill="#F4B400"/>
<path d="M98.1604 102.393L108.353 96.4971L120.355 103.432L110.167 109.328L98.1604 102.393Z" fill="#F4B400"/>
<path d="M110.167 107.943L100.558 102.394L108.353 97.8838L117.962 103.432L110.167 107.943Z" fill="#F4B400"/>
<path d="M108.358 98.4182L117.498 103.699L117.962 103.432L108.353 97.8789L100.554 102.394L101.031 102.665L108.358 98.4182Z" fill="#F4B400"/>
<path d="M105.897 105.504L105.068 105.028L113.255 100.709L113.251 101.244L105.897 105.504Z" fill="#F4B400"/>
<path d="M112.11 100.045L113.26 100.709L105.429 105.237L104.284 104.577L112.11 100.045Z" fill="#F4B400"/>
<path d="M108.358 98.4182L108.353 97.8789L100.554 102.394L101.031 102.665L108.358 98.4182Z" fill="#F4B400"/>
<path d="M118.127 107.854L118.122 109.106L117.547 109.431L117.552 108.183L117.262 108.344L117.841 107.118L118.416 107.689L118.127 107.854Z" fill="#2A2A2A"/>
<path d="M113.679 109.172L111.954 112.488L113.371 113.607L115.096 110.287L113.679 109.172Z" fill="#9A9A9A"/>
<path d="M116.812 108.437C116.788 108.522 116.758 108.605 116.723 108.687C116.689 108.77 116.642 108.849 116.585 108.918C116.53 108.979 116.47 109.036 116.406 109.088V109.832C116.531 109.77 116.634 109.774 116.652 109.832L116.032 110.193C116.086 110.081 116.169 109.986 116.273 109.917V109.177C116.228 109.181 116.183 109.181 116.139 109.177C116.112 109.175 116.086 109.167 116.063 109.155C116.039 109.143 116.018 109.126 116.001 109.106C115.964 109.062 115.936 109.012 115.916 108.958C115.879 108.854 115.866 108.743 115.876 108.633C115.874 108.595 115.874 108.556 115.876 108.517V108.473L116.348 108.21L116.821 107.947V107.978C116.823 108.008 116.823 108.037 116.821 108.067C116.842 108.19 116.839 108.315 116.812 108.437Z" fill="#2A2A2A"/>
<path d="M88.1059 131.612L76.0994 124.677V107.737L88.1059 114.672V131.612Z" fill="#F4B400"/>
<path d="M86.907 115.363V129.536L77.2982 123.987V109.814L86.907 115.363Z" fill="#F4B400"/>
<path d="M96.4801 109.814L88.1058 114.672V131.613L96.4801 126.781V109.814Z" fill="#F4B400"/>
<path d="M88.106 131.612L98.2941 125.716V108.775L88.106 114.672V131.612Z" fill="#F4B400"/>
<path d="M89.3048 115.362V129.535L97.0952 125.02V110.848L89.3048 115.362Z" fill="#F4B400"/>
<path d="M96.6361 124.748V111.115L97.0996 110.848V125.025L89.3003 129.535L89.3047 128.991L96.6361 124.748Z" fill="#F4B400"/>
<path d="M89.3048 121.473V122.427L97.0952 117.497L96.6317 117.234L89.3048 121.473Z" fill="#F4B400"/>
<path d="M97.0996 118.821V117.498L89.3003 122.012V123.336L97.0996 118.821Z" fill="#F4B400"/>
<path d="M96.6361 124.749L97.0996 125.025L89.3003 129.536L89.3047 128.992L96.6361 124.749Z" fill="#F4B400"/>
<path d="M77.7617 123.711V110.082L77.2982 109.814V123.987L86.907 129.536V128.992L77.7617 123.711Z" fill="#F4B400"/>
<path d="M86.907 121.474V122.427L77.2982 116.46L77.7617 116.197L86.907 121.474Z" fill="#F4B400"/>
<path d="M77.2982 117.783V116.459L86.907 122.013V123.336L77.2982 117.783Z" fill="#F4B400"/>
<path d="M77.7617 123.71L77.2982 123.986L86.907 129.535V128.991L77.7617 123.71Z" fill="#F4B400"/>
<path d="M96.4892 109.832L88.106 114.672L76.1039 107.737L84.4737 102.897L96.4892 109.832Z" fill="#F4B400"/>
<path d="M76.0994 107.738L86.292 101.841L98.2941 108.776L88.1059 114.672L76.0994 107.738Z" fill="#F4B400"/>
<path d="M88.1059 113.286L78.4971 107.738L86.292 103.228L95.9008 108.776L88.1059 113.286Z" fill="#F4B400"/>
<path d="M86.2964 103.762L95.4372 109.044L95.9008 108.776L86.292 103.228L78.4971 107.738L78.9695 108.01L86.2964 103.762Z" fill="#F4B400"/>
<path d="M83.8363 110.848L83.0118 110.371L91.1989 106.053L91.1945 106.588L83.8363 110.848Z" fill="#F4B400"/>
<path d="M90.0536 105.389L91.1989 106.053L83.3684 110.585L82.223 109.921L90.0536 105.389Z" fill="#F4B400"/>
<path d="M86.2964 103.762L86.292 103.228L78.4971 107.738L78.9695 108.01L86.2964 103.762Z" fill="#F4B400"/>
<path d="M96.0701 113.197L96.0657 114.449L95.4863 114.774L95.4907 113.527L95.201 113.691L95.7849 112.461L96.3554 113.032L96.0701 113.197Z" fill="#2A2A2A"/>
<path d="M91.6178 114.517L89.8931 117.832L91.3148 118.951L93.0351 115.631L91.6178 114.517Z" fill="#9A9A9A"/>
<path d="M94.751 113.781C94.732 113.867 94.7021 113.951 94.6619 114.03C94.6279 114.114 94.5813 114.192 94.5237 114.262C94.4688 114.325 94.4092 114.383 94.3455 114.436V115.176C94.4702 115.113 94.5728 115.118 94.5906 115.176L93.9756 115.532C94.0266 115.42 94.1085 115.324 94.2118 115.256V114.516C94.1673 114.52 94.1225 114.52 94.0781 114.516C94.052 114.515 94.0265 114.507 94.0035 114.495C93.9804 114.483 93.9602 114.466 93.9444 114.445C93.9045 114.403 93.8741 114.353 93.8552 114.298C93.8199 114.193 93.8077 114.082 93.8196 113.972C93.8154 113.934 93.8154 113.895 93.8196 113.857C93.8196 113.857 93.8196 113.816 93.8196 113.812L94.292 113.549L94.7644 113.286V113.317C94.7665 113.348 94.7665 113.38 94.7644 113.411C94.7816 113.534 94.777 113.659 94.751 113.781Z" fill="#2A2A2A"/>
<g style="mix-blend-mode:multiply">
<path d="M70.564 112.399V132.027L80.3867 126.367L80.4491 113.616L121.942 94.2424L121.91 102.443L185.393 65.8751V55.3081L70.564 112.399Z" fill="#F4B400"/>
</g>
<path d="M82.9315 121.973L82.0491 123.55L194.395 58.2675L195.278 56.7031L82.9315 121.973Z" fill="#262626"/>
<path d="M82.9315 121.973L70.564 110.417L182.91 45.1338L195.278 56.7036L82.9315 121.973Z" fill="#EDF2F6"/>
<path d="M82.9315 121.973L82.0491 123.551L70.564 112.4V110.417L82.9315 121.973Z" fill="#9D9B96"/>
<g style="mix-blend-mode:multiply">
<path d="M170.039 96.4978L158.581 103.107L154.057 106.071L152.101 111.089V107.435L140.152 114.263L138.182 118.358V111.232L170.529 92.5625V96.1012L170.039 96.4978Z" fill="#F7C947"/>
</g>
<path d="M28.3985 97.2826V105.617L17.8226 99.5333V91.2036L28.3985 97.2826Z" fill="#959595"/>
<path d="M19.3959 98.6237V93.9263L26.8298 98.1914V102.893L19.3959 98.6237Z" fill="url(#paint0_linear_299_6433)"/>
<path d="M20.4878 97.9956L19.3959 98.624L26.8298 102.894V101.632L20.4878 97.9956Z" fill="#CCCCCC"/>
<path d="M19.3958 92.1166V100.446L10.1168 95.0759V86.7417L19.3958 92.1166Z" fill="#959595"/>
<path d="M11.6901 94.1672V89.4697L17.8226 93.0218V97.7237L11.6901 94.1672Z" fill="url(#paint1_linear_299_6433)"/>
<path d="M12.782 93.5386L11.6901 94.167L17.8226 97.7235V96.4622L12.782 93.5386Z" fill="#CCCCCC"/>
<path d="M28.3985 90.8423V99.172L17.8226 93.093V84.7588L28.3985 90.8423Z" fill="#959595"/>
<path d="M19.3959 92.1838V87.4819L26.8298 91.7515V96.449L19.3959 92.1838Z" fill="url(#paint2_linear_299_6433)"/>
<path d="M20.4878 91.5508L19.3959 92.1836L26.8298 96.4488V95.1875L20.4878 91.5508Z" fill="#CCCCCC"/>
<path d="M19.3958 85.6722V94.0063L10.1168 88.6359V80.3018L19.3958 85.6722Z" fill="#959595"/>
<path d="M11.6901 87.7268V83.0249L17.8226 86.5814V91.2788L11.6901 87.7268Z" fill="url(#paint3_linear_299_6433)"/>
<path d="M12.782 87.0942L11.6901 87.7271L17.8226 91.2791V90.0179L12.782 87.0942Z" fill="#CCCCCC"/>
<path d="M43.5381 106.009V114.343L32.9578 108.259V99.9297L43.5381 106.009Z" fill="#959595"/>
<path d="M34.531 107.35V102.652L41.9649 106.917V111.619L34.531 107.35Z" fill="url(#paint4_linear_299_6433)"/>
<path d="M35.6229 106.722L34.531 107.35L41.9649 111.62V110.358L35.6229 106.722Z" fill="#CCCCCC"/>
<path d="M34.531 100.839V109.173L25.2565 103.803V95.4688L34.531 100.839Z" fill="#959595"/>
<path d="M26.8297 102.894V98.1919L32.9578 101.748V106.45L26.8297 102.894Z" fill="url(#paint5_linear_299_6433)"/>
<path d="M27.9172 102.261L26.8297 102.894L32.9578 106.45V105.184L27.9172 102.261Z" fill="#CCCCCC"/>
<path d="M43.5381 99.5688V107.899L32.9578 101.82V93.4854L43.5381 99.5688Z" fill="#959595"/>
<path d="M34.531 100.91V96.208L41.9649 100.478V105.175L34.531 100.91Z" fill="url(#paint6_linear_299_6433)"/>
<path d="M35.6229 100.277L34.531 100.91L41.9649 105.175V103.914L35.6229 100.277Z" fill="#CCCCCC"/>
<path d="M34.531 94.3982V102.728L25.2565 97.3575V89.0278L34.531 94.3982Z" fill="#959595"/>
<path d="M26.8297 96.4494V91.752L32.9578 95.3085V100.006L26.8297 96.4494Z" fill="url(#paint7_linear_299_6433)"/>
<path d="M27.9172 95.8203L26.8297 96.4487L32.9578 100.005V98.744L27.9172 95.8203Z" fill="#CCCCCC"/>
<path d="M58.1296 114.446V122.776L47.5537 116.696V108.362L58.1296 114.446Z" fill="#959595"/>
<path d="M49.1226 115.787V111.085L56.5564 115.355V120.052L49.1226 115.787Z" fill="url(#paint8_linear_299_6433)"/>
<path d="M50.2145 115.153L49.1226 115.786L56.5564 120.051V118.79L50.2145 115.153Z" fill="#CCCCCC"/>
<path d="M49.1226 109.276V117.605L39.848 112.235V103.905L49.1226 109.276Z" fill="#959595"/>
<path d="M41.4211 111.325V106.628L47.5537 110.184V114.882L41.4211 111.325Z" fill="url(#paint9_linear_299_6433)"/>
<path d="M42.513 110.697L41.4211 111.326L47.5537 114.882V113.621L42.513 110.697Z" fill="#CCCCCC"/>
<path d="M58.1296 108V116.335L47.5537 110.251V101.921L58.1296 108Z" fill="#959595"/>
<path d="M49.1226 109.342V104.645L56.5564 108.91V113.612L49.1226 109.342Z" fill="url(#paint10_linear_299_6433)"/>
<path d="M50.2145 108.714L49.1226 109.342L56.5564 113.612V112.351L50.2145 108.714Z" fill="#CCCCCC"/>
<path d="M49.1226 102.831V111.165L39.848 105.795V97.4604L49.1226 102.831Z" fill="#959595"/>
<path d="M41.4211 104.886V100.184L47.5537 103.741V108.442L41.4211 104.886Z" fill="url(#paint11_linear_299_6433)"/>
<path d="M42.513 104.257L41.4211 104.885L47.5537 108.442V107.18L42.513 104.257Z" fill="#CCCCCC"/>
<path d="M12.782 87.0939L11.6901 87.7268V83.0249L12.7731 83.6533L12.782 87.0939Z" fill="#BFBFBF"/>
<path d="M20.4878 91.551L19.3959 92.1838V87.4819L20.4789 88.1103L20.4878 91.551Z" fill="#BFBFBF"/>
<path d="M27.9172 95.821L26.8297 96.4494V91.752L27.9083 92.3804L27.9172 95.821Z" fill="#BFBFBF"/>
<path d="M35.623 100.277L34.5355 100.91V96.208L35.6141 96.8364L35.623 100.277Z" fill="#BFBFBF"/>
<path d="M42.513 104.258L41.4211 104.886V100.184L42.4997 100.812L42.513 104.258Z" fill="#BFBFBF"/>
<path d="M50.2144 108.714L49.127 109.342V104.645L50.2055 105.269L50.2144 108.714Z" fill="#BFBFBF"/>
<path d="M12.782 93.5388L11.6901 94.1672V89.4697L12.7731 90.0937L12.782 93.5388Z" fill="#BFBFBF"/>
<path d="M20.4878 97.9953L19.3959 98.6237V93.9263L20.4789 94.5547L20.4878 97.9953Z" fill="#BFBFBF"/>
<path d="M27.9172 102.261L26.8297 102.894V98.1919L27.9083 98.8203L27.9172 102.261Z" fill="#BFBFBF"/>
<path d="M35.623 106.722L34.5355 107.35V102.648L35.6141 103.277L35.623 106.722Z" fill="#BFBFBF"/>
<path d="M42.513 110.697L41.4211 111.33V106.628L42.4997 107.256L42.513 110.697Z" fill="#BFBFBF"/>
<path d="M50.2144 115.154L49.127 115.787V111.085L50.2055 111.713L50.2144 115.154Z" fill="#BFBFBF"/>
<defs>
<linearGradient id="paint0_linear_299_6433" x1="23.3312" y1="58.2008" x2="22.9435" y2="128.818" gradientUnits="userSpaceOnUse">
<stop offset="0.19"/>
<stop offset="0.94"/>
</linearGradient>
<linearGradient id="paint1_linear_299_6433" x1="14.9613" y1="56.5654" x2="14.6048" y2="121.599" gradientUnits="userSpaceOnUse">
<stop offset="0.19"/>
<stop offset="0.94"/>
</linearGradient>
<linearGradient id="paint2_linear_299_6433" x1="23.3312" y1="51.7565" x2="22.9435" y2="122.374" gradientUnits="userSpaceOnUse">
<stop offset="0.19"/>
<stop offset="0.94"/>
</linearGradient>
<linearGradient id="paint3_linear_299_6433" x1="14.9613" y1="50.1161" x2="14.6048" y2="115.158" gradientUnits="userSpaceOnUse">
<stop offset="0.19"/>
<stop offset="0.94"/>
</linearGradient>
<linearGradient id="paint4_linear_299_6433" x1="38.4708" y1="66.9269" x2="38.0831" y2="137.54" gradientUnits="userSpaceOnUse">
<stop offset="0.19"/>
<stop offset="0.94"/>
</linearGradient>
<linearGradient id="paint5_linear_299_6433" x1="30.0965" y1="65.2876" x2="29.74" y2="130.325" gradientUnits="userSpaceOnUse">
<stop offset="0.19"/>
<stop offset="0.94"/>
</linearGradient>
<linearGradient id="paint6_linear_299_6433" x1="38.4708" y1="60.4825" x2="38.0831" y2="131.1" gradientUnits="userSpaceOnUse">
<stop offset="0.19"/>
<stop offset="0.94"/>
</linearGradient>
<linearGradient id="paint7_linear_299_6433" x1="30.0965" y1="58.8432" x2="29.74" y2="123.885" gradientUnits="userSpaceOnUse">
<stop offset="0.19"/>
<stop offset="0.94"/>
</linearGradient>
<linearGradient id="paint8_linear_299_6433" x1="53.0623" y1="75.364" x2="52.6746" y2="145.977" gradientUnits="userSpaceOnUse">
<stop offset="0.19"/>
<stop offset="0.94"/>
</linearGradient>
<linearGradient id="paint9_linear_299_6433" x1="44.688" y1="73.7236" x2="44.3314" y2="138.761" gradientUnits="userSpaceOnUse">
<stop offset="0.19"/>
<stop offset="0.94"/>
</linearGradient>
<linearGradient id="paint10_linear_299_6433" x1="53.0623" y1="68.9196" x2="52.6746" y2="139.533" gradientUnits="userSpaceOnUse">
<stop offset="0.19"/>
<stop offset="0.94"/>
</linearGradient>
<linearGradient id="paint11_linear_299_6433" x1="44.688" y1="67.2797" x2="44.3314" y2="132.322" gradientUnits="userSpaceOnUse">
<stop offset="0.19"/>
<stop offset="0.94"/>
</linearGradient>
</defs>
</svg>
