<svg width="21" height="16" viewBox="0 0 21 16" fill="none" xmlns="http://www.w3.org/2000/svg">
<path d="M20.7779 4.608V12.75C20.7779 13.5801 20.4603 14.3788 19.8902 14.9822C19.3201 15.5856 18.5407 15.948 17.7119 15.995L17.5279 16H4.02789C3.19776 16.0001 2.39906 15.6824 1.79566 15.1123C1.19226 14.5422 0.829892 13.7628 0.782893 12.934L0.777893 12.75V4.608L10.4299 9.664C10.5373 9.72024 10.6567 9.74962 10.7779 9.74962C10.8991 9.74962 11.0185 9.72024 11.1259 9.664L20.7779 4.608ZM4.02789 2.36051e-08H17.5279C18.3335 -9.70147e-05 19.1104 0.298996 19.7079 0.839267C20.3055 1.37954 20.6811 2.12248 20.7619 2.924L10.7779 8.154L0.793893 2.924C0.871416 2.15431 1.22094 1.43752 1.77964 0.902463C2.33834 0.367409 3.06957 0.049187 3.84189 0.00500014L4.02789 2.36051e-08H17.5279H4.02789Z" fill="black"/>
</svg>
