<svg width="29" height="26" viewBox="0 0 29 26" fill="none" xmlns="http://www.w3.org/2000/svg">
<path d="M0.034179 15.2882C0.034179 13.9951 0.034179 12.702 0.034179 11.4015C0.026172 11.2771 0.0567186 11.1533 0.121454 11.0478C0.18619 10.9423 0.281802 10.8605 0.39463 10.814C6.38052 7.378 12.3772 3.93582 18.3847 0.487489C18.4938 0.410107 18.6233 0.368652 18.756 0.368652C18.8887 0.368652 19.0182 0.410107 19.1273 0.487489C19.686 0.827396 20.2555 1.14514 20.8286 1.46288C20.9272 1.50456 21.0099 1.57783 21.0645 1.67173C21.1191 1.76563 21.1425 1.87512 21.1314 1.98382C21.1115 2.31233 21.1115 2.64178 21.1314 2.97029C21.1377 3.03578 21.1574 3.09917 21.189 3.15643C21.2207 3.21369 21.2637 3.26354 21.3152 3.30281C22.5624 4.02696 23.8155 4.74126 25.0747 5.4457C25.1983 5.49725 25.3367 5.49725 25.4604 5.4457C25.7776 5.29053 26.0659 5.07624 26.3867 4.93584C26.5428 4.87113 26.7173 4.87113 26.8733 4.93584C27.5149 5.27205 28.1457 5.63413 28.7657 6.01468C28.8323 6.06229 28.8879 6.1244 28.9284 6.19657C28.9689 6.26874 28.9934 6.34919 29 6.43217C29 9.09601 29 11.7562 29 14.42C29 14.6971 28.8522 14.8153 28.6395 14.9372C24.0979 17.5383 19.5586 20.1344 15.0217 22.7256C13.5547 23.5642 12.084 24.4029 10.6242 25.2527C10.5185 25.3282 10.3927 25.3687 10.2638 25.3687C10.1349 25.3687 10.0091 25.3282 9.90332 25.2527C9.33741 24.9054 8.75709 24.584 8.17316 24.2625C8.07961 24.2234 8.00076 24.1546 7.94821 24.0661C7.89566 23.9777 7.87217 23.8743 7.88119 23.7711C7.89922 23.4216 7.89922 23.0714 7.88119 22.7219C7.87552 22.6649 7.85774 22.6099 7.82909 22.5608C7.80044 22.5116 7.76163 22.4695 7.71538 22.4374C6.45861 21.7132 5.19583 20.9952 3.92705 20.2834C3.81147 20.2353 3.68217 20.2353 3.5666 20.2834C3.2494 20.4423 2.96104 20.6529 2.64024 20.797C2.47582 20.8636 2.29281 20.8636 2.1284 20.797C1.50482 20.4718 0.899261 20.1024 0.28289 19.7625C0.192076 19.7195 0.116366 19.649 0.0660592 19.5604C0.0157529 19.4718 -0.00670594 19.3695 0.00173847 19.2674C0.00173847 17.941 0.00173847 16.622 0.00173847 15.2882H0.034179ZM20.2194 1.80648C19.7833 1.55524 19.3904 1.34465 19.0119 1.10819C18.9384 1.05406 18.8501 1.02494 18.7596 1.02494C18.6691 1.02494 18.5808 1.05406 18.5073 1.10819C13.6051 3.92843 8.70062 6.74129 3.79368 9.54676L0.942515 11.1835C1.39308 11.4495 1.80399 11.686 2.21851 11.9039C2.34087 11.9557 2.47823 11.9557 2.60059 11.9039C2.9286 11.7451 3.22777 11.5345 3.55578 11.3756C3.6933 11.3183 3.8472 11.3183 3.98472 11.3756C5.89511 12.4347 7.78868 13.5074 9.66542 14.5936C9.9646 14.7636 9.95739 15.0074 9.66542 15.1885C9.37346 15.3695 9.13196 15.4988 8.82918 15.6725C9.25811 15.9163 9.65821 16.1343 10.0439 16.3745C10.1178 16.4276 10.2059 16.456 10.2962 16.456C10.3865 16.456 10.4746 16.4276 10.5485 16.3745C16.0346 13.2217 21.5231 10.0739 27.0139 6.93095L28.1169 6.277C27.6483 6.01098 27.2194 5.75605 26.7832 5.53807C26.7336 5.52135 26.6813 5.51503 26.6293 5.51947C26.5773 5.52391 26.5266 5.53903 26.4804 5.56393C26.1488 5.73758 25.8352 5.9334 25.5 6.10704C25.3625 6.16434 25.2086 6.16434 25.0711 6.10704C23.1727 5.03806 21.2791 3.96169 19.3904 2.87792C19.0876 2.70428 19.0912 2.47151 19.3904 2.29048C19.6896 2.10944 19.9022 1.98751 20.2194 1.80648V1.80648ZM10.5702 24.5692C10.6927 24.5064 10.7684 24.4731 10.8405 24.4325C16.6077 21.1221 22.3749 17.8141 28.1421 14.5087C28.2192 14.4749 28.284 14.4171 28.3274 14.3435C28.3707 14.2699 28.3904 14.1842 28.3836 14.0986C28.3836 11.7635 28.3836 9.42853 28.3836 7.07874C28.3807 6.99466 28.3735 6.9108 28.362 6.8275C28.2863 6.86814 28.2394 6.88661 28.1962 6.91248C22.3881 10.2401 16.5813 13.5653 10.7756 16.888C10.7018 16.9207 10.6408 16.9777 10.6023 17.05C10.5638 17.1223 10.5499 17.2057 10.5629 17.287C10.5629 19.6221 10.5629 21.9534 10.5629 24.2884L10.5702 24.5692ZM8.98057 14.8855L4.09285 12.1071C4.08208 12.152 4.07484 12.1978 4.07123 12.2438C4.07123 14.6491 4.07123 17.0469 4.07123 19.4558C4.08139 19.5212 4.10537 19.5835 4.14148 19.6384C4.17759 19.6932 4.22497 19.7394 4.28029 19.7735C5.4085 20.4238 6.5259 21.0556 7.6505 21.7021C7.71899 21.7391 7.79468 21.7649 7.89201 21.813V21.425C7.89201 19.5777 7.91003 17.7304 7.89201 15.9089C7.87962 15.7834 7.90831 15.6572 7.97357 15.5502C8.03882 15.4431 8.13693 15.3614 8.25246 15.3178C8.48675 15.1922 8.70302 15.0481 8.98057 14.8855ZM8.55884 16.2193C8.53 16.2599 8.51919 16.2673 8.51919 16.2747C8.51919 18.7206 8.51919 21.1652 8.51919 23.6086C8.51883 23.6425 8.52538 23.6761 8.53841 23.7073C8.55144 23.7385 8.57068 23.7665 8.59488 23.7896C9.03463 24.0519 9.48159 24.3032 9.93576 24.5618C9.95056 24.5297 9.96262 24.4963 9.97181 24.462C9.97181 22.0384 9.98022 19.6147 9.99704 17.191C9.99214 17.1424 9.97663 17.0956 9.95167 17.054C9.92671 17.0125 9.89294 16.9772 9.85286 16.9508C9.42392 16.6996 9.01301 16.4668 8.55884 16.2193V16.2193ZM2.07793 20.095V19.7255C2.07793 17.5087 2.07793 15.2919 2.11758 13.0751C2.14872 12.9078 2.11945 12.7346 2.03523 12.5878C1.95101 12.441 1.81758 12.3306 1.65981 12.2771C1.31738 12.1256 1.00379 11.9076 0.668572 11.7229C0.646945 11.7857 0.639736 11.7968 0.639736 11.8042C0.639736 14.2377 0.633729 16.6713 0.621714 19.1048C0.621262 19.143 0.628741 19.1809 0.643655 19.2159C0.65857 19.251 0.680578 19.2824 0.708222 19.308C1.14437 19.5777 1.58412 19.8142 2.07793 20.095ZM2.6871 20.095C2.79423 20.0272 2.90493 19.9655 3.01871 19.9102C3.37916 19.7846 3.45846 19.5408 3.45486 19.1713C3.45486 16.9545 3.45486 14.7377 3.45486 12.5209V12.1182C3.31068 12.1921 3.21696 12.2586 3.11603 12.2956C2.75558 12.4249 2.67989 12.665 2.68349 13.0345C2.68349 15.2513 2.68349 17.4902 2.68349 19.7181L2.6871 20.095ZM20.5006 2.33481L20.0608 2.58235L20.5006 2.8225V2.33481Z" fill="black"/>
<path d="M13.0464 12.9681V13.0605C13.0464 13.2563 12.9635 13.4299 12.74 13.4299C12.5165 13.4299 12.4553 13.2821 12.4372 13.0826C12.414 12.9495 12.3765 12.8194 12.3255 12.6947C12.1819 12.7346 12.0448 12.7956 11.9182 12.8757C11.7715 12.996 11.652 13.1475 11.568 13.3197C11.4839 13.4919 11.4374 13.6808 11.4316 13.8733C11.4316 13.925 11.4532 13.9915 11.4316 14.0248C11.3379 14.143 11.2297 14.2464 11.1288 14.3536C11.0279 14.2464 10.8549 14.1467 10.8368 14.0248C10.818 13.6539 10.9013 13.285 11.0772 12.9603C11.2531 12.6356 11.5146 12.3682 11.8317 12.1885C12.4733 11.856 13.0212 12.2107 13.0464 12.9681Z" fill="black"/>
<path d="M5.83034 10.5404C5.85555 10.2336 5.9501 9.93695 6.10651 9.67403C6.26291 9.41111 6.47688 9.18912 6.73147 9.02563C6.86664 8.91509 7.03135 8.8492 7.20383 8.83667C7.37631 8.82413 7.54845 8.86554 7.69748 8.95543C7.84162 9.06218 7.95128 9.21073 8.01231 9.38194C8.07334 9.55316 8.08295 9.73918 8.0399 9.91604C8.00952 9.98052 7.96513 10.037 7.91015 10.0812C7.85517 10.1254 7.79105 10.1561 7.72271 10.171C7.64341 10.171 7.54248 10.001 7.44877 9.90495C7.44877 9.90495 7.44877 9.88279 7.44877 9.8754C7.40551 9.72761 7.35865 9.58352 7.3154 9.43943C7.14885 9.51051 6.99147 9.60234 6.84681 9.71283C6.71926 9.83164 6.61743 9.97654 6.54789 10.1382C6.47836 10.2998 6.44266 10.4746 6.44311 10.6513C6.44311 10.8877 6.41427 11.1168 6.1151 11.0983C5.81592 11.0799 5.81953 10.8508 5.83034 10.5404Z" fill="black"/>
<path d="M21.0015 8.03193C21.0279 7.73818 21.1192 7.45445 21.2685 7.20224C21.4177 6.95003 21.621 6.73595 21.863 6.57624C21.9995 6.45917 22.1677 6.38788 22.345 6.37202C22.5223 6.35617 22.7 6.3965 22.8542 6.48757C23.0017 6.59729 23.1132 6.75044 23.1737 6.92665C23.2342 7.10287 23.241 7.2938 23.1931 7.47404C23.169 7.53253 23.1315 7.58422 23.0838 7.62474C23.0362 7.66525 22.9797 7.6934 22.9191 7.7068C22.8254 7.7068 22.7173 7.57749 22.6308 7.49251C22.6019 7.46665 22.6308 7.39276 22.6091 7.34473C22.5731 7.2228 22.5334 7.10457 22.4974 6.97526C22.354 7.01401 22.2168 7.07373 22.0901 7.15261C21.9399 7.277 21.8177 7.43318 21.7319 7.61045C21.646 7.78772 21.5985 7.9819 21.5927 8.17972C21.5927 8.40878 21.5927 8.64894 21.2719 8.62677C20.9511 8.6046 20.9943 8.35336 21.0015 8.03193Z" fill="black"/>
<path d="M18.2693 4.0601C18.1972 4.1931 18.1576 4.37045 18.0458 4.45173C17.8548 4.58843 17.6529 4.42217 17.6205 4.14877C17.5925 4.01401 17.554 3.8818 17.5051 3.75344C17.3541 3.80159 17.2099 3.86991 17.0762 3.95665C16.9286 4.08227 16.81 4.23988 16.729 4.41813C16.648 4.59637 16.6065 4.79081 16.6076 4.98745C16.6076 5.21282 16.568 5.42342 16.2796 5.40495C15.9913 5.38647 15.9985 5.17957 16.0057 4.97267C16.0087 4.65077 16.0892 4.33462 16.2402 4.05231C16.3911 3.77 16.6077 3.53027 16.8708 3.35442C16.9975 3.24246 17.1533 3.17091 17.3192 3.14859C17.4851 3.12627 17.6537 3.15415 17.8043 3.2288C17.9458 3.31381 18.0631 3.43524 18.1447 3.58106C18.2262 3.72687 18.2692 3.89201 18.2693 4.0601Z" fill="black"/>
</svg>
