<svg width="40" height="41" viewBox="0 0 40 41" fill="none" xmlns="http://www.w3.org/2000/svg">
<path d="M0 30.8407V0.368652H30.48V5.06465H35.2V9.76065H40V40.3687H9.376V35.5127H4.68V30.8407H0ZM28.112 2.76865H2.4V28.4727H28.112V2.76865ZM35.144 12.1207V35.5687H11.744V37.9687H37.6V12.0967L35.144 12.1207ZM30.456 7.41665V30.8487H7.056V33.1687H32.8V7.41665H30.456Z" fill="#FCC006"/>
<path d="M7.01616 5.08057V7.36857H4.71216V5.08057H7.01616Z" fill="#FCC006"/>
<path d="M9.39233 7.37627V5.07227H11.6883V7.37627H9.39233Z" fill="#FCC006"/>
<path d="M14.0879 5.07227H16.3839V7.36827H14.0879V5.07227Z" fill="#FCC006"/>
<path d="M21.0721 7.38457H18.7761V5.08057H21.0721V7.38457Z" fill="#FCC006"/>
<path d="M25.7678 5.08887V7.37687H23.4558V5.08887H25.7678Z" fill="#FCC006"/>
<path d="M4.71997 9.76074H7.00797V12.0647H4.71997V9.76074Z" fill="#FCC006"/>
<path d="M11.704 9.76855V12.0646H9.40796V9.76855H11.704Z" fill="#FCC006"/>
<path d="M14.0879 9.76074H16.3839V12.0567H14.0879V9.76074Z" fill="#FCC006"/>
<path d="M21.0721 12.0726H18.7761V9.76855H21.0721V12.0726Z" fill="#FCC006"/>
<path d="M23.4641 9.75293H25.7521V12.0569H23.4641V9.75293Z" fill="#FCC006"/>
<path d="M7.01597 14.457V16.753H4.71997V14.457H7.01597Z" fill="#FCC006"/>
<path d="M9.39233 14.4487H11.6963V16.7527H9.39233V14.4487Z" fill="#FCC006"/>
<path d="M14.0801 16.753V14.457H16.3841V16.753H14.0801Z" fill="#FCC006"/>
<path d="M18.7678 14.4487H21.0638V16.7527H18.7678V14.4487Z" fill="#FCC006"/>
<path d="M25.7521 16.7607H23.4641V14.4487H25.7521V16.7607Z" fill="#FCC006"/>
<path d="M7.00016 21.4487H4.71216V19.1367H7.00016V21.4487Z" fill="#FCC006"/>
<path d="M9.39233 21.4327V19.1367H11.6883V21.4327H9.39233Z" fill="#FCC006"/>
<path d="M16.3839 21.4565H14.0959V19.1445H16.3839V21.4565Z" fill="#FCC006"/>
<path d="M21.0881 19.1445V21.4325H18.7761V19.1445H21.0881Z" fill="#FCC006"/>
<path d="M23.4641 19.1367H25.7601V21.4327H23.4641V19.1367Z" fill="#FCC006"/>
<path d="M7.01597 23.833V26.129H4.71997V23.833H7.01597Z" fill="#FCC006"/>
<path d="M9.39233 26.1207V23.8247H11.6883V26.1207H9.39233Z" fill="#FCC006"/>
<path d="M14.0801 26.121V23.833H16.3841V26.121H14.0801Z" fill="#FCC006"/>
<path d="M21.0719 26.145H18.7839V23.833H21.0719V26.145Z" fill="#FCC006"/>
<path d="M25.7601 26.129H23.4641V23.833H25.7601V26.129Z" fill="#FCC006"/>
</svg>
