<svg width="41" height="37" viewBox="0 0 41 37" fill="none" xmlns="http://www.w3.org/2000/svg">
<path d="M0 22.4492H7.47023C7.74083 23.5357 7.92943 24.5721 8.29024 25.575C8.88632 27.4109 9.89105 29.0814 11.2258 30.4559C11.417 30.6169 11.5544 30.8344 11.619 31.0785C11.6837 31.3225 11.6724 31.581 11.5866 31.8181C11.5073 32.0197 11.3871 32.202 11.234 32.353C10.0778 33.5482 8.92164 34.7266 7.75723 35.905C7.64434 36.0496 7.50092 36.1663 7.33765 36.2465C7.17439 36.3267 6.99548 36.3684 6.81423 36.3684C6.63298 36.3684 6.45407 36.3267 6.2908 36.2465C6.12754 36.1663 5.98412 36.0496 5.87122 35.905C2.80306 32.7568 0.808152 28.6873 0.180401 24.2963C0.1148 23.8449 0.0574002 23.3936 0 22.934V22.4492Z" fill="#FCC006"/>
<path d="M0 19.5159C0.131201 18.6801 0.237801 17.8025 0.401802 16.9501C1.10594 13.4496 2.69445 10.1971 5.01022 7.51426C5.04852 7.46332 5.08411 7.41031 5.11682 7.35547L10.4714 12.8381C8.82192 14.8754 7.81065 17.3707 7.56863 20.0006H0V19.5159Z" fill="#FCC006"/>
<path d="M16.7118 21.5469C16.6708 20.7247 16.8805 19.9097 17.3122 19.2139C17.7438 18.518 18.3763 17.9754 19.1227 17.6606C19.8226 17.3753 20.5919 17.317 21.3256 17.4934C22.0593 17.6699 22.7217 18.0727 23.2227 18.6468C24.1465 19.7513 25.0141 20.9034 25.8221 22.0985C27.7081 24.9234 29.5367 27.7901 31.3981 30.6401C31.558 30.8423 31.6518 31.0904 31.6665 31.3496C31.6812 31.6089 31.6161 31.8663 31.4801 32.0859C31.3646 32.2881 31.191 32.4494 30.9828 32.548C30.7747 32.6466 30.5418 32.6779 30.3157 32.6376C30.1327 32.6091 29.9571 32.5437 29.7991 32.4453C26.1009 30.0132 22.4191 27.6062 18.8849 24.9234C18.5475 24.6632 18.2244 24.3842 17.9173 24.0877C17.5592 23.7684 17.268 23.3788 17.0609 22.9423C16.8538 22.5058 16.7351 22.0312 16.7118 21.5469Z" fill="#FCC006"/>
<path d="M21.7052 0.368652C26.2689 0.625976 30.609 2.46618 34.0053 5.58383L28.6999 11.033C26.7072 9.35853 24.2681 8.33092 21.697 8.08277L21.7052 0.368652Z" fill="#FCC006"/>
<path d="M40.9509 19.9837H33.3823C33.1386 17.3593 32.1273 14.8699 30.4795 12.8379L35.8259 7.38037C38.8763 10.8745 40.6819 15.3147 40.9509 19.9837Z" fill="#FCC006"/>
<path d="M19.2455 8.08277C16.6972 8.33507 14.2798 9.35319 12.3001 11.0079L6.93726 5.54204C10.3553 2.4605 14.6899 0.638588 19.2455 0.368652V8.08277Z" fill="#FCC006"/>
<path d="M33.374 22.4663H41.0001C40.8443 23.5444 40.7377 24.5892 40.5245 25.6171C39.7291 29.4961 37.8495 33.0575 35.1125 35.872C34.996 36.0263 34.8464 36.1513 34.6751 36.2373C34.5038 36.3233 34.3153 36.368 34.1243 36.368C33.9334 36.368 33.7449 36.3233 33.5736 36.2373C33.4023 36.1513 33.2527 36.0263 33.1362 35.872C32.7754 35.5126 32.4064 35.1616 32.0046 34.7771L32.3408 34.5682C32.7444 34.3209 33.096 33.9948 33.3756 33.6087C33.6551 33.2225 33.8571 32.7838 33.9699 32.3179C34.0826 31.8519 34.104 31.3679 34.0327 30.8935C33.9614 30.4191 33.7989 29.9638 33.5544 29.5536C33.128 28.8181 32.6442 28.1161 32.2096 27.3806C32.1739 27.3165 32.1511 27.2458 32.1427 27.1726C32.1342 27.0994 32.1403 27.0252 32.1604 26.9544C32.8166 25.5412 33.2273 24.0226 33.374 22.4663Z" fill="#FCC006"/>
</svg>
