<svg width="41" height="53" viewBox="0 0 41 53" fill="none" xmlns="http://www.w3.org/2000/svg">
<path d="M20.7869 0.368652C23.1462 2.23468 25.9136 3.51873 28.8639 4.11638C32.2838 4.80895 35.8346 4.43175 39.0318 3.03625C40.3356 2.47982 40.9998 2.87259 40.9998 4.32095C40.9506 12.5038 40.926 20.6866 40.9998 28.8121C41.011 30.8383 40.442 32.8256 39.3598 34.5401C36.9855 38.3703 34.0876 41.8515 30.7499 44.8832C27.8316 47.6233 24.6355 50.053 21.2133 52.1331C21.0009 52.2862 20.7455 52.3687 20.4835 52.3687C20.2215 52.3687 19.9661 52.2862 19.7537 52.1331C13.381 48.2758 7.82412 43.2142 3.39479 37.2322C2.002 35.51 0.922409 33.5575 0.205004 31.4634C0.0684052 31.0151 -0.000682364 30.549 5.07996e-06 30.0805C5.07996e-06 21.3903 5.07996e-06 12.7029 5.07996e-06 4.01819C5.07996e-06 2.88896 0.598603 2.50437 1.64 2.93806C7.92117 5.49928 13.8169 4.79556 19.3601 0.957815L20.1801 0.368652H20.7869ZM35.9323 19.4755C35.9323 16.3388 35.9323 13.2048 35.9323 10.0735C35.9484 9.87195 35.9484 9.66946 35.9323 9.46794C35.9261 9.33411 35.8897 9.20339 35.8259 9.08549C35.7622 8.9676 35.6726 8.86555 35.5639 8.78694C35.4552 8.70833 35.3301 8.65516 35.198 8.6314C35.0658 8.60763 34.93 8.61387 34.8007 8.64966C34.459 8.74238 34.1247 8.85999 33.8003 9.00152C31.181 10.0249 28.2931 10.1401 25.6003 9.32884C24.1534 8.90008 22.7894 8.23059 21.5659 7.34859C20.6639 6.70215 20.5081 6.70215 19.5897 7.34859C19.3355 7.52862 19.0895 7.70046 18.8271 7.85593C17.0447 8.99389 15.009 9.67648 12.8996 9.84345C10.7902 10.0104 8.67209 9.65663 6.73218 8.81332C5.60058 8.3469 5.02658 8.73149 5.02658 9.93436C5.02658 16.2679 5.02658 22.6014 5.02658 28.9349C5.03017 29.5602 5.16129 30.1783 5.41198 30.7514C5.82947 31.7147 6.33451 32.6378 6.92078 33.5091C10.3055 38.4469 14.7159 42.5997 19.8521 45.6851C20.0567 45.8212 20.299 45.8897 20.5448 45.8809C20.7905 45.8721 21.0272 45.7864 21.2215 45.636C23.755 44.0864 26.121 42.2793 28.2817 40.2435C30.7756 37.9655 32.9393 35.3519 34.7105 32.478C35.5521 31.1594 35.9856 29.6224 35.9569 28.0593C35.8749 25.2035 35.9323 22.3395 35.9323 19.4755Z" fill="#FCC006"/>
<path d="M34.0135 11.0065V11.6448C34.0135 17.1027 34.0135 22.5606 34.0135 28.0104C34.0241 29.2642 33.6585 30.4924 32.9639 31.5372C29.8401 36.3794 25.6853 40.4752 20.7952 43.5332C20.6993 43.5795 20.5942 43.6036 20.4877 43.6036C20.3812 43.6036 20.276 43.5795 20.1802 43.5332C15.2572 40.5195 11.085 36.4287 7.97864 31.5699C7.28175 30.5262 6.916 29.2972 6.92905 28.0431C6.99465 22.5852 6.92905 17.1354 6.92905 11.6775V11.0065C7.55225 11.162 8.11804 11.3256 8.69204 11.4484C10.6135 11.8763 12.6018 11.9128 14.5378 11.5557C16.4738 11.1986 18.3176 10.4551 19.9588 9.36994C20.1042 9.25374 20.285 9.19043 20.4713 9.19043C20.6576 9.19043 20.8384 9.25374 20.9838 9.36994C22.8005 10.5705 24.8619 11.3533 27.0188 11.6618C29.1757 11.9703 31.3744 11.7968 33.4559 11.1538L34.0135 11.0065Z" fill="#FCC006"/>
</svg>
