<svg width="30" height="31" viewBox="0 0 30 31" fill="none" xmlns="http://www.w3.org/2000/svg">
<path d="M30 0.789503V19.885C29.9778 19.9037 29.958 19.9252 29.9413 19.949C29.8825 20.0734 29.7821 20.1733 29.6576 20.2317C29.533 20.2901 29.392 20.3033 29.2588 20.269C29.1224 20.2276 29.0047 20.1401 28.9259 20.0213C28.8471 19.9026 28.812 19.7601 28.8269 19.6184C28.8162 19.4141 28.8162 19.2095 28.8269 19.0052C28.841 18.7617 28.7629 18.5218 28.6082 18.3333C27.3199 16.545 26.1734 14.6587 25.1795 12.6916C24.496 11.4198 24.0037 10.0542 23.7184 8.63888C23.5264 7.46574 23.4251 6.27127 23.1851 5.10879C22.9452 3.94632 22.5772 2.73585 22.2626 1.55204H19.6497H19.4951C19.7244 2.21327 19.975 2.8585 20.1829 3.51439C20.3619 4.01771 20.4298 4.5538 20.3819 5.08585C20.3341 5.61789 20.1716 6.13326 19.9057 6.59655C18.8392 8.42025 16.7595 8.61755 15.3997 7.01781C14.9891 6.53789 14.6265 6.01531 14.2373 5.50873C13.2614 4.2556 12.2696 2.98648 11.2991 1.72802C11.205 1.62615 11.0749 1.56495 10.9365 1.55738C9.678 1.55738 8.41954 1.55738 7.15575 1.55738C7.0805 1.56342 7.00571 1.57411 6.93178 1.58937C7.04376 1.68536 7.11842 1.74935 7.18774 1.81867C8.38621 2.95218 9.44914 4.2209 10.3552 5.59938C10.769 6.20162 11.0241 6.89859 11.0968 7.62567C11.1695 8.35276 11.0575 9.08644 10.7712 9.7587C10.4192 10.6226 10.0513 11.4811 9.70466 12.3503C9.15088 13.589 8.97825 14.9645 9.20874 16.3016C9.41844 17.1144 9.7302 17.8974 10.1366 18.6319C11.7271 21.8436 12.5607 25.377 12.5735 28.9609C12.5688 29.039 12.5688 29.1174 12.5735 29.1955C13.7253 29.1955 14.8558 29.1955 15.9863 29.1955C16.0666 29.2044 16.1475 29.1855 16.2155 29.1418C16.2835 29.0981 16.3344 29.0323 16.3596 28.9555C17.1245 27.3307 17.4183 25.5239 17.2074 23.7404C17.0322 22.1792 16.7381 20.6336 16.3276 19.1172C15.9897 17.9124 15.8493 16.6608 15.9116 15.4111C15.9756 14.6432 16.0236 13.8754 16.0823 13.1075C16.0941 12.9275 16.1227 12.749 16.1676 12.5742C16.3054 12.1199 16.584 11.7212 16.9632 11.4355C17.3424 11.1498 17.8025 10.992 18.2772 10.9849C18.7519 10.9778 19.2166 11.1217 19.6042 11.3959C19.9918 11.67 20.2822 12.0603 20.4336 12.5102C21.3073 15.0262 22.4686 17.4328 23.8943 19.6824C25.0772 21.6353 26.5518 23.3958 28.2669 24.9029C28.4323 25.0469 28.6082 25.1802 28.8002 25.3508C28.8002 25.1695 28.8002 25.0575 28.8002 24.9402C28.8125 24.7908 28.882 24.6518 28.9943 24.5525C29.1066 24.4531 29.2529 24.401 29.4028 24.407C29.6854 24.407 29.8294 24.6043 29.968 24.8122V30.3687H0.420851C0.280118 30.2915 0.165462 30.1743 0.0914152 30.0319C0.0173684 29.8895 -0.0127355 29.7283 0.00491903 29.5688C0.00491903 20.1054 0.00491903 10.6386 0.00491903 1.16811C0.00491903 0.560207 0.191555 0.373571 0.799455 0.373571H29.2001C29.3597 0.355917 29.5208 0.386021 29.6632 0.460068C29.8056 0.534114 29.9228 0.64877 30 0.789503V0.789503ZM11.3577 29.1688C11.4165 28.0999 11.3646 27.0277 11.2031 25.9694C10.8116 23.3911 10.0048 20.8934 8.81414 18.5733C8.32551 17.6714 8.03301 16.6764 7.95582 15.6536C7.87863 14.6308 8.01848 13.6032 8.36621 12.6382C8.73415 11.6037 9.16075 10.5852 9.59801 9.57739C9.87145 8.99165 9.97829 8.34191 9.9068 7.69945C9.83531 7.05699 9.58826 6.44663 9.19274 5.93533C8.05552 4.35869 6.74238 2.91674 5.27872 1.63736C5.23079 1.59158 5.16876 1.56339 5.10275 1.55738H3.11374C3.19906 1.69069 3.25772 1.77601 3.30571 1.86666C3.88162 2.87983 4.49485 3.877 5.0121 4.92216C5.3522 5.56661 5.55095 6.27618 5.59509 7.00353C5.63923 7.73089 5.52774 8.45929 5.26806 9.14013C4.72597 10.5641 4.36759 12.0514 4.20156 13.5661C3.93324 15.6373 4.33104 17.7403 5.33738 19.5704C5.75864 20.3276 6.27056 21.0315 6.71848 21.7781C7.87077 23.6396 8.62262 25.7208 8.92612 27.8891C8.97945 28.321 9.01677 28.7582 9.05943 29.1955L11.3577 29.1688ZM7.86496 29.1688C7.81138 28.0075 7.6052 26.8583 7.25173 25.7507C6.67644 24.0403 5.85361 22.4234 4.80946 20.9515C3.27294 18.635 2.65856 15.8274 3.08708 13.0808C3.30524 11.5365 3.68412 10.0192 4.21756 8.55356C4.51889 7.68549 4.49234 6.73718 4.14291 5.88733C3.54597 4.45205 2.78551 3.09039 1.87661 1.82933C1.81016 1.71153 1.70367 1.62146 1.57648 1.57547C1.44928 1.52949 1.30981 1.53063 1.18339 1.57871V1.94131C1.18339 8.17674 1.18339 14.4122 1.18339 20.6476C1.17719 20.7615 1.19593 20.8754 1.2383 20.9813C1.28067 21.0872 1.34564 21.1826 1.42869 21.2608C3.02176 22.7717 4.34383 24.5447 5.33738 26.5026C5.74798 27.3611 6.05193 28.2677 6.40387 29.1688H7.86496ZM28.7949 29.1688C28.7974 29.1387 28.7974 29.1084 28.7949 29.0782C28.7949 28.545 28.7629 27.9797 28.7949 27.4411C28.8223 27.2305 28.7862 27.0164 28.6912 26.8264C28.5962 26.6364 28.4466 26.4791 28.2616 26.3746C26.1736 24.7729 24.4001 22.7987 23.0305 20.5516C21.4928 18.1661 20.24 15.6087 19.2978 12.9315C19.2282 12.6854 19.0726 12.4725 18.8592 12.3315C18.6458 12.1906 18.3889 12.131 18.1353 12.1636C17.8665 12.2071 17.6245 12.3517 17.459 12.5679C17.2934 12.784 17.2168 13.0553 17.2448 13.3261C17.2518 13.6824 17.234 14.0388 17.1914 14.3926C16.984 15.7161 17.0365 17.0673 17.3461 18.3706C17.8272 20.1186 18.1713 21.9015 18.3752 23.7031C18.5662 25.4869 18.3172 27.2903 17.65 28.9555C17.618 29.0302 17.5967 29.1102 17.57 29.1902H20.5455C20.5455 29.1209 20.5455 29.0729 20.5722 29.0249C20.5722 28.7636 20.6202 28.4916 20.6255 28.2357C20.6228 26.6443 20.4149 25.0599 20.007 23.5218C19.7243 22.4073 19.3937 21.3088 19.0738 20.205C18.992 20.0045 18.9732 19.7838 19.0199 19.5723C19.0666 19.3609 19.1765 19.1686 19.3351 19.0212C19.455 18.9033 19.601 18.8155 19.7613 18.7648C19.9217 18.7141 20.0917 18.7021 20.2575 18.7297C20.4234 18.7572 20.5804 18.8236 20.7157 18.9234C20.851 19.0231 20.9608 19.1535 21.0361 19.3038C22.012 20.9675 22.9665 22.6473 23.9743 24.295C24.9752 25.9465 26.0962 27.522 27.3284 29.0089C27.3992 29.1068 27.5037 29.1752 27.6217 29.2008C28.0057 29.2062 28.3949 29.1955 28.8002 29.1955L28.7949 29.1688ZM23.4677 1.56271L23.5531 1.85599C24.1011 3.49299 24.4816 5.18136 24.6889 6.89517C24.7724 8.00329 24.9964 9.09631 25.3554 10.148C26.2463 12.3535 27.3765 14.4546 28.7255 16.4136L28.8215 16.5256C28.8248 16.4741 28.8248 16.4224 28.8215 16.3709C28.8215 15.3045 28.8215 14.238 28.8215 13.1715C28.8136 13.0465 28.779 12.9247 28.7202 12.8142C27.381 10.1041 26.3094 7.2698 25.5207 4.35159C25.2914 3.4344 25.0675 2.50655 24.8168 1.56271H23.4677ZM12.8028 1.56271C13.8 2.92249 14.7652 4.2556 15.7463 5.57805C16.0143 5.94979 16.3198 6.29288 16.6582 6.60188C16.7822 6.72135 16.929 6.81467 17.0898 6.8763C17.2506 6.93793 17.4221 6.96661 17.5943 6.96064C17.7664 6.95467 17.9355 6.91417 18.0917 6.84155C18.2478 6.76893 18.3878 6.66567 18.5032 6.53789C18.7824 6.28164 18.9926 5.95934 19.1147 5.60061C19.2368 5.24188 19.2667 4.85822 19.2018 4.4849C19.0209 3.55872 18.7141 2.66166 18.2899 1.81867C18.2651 1.73221 18.2099 1.65763 18.1344 1.60864C18.059 1.55965 17.9684 1.53955 17.8793 1.55204C16.3916 1.55204 14.8985 1.55204 13.4054 1.55204L12.8028 1.56271ZM5.09208 29.1688C4.39887 26.6466 2.9591 24.6096 1.19939 22.6899V29.1688H5.09208ZM20.5562 20.8502C21.2814 23.5911 21.9746 26.316 21.74 29.1688H25.958C23.9587 26.5305 22.1483 23.7543 20.5402 20.8609L20.5562 20.8502ZM26.038 1.56271C26.7036 4.49515 27.628 7.3628 28.8002 10.132V1.56271H26.038Z" fill="black"/>
<path d="M30 22.5193L29.8987 22.6579C29.8294 22.7631 29.7278 22.8429 29.6093 22.8854C29.4907 22.9278 29.3615 22.9306 29.2413 22.8933C29.121 22.856 29.016 22.7807 28.9423 22.6786C28.8685 22.5765 28.8299 22.4532 28.8322 22.3273C28.8289 22.2048 28.868 22.0849 28.9428 21.9877C29.0176 21.8906 29.1235 21.8222 29.2428 21.7941C29.3627 21.7485 29.495 21.7477 29.6155 21.7917C29.736 21.8358 29.8365 21.9218 29.8987 22.034C29.936 22.0767 29.9627 22.1247 30 22.1727V22.5193Z" fill="black"/>
<path d="M15.2397 13.4221C15.1576 13.851 15.0508 14.2747 14.9198 14.6912C14.5677 15.5739 14.5734 16.559 14.9358 17.4374C15.4867 18.7472 15.7189 20.1691 15.613 21.5861C15.5817 21.9952 15.5211 22.4015 15.4317 22.8019C15.3944 23.0021 15.3098 23.1906 15.185 23.3516C15.0602 23.5126 14.8988 23.6414 14.7142 23.7275C14.5296 23.8135 14.3271 23.8543 14.1236 23.8463C13.92 23.8384 13.7213 23.782 13.544 23.6818C13.409 23.6161 13.2909 23.5204 13.1984 23.4021C13.106 23.2839 13.0418 23.146 13.0107 22.9992C12.5859 21.2355 11.9764 19.5214 11.1924 17.8854C10.6741 16.9015 10.4292 15.7966 10.4832 14.6859C10.6111 13.4488 11.0591 12.3609 12.2375 11.7637C12.6168 11.5534 13.0512 11.4637 13.4828 11.5065C13.9144 11.5494 14.3226 11.7228 14.6531 12.0037C14.8473 12.1839 15.0002 12.404 15.1014 12.6488C15.2027 12.8936 15.2498 13.1574 15.2397 13.4221V13.4221ZM14.1732 22.7272C14.2303 22.6376 14.2752 22.5408 14.3065 22.4393C14.3599 21.8794 14.4345 21.3141 14.4398 20.7542C14.4064 19.6899 14.1749 18.641 13.7573 17.6614C13.4446 16.8862 13.3776 16.0337 13.5653 15.2191C13.6773 14.7286 13.8533 14.254 13.9759 13.7634C14.0452 13.4701 14.1199 13.1448 13.8479 12.9102C13.7118 12.7969 13.5462 12.7248 13.3706 12.7021C13.195 12.6795 13.0165 12.7072 12.8561 12.7822C12.6341 12.8668 12.4337 12.9998 12.2695 13.1715C11.8812 13.6178 11.6523 14.1806 11.619 14.7712C11.5916 15.6032 11.775 16.4287 12.1522 17.1708C12.9652 18.8834 13.6151 20.6688 14.0932 22.5033C14.1085 22.5801 14.1317 22.6552 14.1626 22.7272H14.1732Z" fill="black"/>
</svg>
