<svg width="28" height="33" viewBox="0 0 28 33" fill="none" xmlns="http://www.w3.org/2000/svg">
<path d="M14.4496 0.368652L18.9029 2.86699C19.6253 3.26749 20.3527 3.65368 21.0603 4.07325C21.2862 4.21069 21.4759 4.39674 21.6145 4.61679C23.0643 7.04361 24.524 9.42752 25.9243 11.883C26.1432 12.3788 26.2785 12.9051 26.3251 13.442C26.8859 16.6651 27.4351 19.8913 27.9728 23.1207C28.0184 23.376 28.0066 23.6378 27.9382 23.8883C27.4137 25.7955 26.8694 27.6597 26.335 29.5525C26.3041 29.7053 26.2262 29.8457 26.1115 29.9553C25.9968 30.065 25.8506 30.1389 25.6917 30.1676C22.6684 30.8875 19.655 31.5979 16.6317 32.3369C16.4141 32.3862 16.1868 32.378 15.9736 32.3131C12.0514 30.9908 8.1292 29.6622 4.20698 28.3272C4.07829 28.2891 3.96022 28.2234 3.86166 28.1351C3.76311 28.0467 3.68662 27.938 3.63795 27.817C2.47019 25.1614 1.24306 22.4866 0.0654012 19.8118C-0.0218004 19.5923 -0.0218004 19.3496 0.0654012 19.1301C1.73787 14.9979 3.42683 10.8849 5.13228 6.79092C5.20479 6.61871 5.32451 6.46874 5.47865 6.35704C8.2397 4.41177 11.0107 2.47285 13.7915 0.540294C13.8756 0.478312 13.9696 0.425866 14.0587 0.368652H14.4496ZM15.2166 21.4472C15.3749 19.8977 15.5283 18.391 15.6767 16.8892C15.9093 14.6006 16.1468 12.3073 16.3645 10.014C16.375 9.8549 16.3297 9.69705 16.2359 9.56579C15.5778 8.68851 14.8999 7.82077 14.2269 6.95302C14.0439 6.72417 13.8657 6.47624 13.6727 6.25215L13.3363 6.47624C12.312 7.19141 11.2927 7.90659 10.2585 8.61223C10.1695 8.66774 10.0965 8.74408 10.0463 8.83411C9.99611 8.92415 9.9704 9.02496 9.97155 9.12715C9.92701 9.77081 9.86764 10.4145 9.79836 11.0581C9.74888 11.5349 9.46684 11.7495 9.06109 11.7018C8.65535 11.6541 8.47721 11.3633 8.5168 10.9246C8.57123 10.3096 8.61576 9.69929 8.68009 9.08424C8.69797 9.00967 8.68462 8.9313 8.64294 8.86615C8.60126 8.801 8.5346 8.7543 8.45742 8.73619C7.80427 8.46919 7.15112 8.18789 6.47817 7.91135L6.10211 7.75402C6.07243 7.82077 6.05758 7.8446 6.04274 7.87321C4.49892 11.6684 2.95016 15.462 1.39645 19.254C1.3422 19.3939 1.3422 19.548 1.39645 19.6879C2.3069 21.7476 3.2322 23.7978 4.15255 25.8527C4.18719 25.9337 4.23172 26.0148 4.29605 26.134C4.35048 26.0339 4.39006 25.9767 4.41975 25.9147C5.50174 23.7278 6.58208 21.5378 7.66077 19.3446C7.70999 19.2407 7.74012 19.1294 7.74984 19.0156C7.82901 18.248 7.88839 17.4804 7.97251 16.7128C7.97354 16.6233 7.99453 16.535 8.03404 16.454C8.07356 16.373 8.13067 16.3012 8.20153 16.2433C8.27238 16.1854 8.35531 16.1429 8.44471 16.1186C8.53411 16.0943 8.62788 16.0888 8.71967 16.1025C8.81084 16.1147 8.89836 16.1452 8.97666 16.1918C9.05496 16.2385 9.12232 16.3003 9.17445 16.3734C9.22658 16.4465 9.26234 16.5293 9.27946 16.6164C9.29658 16.7036 9.29467 16.7932 9.27386 16.8796C9.22438 17.4947 9.17985 18.105 9.11552 18.7152C9.09751 18.7904 9.11072 18.8694 9.15232 18.9353C9.19393 19.0013 9.26063 19.0489 9.33819 19.0681C10.2734 19.44 11.2036 19.8309 12.1388 20.2123L15.2166 21.4472ZM17.6906 10.2857C17.6722 10.3258 17.6573 10.3672 17.6461 10.4097C17.4927 11.8877 17.3443 13.3705 17.1909 14.8533C16.9583 17.1657 16.7208 19.4781 16.4981 21.7953C16.471 22.0594 16.51 22.3259 16.6119 22.5724C17.2107 23.8979 17.844 25.2138 18.4526 26.5345C18.4871 26.625 18.5438 26.7062 18.6179 26.7709C18.692 26.8357 18.7813 26.8822 18.8782 26.9064C20.7634 27.4404 22.6437 27.9887 24.5289 28.5322C24.6032 28.5322 24.6823 28.5608 24.7813 28.5799C24.7813 28.5036 24.7813 28.4655 24.7516 28.4273C23.9863 25.1979 23.221 21.9701 22.4557 18.7439C21.8421 16.1359 21.2236 13.5279 20.6199 10.9199C20.5655 10.6958 20.4715 10.5861 20.2191 10.5718C19.8777 10.5718 19.5313 10.4907 19.1899 10.4526L17.6906 10.2857ZM5.18671 27.3307L15.9489 30.9781C16.4437 29.7957 16.894 28.6514 17.3393 27.5024C17.37 27.3653 17.3508 27.2221 17.2849 27.0971C16.6614 25.7573 16.0379 24.4176 15.3947 23.0873C15.3177 22.9327 15.1861 22.8093 15.0236 22.7393C13.1433 21.9574 11.2564 21.1754 9.36293 20.3935L8.71967 20.1408C7.54202 22.5581 6.37426 24.923 5.18671 27.3307ZM21.7134 7.30584C21.7134 8.20219 21.7134 9.08901 21.7134 9.97582C21.719 10.0469 21.7323 10.1172 21.753 10.1856C22.6734 14.0857 23.5954 17.9842 24.519 21.8811C24.9099 23.5308 25.3008 25.1852 25.7016 26.8682C25.7333 26.8259 25.7614 26.7813 25.7858 26.7347C26.0876 25.6715 26.3944 24.6083 26.6913 23.5451C26.7133 23.4332 26.7133 23.3184 26.6913 23.2065C26.1618 20.1027 25.6225 17.0084 25.1128 13.895C24.9978 13.0416 24.7013 12.2204 24.2419 11.4825C23.4255 10.2047 22.6833 8.88399 21.9064 7.58237C21.8372 7.48702 21.7679 7.39643 21.7134 7.30584V7.30584ZM20.2834 9.32263C20.2834 7.93043 20.2834 6.5859 20.2834 5.24137C20.2834 5.14601 20.1498 5.01728 20.0509 4.9553L15.1028 2.18519L14.8059 2.03739C14.7069 3.0291 14.6079 3.97313 14.5337 4.89809C14.5272 5.07953 14.581 5.25824 14.6871 5.40825C15.3848 6.3332 16.1419 7.22479 16.8 8.17359C16.9614 8.45684 17.1993 8.69277 17.4885 8.85644C17.7777 9.0201 18.1074 9.1054 18.4427 9.10331C19.0598 9.14616 19.6742 9.21936 20.2834 9.32263V9.32263ZM13.455 2.31869L7.067 6.77661C7.80427 7.09606 8.48216 7.39166 9.16995 7.6682C9.22322 7.67961 9.27834 7.68042 9.33194 7.67058C9.38555 7.66074 9.4365 7.64046 9.48168 7.61098C10.6692 6.79727 11.8518 5.97403 13.0295 5.14125C13.1111 5.09431 13.1712 5.01936 13.1977 4.93146C13.2917 4.08756 13.3561 3.22935 13.455 2.31869ZM17.4135 30.8732L23.094 29.5001V29.4286L18.5071 28.1031L17.4135 30.8732Z" fill="black"/>
<path d="M8.90275 14.5148C8.81874 14.5154 8.73544 14.4999 8.6577 14.4692C8.57996 14.4386 8.50933 14.3933 8.44992 14.336C8.39052 14.2788 8.34353 14.2107 8.31168 14.1358C8.27984 14.0609 8.26378 13.9807 8.26444 13.8997C8.25662 13.8141 8.26738 13.7278 8.29603 13.6464C8.32468 13.565 8.3706 13.4902 8.43086 13.4268C8.49112 13.3634 8.56442 13.3127 8.64608 13.2781C8.72775 13.2435 8.81599 13.2256 8.90522 13.2256C8.99444 13.2256 9.08269 13.2435 9.16436 13.2781C9.24602 13.3127 9.31932 13.3634 9.37958 13.4268C9.43984 13.4902 9.48576 13.565 9.51441 13.6464C9.54306 13.7278 9.55382 13.8141 9.546 13.8997C9.54736 13.9812 9.53161 14.0622 9.4997 14.1377C9.46779 14.2133 9.42038 14.2818 9.36031 14.3392C9.30023 14.3967 9.22874 14.4418 9.15012 14.472C9.07149 14.5022 8.98735 14.5167 8.90275 14.5148V14.5148Z" fill="black"/>
</svg>
