<svg width="42" height="43" viewBox="0 0 42 43" fill="none" xmlns="http://www.w3.org/2000/svg">
<path d="M7.96069 24.0984C7.96075 22.0795 8.55365 20.1058 9.66465 18.4262C10.7756 16.7465 12.355 15.436 14.2036 14.66C16.0523 13.884 18.0874 13.6771 20.0525 14.0655C22.0175 14.4538 23.8246 15.42 25.2458 16.8423C26.667 18.2646 27.6387 20.0792 28.0385 22.0575C28.4383 24.0357 28.2483 26.089 27.4923 27.9585C26.7363 29.828 25.4483 31.43 23.7906 32.5626C22.1329 33.6951 20.1797 34.3075 18.1773 34.3226C16.8395 34.3315 15.5132 34.0737 14.2746 33.564C13.036 33.0543 11.9096 32.3027 10.9601 31.3526C10.0106 30.4024 9.25682 29.2723 8.74207 28.0274C8.22732 26.7824 7.96177 25.4472 7.96069 24.0984ZM18.1269 31.4002C19.5582 31.3952 20.956 30.9627 22.1437 30.1573C23.3313 29.3519 24.2557 28.2098 24.8 26.8751C25.3443 25.5405 25.4841 24.0731 25.2018 22.6584C24.9195 21.2437 24.2278 19.945 23.2139 18.9264C22.2001 17.9077 20.9096 17.2148 19.5054 16.9351C18.1012 16.6554 16.6463 16.8015 15.3244 17.3549C14.0025 17.9083 12.8728 18.8442 12.0782 20.0444C11.2835 21.2446 10.8593 22.6553 10.8593 24.0984C10.8638 26.038 11.6317 27.8965 12.9944 29.2656C14.3571 30.6347 16.2031 31.4024 18.1269 31.4002Z" fill="#FCC006"/>
<path d="M0.0715197 25.5552C-0.103848 23.6296 0.0438509 21.6881 0.508415 19.812L7.00302 20.4727C6.84339 21.4638 6.70056 22.421 6.54092 23.3697C6.52404 23.424 6.49581 23.4741 6.45813 23.5164C6.42044 23.5588 6.37419 23.5925 6.32248 23.6154L0.0715197 25.5552Z" fill="#FCC006"/>
<path d="M19.5385 42.2681C17.6357 42.4888 15.7088 42.3451 13.8589 41.8446L14.5058 35.2798L16.4635 35.6779C16.5217 35.69 16.5817 35.69 16.6399 35.6779C17.4801 35.5593 17.6733 36.0506 17.8666 36.7283C18.3791 38.5664 18.9672 40.3876 19.5385 42.2681Z" fill="#FCC006"/>
<path d="M16.657 5.91157C18.5669 5.74708 20.4907 5.89583 22.3534 6.35205L21.6981 12.9508L19.7825 12.5526C19.7239 12.5444 19.6646 12.5444 19.606 12.5526C18.7658 12.6882 18.5222 12.1545 18.3205 11.443C17.8164 9.59634 17.2283 7.79207 16.657 5.91157Z" fill="#FCC006"/>
<path d="M28.4947 18.7529C27.915 17.9058 27.352 17.1773 26.8143 16.4065C26.7876 16.351 26.7737 16.2902 26.7737 16.2286C26.7737 16.1669 26.7876 16.1061 26.8143 16.0507C27.8141 14.1109 28.8308 12.1796 29.8642 10.2144C31.3243 11.4657 32.5803 12.9407 33.5862 14.5853L28.4947 18.7529Z" fill="#FCC006"/>
<path d="M36.1236 22.6499C36.2881 24.5703 36.1377 26.505 35.6783 28.3761L29.1921 27.7239C29.3434 26.7413 29.4778 25.801 29.6458 24.8608C29.6664 24.7955 29.7013 24.7358 29.7478 24.686C29.7943 24.6361 29.8514 24.5974 29.9147 24.5728C31.9731 23.929 34.0148 23.3021 36.1236 22.6499Z" fill="#FCC006"/>
<path d="M6.38119 37.9817C4.9152 36.7363 3.65835 35.2603 2.65918 33.6108L7.70027 29.4517C8.2884 30.2564 8.85972 31.0357 9.38064 31.8235C9.40569 31.8794 9.41865 31.94 9.41865 32.0014C9.41865 32.0627 9.40569 32.1233 9.38064 32.1792C8.39762 34.1021 7.40621 36.0165 6.38119 37.9817Z" fill="#FCC006"/>
<path d="M31.9227 35.9231C30.6809 37.3923 29.218 38.6557 27.5873 39.6672L23.4536 34.5847C24.2518 34.0003 25.0164 33.4242 25.8061 32.8906C25.8611 32.8636 25.9214 32.8496 25.9826 32.8496C26.0437 32.8496 26.104 32.8636 26.159 32.8906L31.9227 35.9231Z" fill="#FCC006"/>
<path d="M8.66688 8.52881L12.8678 13.679C12.5737 13.8569 12.2881 14.0263 12.0276 14.2042C11.7196 14.3721 11.4367 14.5831 11.1874 14.831C10.6161 15.4918 10.0952 15.3647 9.40624 14.9666C7.70908 14.0263 6.02871 13.1792 4.33154 12.2729C5.57009 10.8005 7.03357 9.53658 8.66688 8.52881Z" fill="#FCC006"/>
<path d="M32.763 34.7546L26.991 31.6713C27.4783 30.8665 27.9572 30.0788 28.4445 29.2994C28.4767 29.255 28.5182 29.2182 28.5661 29.1919C28.6141 29.1655 28.6672 29.1502 28.7217 29.147C30.8642 29.3587 33.0067 29.5875 35.1491 29.8162C35.1491 29.8162 35.1491 29.8162 35.2416 29.867C34.6763 31.6178 33.8398 33.2674 32.763 34.7546Z" fill="#FCC006"/>
<path d="M23.8234 6.79248C25.5638 7.37892 27.2024 8.23637 28.6797 9.3337L25.6214 15.1107C24.7812 14.6194 24.0503 14.1451 23.2857 13.6622C23.2359 13.6263 23.1949 13.5794 23.1658 13.5251C23.1367 13.4708 23.1202 13.4105 23.1177 13.3488C23.3193 11.2142 23.5294 9.07958 23.7478 6.94495C23.7679 6.8917 23.7932 6.84061 23.8234 6.79248Z" fill="#FCC006"/>
<path d="M26.2346 40.379C24.602 41.2493 22.8302 41.8228 21.0002 42.0731L19.093 35.8217C20.0172 35.6015 20.9078 35.3728 21.79 35.1695C21.846 35.1654 21.9022 35.1739 21.9545 35.1944C22.0068 35.2149 22.0539 35.2469 22.0925 35.2881C23.5208 36.9653 24.8483 38.6594 26.2346 40.379Z" fill="#FCC006"/>
<path d="M29.7217 23.1072C29.5032 22.1754 29.2848 21.3029 29.0999 20.4305C29.0901 20.3627 29.0965 20.2936 29.1184 20.2288C29.1403 20.164 29.1772 20.1054 29.226 20.0577C30.9063 18.6685 32.5867 17.2963 34.2671 15.8901C35.0972 17.5469 35.6642 19.3248 35.9474 21.1589L29.7217 23.1072Z" fill="#FCC006"/>
<path d="M17.1102 12.3831C16.186 12.6118 15.3038 12.832 14.4132 13.0353C14.3572 13.0394 14.301 13.0309 14.2487 13.0104C14.1964 12.9899 14.1492 12.9579 14.1107 12.9167C12.7328 11.2226 11.3549 9.52843 9.96021 7.83428C11.6065 6.99731 13.3727 6.42565 15.1945 6.14014L17.1102 12.3831Z" fill="#FCC006"/>
<path d="M1.94532 32.3151C1.102 30.6526 0.526291 28.8656 0.239746 27.0209L6.4823 25.0811C6.70915 26.0213 6.9276 26.9107 7.12924 27.8086C7.13966 27.8573 7.1374 27.9078 7.12267 27.9553C7.10795 28.0028 7.08126 28.0457 7.04522 28.0797C5.35646 29.5028 3.66769 30.892 1.94532 32.3151Z" fill="#FCC006"/>
<path d="M0.945068 18.3384C1.5047 16.5872 2.34787 14.9415 3.44041 13.4678L9.23767 16.5172C8.74196 17.3643 8.27146 18.1097 7.79255 18.8721C7.75733 18.9234 7.71109 18.966 7.65727 18.9968C7.60345 19.0276 7.54343 19.0458 7.48169 19.05L1.13831 18.4062C1.05429 18.4062 1.01228 18.3723 0.945068 18.3384Z" fill="#FCC006"/>
<path d="M10.5904 33.0854C11.4306 33.5852 12.1532 34.0426 12.9009 34.5255C12.9535 34.5588 12.9981 34.6034 13.0315 34.6561C13.0649 34.7088 13.0863 34.7684 13.0942 34.8304C12.8841 37.0074 12.6657 39.1759 12.4388 41.4207C10.691 40.8334 9.04424 39.9762 7.55737 38.8794L10.5904 33.0854Z" fill="#FCC006"/>
<path d="M41.5008 28.3846L37.3503 27.9611L37.7284 23.9459L41.9293 22.6499C42.1021 24.5722 41.9573 26.5101 41.5008 28.3846Z" fill="#FCC006"/>
<path d="M40.0555 15.8901C40.8884 17.5488 41.4556 19.3299 41.7359 21.1674L37.6358 22.438C37.4173 21.3368 37.2493 20.2441 36.9888 19.1768C36.9007 18.9833 36.888 18.7634 36.9534 18.5609C37.0188 18.3584 37.1574 18.1881 37.3417 18.0841C38.2827 17.3895 39.1481 16.6356 40.0555 15.8901Z" fill="#FCC006"/>
<path d="M41.089 29.8161C40.5036 31.5822 39.6536 33.2477 38.5685 34.7546L35.5354 33.1366L36.9889 29.3926L41.089 29.8161Z" fill="#FCC006"/>
<path d="M39.3416 14.5853L36.4346 16.9825C35.8381 15.8474 35.3172 14.7208 34.6618 13.6789C34.4729 13.4632 34.3646 13.1878 34.3554 12.9003C34.3462 12.6127 34.4367 12.3309 34.6114 12.1033C34.9824 11.4918 35.3218 10.8613 35.628 10.2144C37.0904 11.4611 38.3443 12.9369 39.3416 14.5853Z" fill="#FCC006"/>
<path d="M37.6697 35.9232C36.4316 37.396 34.968 38.6599 33.3344 39.6672L32.0237 38.0324L34.8551 34.3984L37.6697 35.9232Z" fill="#FCC006"/>
<path d="M29.5618 6.76709C31.3182 7.35239 32.9736 8.20973 34.4685 9.30831L33.1998 11.714C33.139 11.5689 33.0599 11.4322 32.9646 11.3074C31.9227 10.3163 30.9061 9.31678 29.8391 8.385C29.5618 8.13935 29.377 7.95299 29.4862 7.53793C29.5322 7.28349 29.5575 7.02569 29.5618 6.76709Z" fill="#FCC006"/>
<path d="M30.9989 39.1001L32.0407 40.3876C30.2023 41.3399 28.2111 41.9565 26.1594 42.2089L30.9989 39.1001Z" fill="#FCC006"/>
<path d="M26.0415 5.9541L28.142 6.32681L28.0579 7.10612L26.0415 6.03881V5.9541Z" fill="#FCC006"/>
<path d="M12.313 24.0982C12.313 22.9433 12.6524 21.8142 13.2883 20.8536C13.9242 19.893 14.8281 19.1439 15.8859 18.7007C16.9438 18.2576 18.1081 18.1404 19.232 18.3639C20.3559 18.5874 21.3889 19.1415 22.2006 19.9564C23.0124 20.7712 23.5665 21.8103 23.793 22.9424C24.0196 24.0745 23.9083 25.2489 23.4734 26.3173C23.0385 27.3858 22.2994 28.3003 21.3493 28.9456C20.3993 29.5909 19.281 29.938 18.1355 29.943C17.372 29.9463 16.6155 29.7976 15.9092 29.5054C15.2029 29.2132 14.5609 28.7832 14.0199 28.2401C13.4789 27.697 13.0496 27.0516 12.7567 26.3408C12.4638 25.63 12.313 24.8679 12.313 24.0982ZM18.1102 28.4775C18.969 28.4759 19.808 28.2176 20.5212 27.7354C21.2344 27.2531 21.7899 26.5686 22.1173 25.7682C22.4448 24.9679 22.5297 24.0876 22.3611 23.2386C22.1925 22.3897 21.7782 21.6101 21.1704 20.9985C20.5625 20.3869 19.7886 19.9706 18.9462 19.8023C18.1038 19.634 17.2309 19.7213 16.4376 20.053C15.6444 20.3847 14.9665 20.946 14.4896 21.666C14.0126 22.386 13.7581 23.2324 13.7581 24.0982C13.7603 25.2604 14.2198 26.3743 15.0358 27.1954C15.8517 28.0164 16.9574 28.4775 18.1102 28.4775Z" fill="#FCC006"/>
<path d="M15.2115 24.0303C15.2249 23.4529 15.4077 22.8924 15.7368 22.4197C16.066 21.947 16.5266 21.5831 17.0607 21.3742C17.5948 21.1653 18.1783 21.1206 18.7376 21.2457C19.2968 21.3709 19.8068 21.6604 20.203 22.0776C20.5992 22.4947 20.8639 23.0209 20.9636 23.5897C21.0634 24.1584 20.9938 24.7442 20.7636 25.2731C20.5334 25.802 20.1529 26.2502 19.6701 26.5612C19.1874 26.8722 18.6241 27.0321 18.0513 27.0205C17.6699 27.0128 17.2938 26.9293 16.9444 26.7747C16.5951 26.6201 16.2795 26.3976 16.0157 26.1198C15.7519 25.842 15.545 25.5144 15.407 25.1559C15.269 24.7973 15.2026 24.4148 15.2115 24.0303Z" fill="#FCC006"/>
<path d="M32.6022 0.368652L33.0633 8.1212L40.7527 8.58604L33.0633 9.05089L32.6022 16.8034L32.1411 9.05089L24.4517 8.58604L32.1411 8.1212L32.6022 0.368652Z" fill="#0A0909"/>
</svg>
